<svg width="107" height="70" viewBox="0 0 107 70" fill="none" xmlns="http://www.w3.org/2000/svg">
<g >
<rect x="0.378788" y="20.3788" width="99.2424" height="48.4848" rx="3.40909" stroke="#6C440E" stroke-width="0.757576"/>
<g filter="url(#filter1_i_131_2506)">
<rect x="1" y="21" width="98" height="47" rx="4" fill="#FFE2BA"/>
</g>
<g filter="url(#filter2_d_131_2506)">
<mask id="path-4-outside-1_131_2506" maskUnits="userSpaceOnUse" x="4" y="2" width="57" height="22" fill="black">
<rect fill="white" x="4" y="2" width="57" height="22"/>

</mask>

</g>
<g >
<mask id="path-6-outside-2_131_2506" maskUnits="userSpaceOnUse" x="4" y="25" width="56" height="14" fill="black">
<rect fill="white" x="4" y="25" width="56" height="14"/>

</mask>

</g>
<path d="M105.682 23.0297C105.682 30.77 99.4072 37.0448 91.6669 37.0448C83.9265 37.0448 77.6517 30.77 77.6517 23.0297C77.6517 15.2893 83.9265 9.01453 91.6669 9.01453C99.4072 9.01453 105.682 15.2893 105.682 23.0297Z" fill="#FFE2BA" stroke="#6C440E" stroke-width="0.757576"/>
<path d="M92.375 14.75C90.7433 14.75 89.1483 15.2339 87.7915 16.1404C86.4348 17.0469 85.3774 18.3354 84.753 19.8429C84.1286 21.3504 83.9652 23.0092 84.2835 24.6095C84.6019 26.2098 85.3876 27.6798 86.5414 28.8336C87.6952 29.9874 89.1652 30.7731 90.7655 31.0915C92.3659 31.4098 94.0247 31.2464 95.5321 30.622C97.0396 29.9976 98.3281 28.9402 99.2346 27.5835C100.141 26.2267 100.625 24.6317 100.625 23C100.623 20.8127 99.7525 18.7158 98.2059 17.1691C96.6592 15.6225 94.5623 14.7525 92.375 14.75ZM92.375 30.5625C90.8793 30.5625 89.4172 30.119 88.1735 29.288C86.9299 28.457 85.9606 27.2759 85.3882 25.894C84.8158 24.5122 84.666 22.9916 84.9578 21.5246C85.2496 20.0576 85.9699 18.7101 87.0275 17.6525C88.0851 16.5949 89.4327 15.8746 90.8996 15.5828C92.3666 15.291 93.8872 15.4408 95.269 16.0132C96.6509 16.5855 97.832 17.5549 98.663 18.7985C99.494 20.0421 99.9375 21.5043 99.9375 23C99.9352 25.005 99.1378 26.9272 97.72 28.345C96.3022 29.7627 94.38 30.5602 92.375 30.5625Z" fill="#6C440E"/>
<path d="M92.3748 16.0146C90.9932 16.0146 89.6428 16.4243 88.4941 17.1918C87.3454 17.9593 86.4501 19.0502 85.9214 20.3266C85.3927 21.6029 85.2543 23.0074 85.5239 24.3624C85.7934 25.7173 86.4586 26.962 87.4355 27.9388C88.4124 28.9157 89.657 29.581 91.012 29.8505C92.367 30.12 93.7714 29.9817 95.0478 29.453C96.3241 28.9243 97.415 28.029 98.1825 26.8803C98.9501 25.7316 99.3597 24.3811 99.3597 22.9996C99.3576 21.1477 98.6211 19.3723 97.3116 18.0628C96.0021 16.7533 94.2266 16.0167 92.3748 16.0146ZM92.3748 29.2972C91.1292 29.2972 89.9117 28.9279 88.876 28.2359C87.8404 27.544 87.0332 26.5604 86.5566 25.4097C86.0799 24.259 85.9552 22.9928 86.1981 21.7712C86.4411 20.5496 87.0409 19.4274 87.9216 18.5467C88.8023 17.666 89.9244 17.0662 91.146 16.8232C92.3676 16.5802 93.6338 16.7049 94.7846 17.1815C95.9353 17.6581 96.9188 18.4653 97.6108 19.5009C98.3028 20.5365 98.6722 21.7541 98.6722 22.9996C98.6703 24.6692 98.0062 26.2699 96.8257 27.4505C95.6451 28.6311 94.0444 29.2953 92.3748 29.2972Z" fill="#6C440E"/>
<path d="M92.375 18.0623C92.4662 18.0623 92.5536 18.0261 92.6181 17.9616C92.6825 17.8972 92.7188 17.8097 92.7188 17.7186V17.4023C92.7188 17.3112 92.6825 17.2237 92.6181 17.1593C92.5536 17.0948 92.4662 17.0586 92.375 17.0586C92.2838 17.0586 92.1964 17.0948 92.1319 17.1593C92.0675 17.2237 92.0312 17.3112 92.0312 17.4023V17.7186C92.0312 17.8097 92.0675 17.8972 92.1319 17.9616C92.1964 18.0261 92.2838 18.0623 92.375 18.0623Z" fill="#6C440E"/>
<path d="M88.3972 19.5087C88.4616 19.5732 88.549 19.6094 88.6402 19.6094C88.7314 19.6094 88.8188 19.5732 88.8832 19.5087C88.9477 19.4443 88.9839 19.3569 88.9839 19.2657C88.9839 19.1745 88.9477 19.0871 88.8832 19.0227L88.6595 18.7989C88.595 18.7345 88.5076 18.6982 88.4165 18.6982C88.3253 18.6982 88.2379 18.7345 88.1734 18.7989C88.109 18.8634 88.0728 18.9508 88.0728 19.042C88.0728 19.1331 88.109 19.2205 88.1734 19.285L88.3972 19.5087Z" fill="#6C440E"/>
<path d="M87.0936 22.6562H86.7773C86.6862 22.6562 86.5987 22.6925 86.5343 22.7569C86.4698 22.8214 86.4336 22.9088 86.4336 23C86.4336 23.0912 86.4698 23.1786 86.5343 23.2431C86.5987 23.3075 86.6862 23.3438 86.7773 23.3438H87.0936C87.1847 23.3438 87.2722 23.3075 87.3366 23.2431C87.4011 23.1786 87.4373 23.0912 87.4373 23C87.4373 22.9088 87.4011 22.8214 87.3366 22.7569C87.2722 22.6925 87.1847 22.6562 87.0936 22.6562Z" fill="#6C440E"/>
<path d="M88.3972 26.4913L88.1734 26.7149C88.1415 26.7468 88.1162 26.7847 88.0989 26.8264C88.0816 26.8681 88.0728 26.9128 88.0728 26.9579C88.0728 27.003 88.0816 27.0477 88.0989 27.0894C88.1162 27.1311 88.1415 27.169 88.1734 27.201C88.2053 27.2329 88.2432 27.2582 88.2849 27.2755C88.3266 27.2927 88.3713 27.3016 88.4165 27.3016C88.4616 27.3016 88.5063 27.2927 88.548 27.2755C88.5897 27.2582 88.6276 27.2329 88.6595 27.201L88.8832 26.9774C88.9152 26.9455 88.9405 26.9076 88.9578 26.8659C88.975 26.8242 88.9839 26.7795 88.9839 26.7343C88.9839 26.6892 88.975 26.6445 88.9578 26.6028C88.9405 26.5611 88.9152 26.5232 88.8832 26.4913C88.8513 26.4594 88.8134 26.4341 88.7717 26.4168C88.73 26.3995 88.6853 26.3906 88.6402 26.3906C88.5951 26.3906 88.5504 26.3995 88.5087 26.4168C88.467 26.4341 88.4291 26.4594 88.3972 26.4913Z" fill="#6C440E"/>
<path d="M92.375 27.9375C92.3299 27.9375 92.2851 27.9464 92.2434 27.9636C92.2017 27.9809 92.1638 28.0062 92.1319 28.0382C92.1 28.0701 92.0747 28.108 92.0574 28.1497C92.0401 28.1914 92.0312 28.2361 92.0313 28.2812V28.5975C92.0313 28.6886 92.0675 28.7761 92.1319 28.8405C92.1964 28.905 92.2838 28.9412 92.375 28.9412C92.4662 28.9412 92.5536 28.905 92.6181 28.8405C92.6825 28.7761 92.7188 28.6886 92.7188 28.5975V28.2812C92.7188 28.2361 92.7099 28.1914 92.6926 28.1497C92.6753 28.108 92.65 28.0701 92.6181 28.0382C92.5862 28.0062 92.5483 27.9809 92.5066 27.9636C92.4649 27.9464 92.4201 27.9375 92.375 27.9375Z" fill="#6C440E"/>
<path d="M96.3529 26.4913C96.2884 26.4268 96.201 26.3906 96.1098 26.3906C96.0187 26.3906 95.9312 26.4268 95.8668 26.4913C95.8023 26.5558 95.7661 26.6432 95.7661 26.7343C95.7661 26.8255 95.8023 26.9129 95.8668 26.9774L96.0905 27.201C96.1224 27.2329 96.1603 27.2582 96.202 27.2755C96.2437 27.2927 96.2884 27.3016 96.3336 27.3016C96.3787 27.3016 96.4234 27.2927 96.4651 27.2755C96.5068 27.2582 96.5447 27.2329 96.5766 27.201C96.6085 27.169 96.6338 27.1311 96.6511 27.0894C96.6684 27.0477 96.6773 27.003 96.6773 26.9579C96.6773 26.9128 96.6684 26.8681 96.6511 26.8264C96.6338 26.7847 96.6085 26.7468 96.5766 26.7149L96.3529 26.4913Z" fill="#6C440E"/>
<path d="M97.973 22.6562H97.6567C97.5656 22.6562 97.4781 22.6925 97.4137 22.7569C97.3492 22.8214 97.313 22.9088 97.313 23C97.313 23.0912 97.3492 23.1786 97.4137 23.2431C97.4781 23.3075 97.5656 23.3438 97.6567 23.3438H97.973C98.0641 23.3438 98.1516 23.3075 98.216 23.2431C98.2805 23.1786 98.3167 23.0912 98.3167 23C98.3167 22.9088 98.2805 22.8214 98.216 22.7569C98.1516 22.6925 98.0641 22.6562 97.973 22.6562Z" fill="#6C440E"/>
<path d="M96.1098 19.6095C96.155 19.6095 96.1997 19.6006 96.2414 19.5834C96.2831 19.5661 96.321 19.5407 96.3528 19.5087L96.5766 19.285C96.6085 19.2531 96.6338 19.2152 96.6511 19.1735C96.6684 19.1318 96.6773 19.0871 96.6773 19.042C96.6773 18.9968 96.6684 18.9521 96.6511 18.9104C96.6338 18.8687 96.6085 18.8308 96.5766 18.7989C96.5447 18.767 96.5068 18.7417 96.4651 18.7244C96.4234 18.7071 96.3787 18.6982 96.3335 18.6982C96.2884 18.6982 96.2437 18.7071 96.202 18.7244C96.1603 18.7417 96.1224 18.767 96.0905 18.7989L95.8668 19.0227C95.8187 19.0707 95.786 19.132 95.7727 19.1986C95.7595 19.2653 95.7663 19.3344 95.7923 19.3972C95.8183 19.46 95.8623 19.5137 95.9189 19.5515C95.9754 19.5893 96.0418 19.6094 96.1098 19.6095Z" fill="#6C440E"/>
<path d="M93.3385 23.3573C93.3875 23.2298 93.4102 23.0937 93.4054 22.9572C93.4006 22.8207 93.3682 22.6866 93.3104 22.5629C93.2525 22.4392 93.1702 22.3284 93.0685 22.2372C92.9668 22.146 92.8478 22.0763 92.7185 22.0322V19.2051C92.7185 19.1139 92.6823 19.0265 92.6178 18.962C92.5534 18.8975 92.4659 18.8613 92.3748 18.8613C92.2836 18.8613 92.1962 18.8975 92.1317 18.962C92.0672 19.0265 92.031 19.1139 92.031 19.2051V22.0322C91.8949 22.0793 91.7703 22.1545 91.6651 22.2528C91.5599 22.3512 91.4766 22.4705 91.4205 22.6032C91.3644 22.7358 91.3368 22.8787 91.3395 23.0227C91.3422 23.1666 91.3751 23.3084 91.4361 23.4389C91.4971 23.5693 91.5848 23.6855 91.6936 23.7799C91.8023 23.8742 91.9297 23.9447 92.0675 23.9867C92.2052 24.0287 92.3502 24.0413 92.4931 24.0236C92.636 24.006 92.7736 23.9585 92.897 23.8843L94.0524 24.8454C94.0871 24.8743 94.1271 24.896 94.1702 24.9094C94.2133 24.9228 94.2586 24.9276 94.3036 24.9235C94.3485 24.9194 94.3922 24.9065 94.4322 24.8855C94.4722 24.8644 94.5076 24.8358 94.5365 24.8011C94.5653 24.7664 94.5871 24.7264 94.6005 24.6832C94.6139 24.6401 94.6187 24.5948 94.6146 24.5499C94.6104 24.5049 94.5975 24.4612 94.5765 24.4213C94.5555 24.3813 94.5268 24.3459 94.4921 24.317L93.3385 23.3573ZM92.031 23.0001C92.031 22.9321 92.0512 22.8656 92.0889 22.8091C92.1267 22.7526 92.1804 22.7085 92.2432 22.6825C92.306 22.6565 92.3751 22.6497 92.4418 22.6629C92.5085 22.6762 92.5698 22.7089 92.6178 22.757C92.6659 22.8051 92.6986 22.8663 92.7119 22.933C92.7252 22.9997 92.7184 23.0688 92.6923 23.1316C92.6663 23.1944 92.6223 23.2481 92.5657 23.2859C92.5092 23.3237 92.4427 23.3438 92.3748 23.3438C92.2836 23.3437 92.1963 23.3075 92.1318 23.243C92.0674 23.1786 92.0311 23.0912 92.031 23.0001Z" fill="#6C440E"/>
<path d="M83.0938 23.3438C83.1849 23.3438 83.2724 23.3075 83.3368 23.2431C83.4013 23.1786 83.4375 23.0912 83.4375 23C83.4375 22.9088 83.4013 22.8214 83.3368 22.7569C83.2724 22.6925 83.1849 22.6562 83.0938 22.6562H82.0625C81.9713 22.6562 81.8839 22.6925 81.8194 22.7569C81.755 22.8214 81.7188 22.9088 81.7188 23C81.7188 23.0912 81.755 23.1786 81.8194 23.2431C81.8839 23.3075 81.9713 23.3438 82.0625 23.3438H83.0938Z" fill="#6C440E"/>
<path d="M83.3276 24.7188H81.7188C81.6276 24.7188 81.5401 24.755 81.4757 24.8194C81.4112 24.8839 81.375 24.9713 81.375 25.0625C81.375 25.1537 81.4112 25.2411 81.4757 25.3056C81.5401 25.37 81.6276 25.4062 81.7188 25.4062H83.3276C83.4187 25.4062 83.5062 25.37 83.5706 25.3056C83.6351 25.2411 83.6713 25.1537 83.6713 25.0625C83.6713 24.9713 83.6351 24.8839 83.5706 24.8194C83.5062 24.755 83.4187 24.7188 83.3276 24.7188Z" fill="#6C440E"/>
<path d="M83.3276 20.5938H81.7188C81.6276 20.5938 81.5401 20.63 81.4757 20.6944C81.4112 20.7589 81.375 20.8463 81.375 20.9375C81.375 21.0287 81.4112 21.1161 81.4757 21.1806C81.5401 21.245 81.6276 21.2812 81.7188 21.2812H83.3276C83.4187 21.2812 83.5062 21.245 83.5706 21.1806C83.6351 21.1161 83.6713 21.0287 83.6713 20.9375C83.6713 20.8463 83.6351 20.7589 83.5706 20.6944C83.5062 20.63 83.4187 20.5938 83.3276 20.5938Z" fill="#6C440E"/>
<path d="M84.4103 18.875C84.4103 18.7838 84.3741 18.6964 84.3097 18.6319C84.2452 18.5675 84.1578 18.5313 84.0666 18.5312H82.75C82.6588 18.5312 82.5714 18.5675 82.5069 18.6319C82.4425 18.6964 82.4062 18.7838 82.4062 18.875C82.4062 18.9662 82.4425 19.0536 82.5069 19.1181C82.5714 19.1825 82.6588 19.2188 82.75 19.2188H84.0666C84.1578 19.2187 84.2452 19.1825 84.3097 19.1181C84.3741 19.0536 84.4103 18.9662 84.4103 18.875Z" fill="#6C440E"/>
<path d="M81.7188 17.1562H85.4691C85.5603 17.1562 85.6477 17.12 85.7122 17.0556C85.7767 16.9911 85.8129 16.9037 85.8129 16.8125C85.8129 16.7213 85.7767 16.6339 85.7122 16.5694C85.6477 16.505 85.5603 16.4688 85.4691 16.4688H81.7188C81.6276 16.4688 81.5401 16.505 81.4757 16.5694C81.4112 16.6339 81.375 16.7213 81.375 16.8125C81.375 16.9037 81.4112 16.9911 81.4757 17.0556C81.5401 17.12 81.6276 17.1562 81.7188 17.1562Z" fill="#6C440E"/>
</g>
<defs>
<filter id="filter0_b_131_2506" x="-3.0303" y="-1.0303" width="112.122" height="73.3028" filterUnits="userSpaceOnUse" color-interpolation-filters="sRGB">
<feFlood flood-opacity="0" result="BackgroundImageFix"/>
<feGaussianBlur in="BackgroundImageFix" stdDeviation="1.51515"/>
<feComposite in2="SourceAlpha" operator="in" result="effect1_backgroundBlur_131_2506"/>
<feBlend mode="normal" in="SourceGraphic" in2="effect1_backgroundBlur_131_2506" result="shape"/>
</filter>
<filter id="filter1_i_131_2506" x="1" y="16" width="98" height="52" filterUnits="userSpaceOnUse" color-interpolation-filters="sRGB">
<feFlood flood-opacity="0" result="BackgroundImageFix"/>
<feBlend mode="normal" in="SourceGraphic" in2="BackgroundImageFix" result="shape"/>
<feColorMatrix in="SourceAlpha" type="matrix" values="0 0 0 0 0 0 0 0 0 0 0 0 0 0 0 0 0 0 127 0" result="hardAlpha"/>
<feOffset dy="-5"/>
<feGaussianBlur stdDeviation="4.45"/>
<feComposite in2="hardAlpha" operator="arithmetic" k2="-1" k3="1"/>
<feColorMatrix type="matrix" values="0 0 0 0 0.6925 0 0 0 0 0.451656 0 0 0 0 0.119456 0 0 0 0.41 0"/>
<feBlend mode="normal" in2="shape" result="effect1_innerShadow_131_2506"/>
</filter>
<filter id="filter2_d_131_2506" x="1.20626" y="0.258824" width="62.7657" height="27.1285" filterUnits="userSpaceOnUse" color-interpolation-filters="sRGB">
<feFlood flood-opacity="0" result="BackgroundImageFix"/>
<feColorMatrix in="SourceAlpha" type="matrix" values="0 0 0 0 0 0 0 0 0 0 0 0 0 0 0 0 0 0 127 0" result="hardAlpha"/>
<feOffset dy="0.954419"/>
<feGaussianBlur stdDeviation="2.62465"/>
<feComposite in2="hardAlpha" operator="out"/>
<feColorMatrix type="matrix" values="0 0 0 0 0.305882 0 0 0 0 0.176471 0 0 0 0 0 0 0 0 0.21 0"/>
<feBlend mode="normal" in2="BackgroundImageFix" result="effect1_dropShadow_131_2506"/>
<feBlend mode="normal" in="SourceGraphic" in2="effect1_dropShadow_131_2506" result="shape"/>
</filter>
<filter id="filter3_d_131_2506" x="1.63009" y="22.2686" width="61.1544" height="21.0474" filterUnits="userSpaceOnUse" color-interpolation-filters="sRGB">
<feFlood flood-opacity="0" result="BackgroundImageFix"/>
<feColorMatrix in="SourceAlpha" type="matrix" values="0 0 0 0 0 0 0 0 0 0 0 0 0 0 0 0 0 0 127 0" result="hardAlpha"/>
<feOffset dy="0.954419"/>
<feGaussianBlur stdDeviation="2.62465"/>
<feComposite in2="hardAlpha" operator="out"/>
<feColorMatrix type="matrix" values="0 0 0 0 0.305882 0 0 0 0 0.176471 0 0 0 0 0 0 0 0 0.21 0"/>
<feBlend mode="normal" in2="BackgroundImageFix" result="effect1_dropShadow_131_2506"/>
<feBlend mode="normal" in="SourceGraphic" in2="effect1_dropShadow_131_2506" result="shape"/>
</filter>
</defs>
</svg>
