<svg width="86" height="87" viewBox="0 0 86 87" fill="none" xmlns="http://www.w3.org/2000/svg">
<path d="M84.5 43.9892C84.5 66.909 65.9198 85.4892 43 85.4892C20.0802 85.4892 1.5 66.909 1.5 43.9892C1.5 21.0694 20.0802 2.48926 43 2.48926C65.9198 2.48926 84.5 21.0694 84.5 43.9892Z" fill="#FFE2BA" stroke="#6C440E" stroke-width="3"/>
<path d="M45.3076 19.333C40.4125 19.333 35.6274 20.7846 31.5573 23.5041C27.4871 26.2237 24.3149 30.0891 22.4416 34.6116C20.5683 39.1341 20.0782 44.1105 21.0332 48.9115C21.9882 53.7125 24.3454 58.1226 27.8067 61.5839C31.2681 65.0452 35.6781 67.4025 40.4791 68.3574C45.2802 69.3124 50.2566 68.8223 54.779 66.949C59.3015 65.0758 63.1669 61.9035 65.8865 57.8334C68.6061 53.7633 70.0576 48.9781 70.0576 44.083C70.0501 37.5212 67.4401 31.2303 62.8002 26.5904C58.1603 21.9505 51.8694 19.3405 45.3076 19.333ZM45.3076 66.7705C40.8205 66.7705 36.4341 65.4399 32.7031 62.947C28.9722 60.454 26.0643 56.9107 24.3471 52.7651C22.6299 48.6195 22.1807 44.0578 23.0561 39.6569C23.9315 35.256 26.0922 31.2134 29.2651 28.0405C32.438 24.8676 36.4806 22.7068 40.8815 21.8314C45.2825 20.956 49.8442 21.4053 53.9898 23.1225C58.1354 24.8397 61.6787 27.7476 64.1716 31.4785C66.6645 35.2094 67.9951 39.5958 67.9951 44.083C67.9883 50.098 65.5959 55.8647 61.3426 60.118C57.0894 64.3712 51.3226 66.7637 45.3076 66.7705Z" fill="#6C440E"/>
<path d="M45.3069 23.127C41.1624 23.1269 37.1109 24.3559 33.6648 26.6584C30.2187 28.961 27.5328 32.2337 25.9467 36.0627C24.3607 39.8918 23.9457 44.1052 24.7542 48.1701C25.5628 52.235 27.5585 55.9689 30.4892 58.8995C33.4198 61.8301 37.1537 63.8259 41.2186 64.6345C45.2835 65.443 49.4969 65.028 53.3259 63.4419C57.155 61.8559 60.4277 59.17 62.7303 55.7239C65.0328 52.2778 66.2618 48.2263 66.2617 44.0818C66.2555 38.5261 64.0458 33.1998 60.1173 29.2713C56.1889 25.3429 50.8626 23.1332 45.3069 23.127ZM45.3069 62.9746C41.5703 62.9746 37.9176 61.8667 34.8107 59.7908C31.7038 57.7149 29.2823 54.7643 27.8523 51.3121C26.4223 47.86 26.0481 44.0613 26.777 40.3965C27.506 36.7317 29.3053 33.3653 31.9474 30.7231C34.5895 28.0809 37.9558 26.2815 41.6206 25.5525C45.2854 24.8235 49.0841 25.1976 52.5363 26.6275C55.9885 28.0573 58.9391 30.4788 61.0151 33.5857C63.0911 36.6925 64.1992 40.3452 64.1992 44.0818C64.1936 49.0906 62.2013 53.8927 58.6596 57.4346C55.1178 60.9764 50.3158 62.9688 45.3069 62.9746Z" fill="#6C440E"/>
<path d="M45.3076 29.27C45.5811 29.27 45.8434 29.1613 46.0368 28.9679C46.2302 28.7745 46.3389 28.5122 46.3389 28.2387V27.29C46.3389 27.0165 46.2302 26.7542 46.0368 26.5608C45.8434 26.3674 45.5811 26.2588 45.3076 26.2588C45.0341 26.2588 44.7718 26.3674 44.5784 26.5608C44.385 26.7542 44.2764 27.0165 44.2764 27.29V28.2387C44.2764 28.5122 44.385 28.7745 44.5784 28.9679C44.7718 29.1613 45.0341 29.27 45.3076 29.27Z" fill="#6C440E"/>
<path d="M33.3746 33.6092C33.568 33.8026 33.8303 33.9112 34.1037 33.9112C34.3772 33.9112 34.6395 33.8026 34.8328 33.6092C35.0262 33.4158 35.1349 33.1536 35.1349 32.8801C35.1349 32.6066 35.0262 32.3443 34.8328 32.151L34.1616 31.4797C33.9683 31.2864 33.706 31.1777 33.4325 31.1777C33.159 31.1777 32.8968 31.2864 32.7034 31.4797C32.51 31.6731 32.4014 31.9354 32.4014 32.2089C32.4014 32.4823 32.51 32.7446 32.7034 32.938L33.3746 33.6092Z" fill="#6C440E"/>
<path d="M29.4633 43.0518H28.5146C28.2411 43.0518 27.9788 43.1604 27.7854 43.3538C27.592 43.5472 27.4834 43.8095 27.4834 44.083C27.4834 44.3565 27.592 44.6188 27.7854 44.8122C27.9788 45.0056 28.2411 45.1143 28.5146 45.1143H29.4633C29.7368 45.1143 29.9991 45.0056 30.1925 44.8122C30.3859 44.6188 30.4946 44.3565 30.4946 44.083C30.4946 43.8095 30.3859 43.5472 30.1925 43.3538C29.9991 43.1604 29.7368 43.0518 29.4633 43.0518Z" fill="#6C440E"/>
<path d="M33.3746 54.5569L32.7034 55.2276C32.6076 55.3234 32.5317 55.437 32.4799 55.5621C32.428 55.6872 32.4014 55.8213 32.4014 55.9567C32.4014 56.0921 32.428 56.2262 32.4799 56.3513C32.5317 56.4764 32.6076 56.5901 32.7034 56.6859C32.7991 56.7816 32.9128 56.8576 33.0379 56.9094C33.163 56.9612 33.2971 56.9879 33.4325 56.9879C33.5679 56.9879 33.702 56.9612 33.8271 56.9094C33.9522 56.8576 34.0659 56.7816 34.1616 56.6859L34.8328 56.0151C34.9286 55.9194 35.0046 55.8057 35.0564 55.6806C35.1082 55.5555 35.1349 55.4214 35.1349 55.286C35.1349 55.1506 35.1082 55.0165 35.0564 54.8914C35.0046 54.7663 34.9286 54.6526 34.8328 54.5569C34.7371 54.4611 34.6234 54.3852 34.4983 54.3334C34.3732 54.2816 34.2391 54.2549 34.1037 54.2549C33.9683 54.2549 33.8342 54.2816 33.7091 54.3334C33.584 54.3852 33.4704 54.4611 33.3746 54.5569Z" fill="#6C440E"/>
<path d="M45.3076 58.8955C45.1722 58.8955 45.0381 58.9221 44.9129 58.9739C44.7878 59.0257 44.6741 59.1017 44.5783 59.1975C44.4826 59.2932 44.4066 59.4069 44.3548 59.5321C44.303 59.6572 44.2763 59.7913 44.2764 59.9268V60.8754C44.2764 61.1489 44.385 61.4112 44.5784 61.6046C44.7718 61.798 45.0341 61.9067 45.3076 61.9067C45.5811 61.9067 45.8434 61.798 46.0368 61.6046C46.2302 61.4112 46.3389 61.1489 46.3389 60.8754V59.9268C46.3389 59.7913 46.3123 59.6572 46.2604 59.5321C46.2086 59.4069 46.1327 59.2932 46.0369 59.1975C45.9411 59.1017 45.8274 59.0257 45.7023 58.9739C45.5772 58.9221 45.4431 58.8955 45.3076 58.8955Z" fill="#6C440E"/>
<path d="M57.2417 54.5569C57.0483 54.3635 56.7861 54.2549 56.5126 54.2549C56.2391 54.2549 55.9768 54.3635 55.7835 54.5569C55.5901 54.7503 55.4814 55.0125 55.4814 55.286C55.4814 55.5595 55.5901 55.8218 55.7835 56.0151L56.4547 56.6859C56.5504 56.7816 56.6641 56.8576 56.7892 56.9094C56.9143 56.9612 57.0484 56.9879 57.1838 56.9879C57.3192 56.9879 57.4533 56.9612 57.5784 56.9094C57.7035 56.8576 57.8172 56.7816 57.9129 56.6859C58.0087 56.5901 58.0846 56.4764 58.1365 56.3513C58.1883 56.2262 58.2149 56.0921 58.2149 55.9567C58.2149 55.8213 58.1883 55.6872 58.1365 55.5621C58.0846 55.437 58.0087 55.3234 57.9129 55.2276L57.2417 54.5569Z" fill="#6C440E"/>
<path d="M62.101 43.0518H61.1523C60.8788 43.0518 60.6165 43.1604 60.4231 43.3538C60.2297 43.5472 60.1211 43.8095 60.1211 44.083C60.1211 44.3565 60.2297 44.6188 60.4231 44.8122C60.6165 45.0056 60.8788 45.1143 61.1523 45.1143H62.101C62.3745 45.1143 62.6368 45.0056 62.8302 44.8122C63.0236 44.6188 63.1323 44.3565 63.1323 44.083C63.1323 43.8095 63.0236 43.5472 62.8302 43.3538C62.6368 43.1604 62.3745 43.0518 62.101 43.0518Z" fill="#6C440E"/>
<path d="M56.5125 33.9114C56.648 33.9115 56.7821 33.8849 56.9072 33.8331C57.0324 33.7812 57.146 33.7051 57.2416 33.6092L57.9129 32.938C58.0086 32.8422 58.0846 32.7286 58.1364 32.6035C58.1882 32.4784 58.2149 32.3443 58.2149 32.2089C58.2149 32.0735 58.1882 31.9394 58.1364 31.8143C58.0846 31.6892 58.0086 31.5755 57.9129 31.4797C57.8171 31.384 57.7034 31.308 57.5783 31.2562C57.4532 31.2044 57.3191 31.1777 57.1837 31.1777C57.0483 31.1777 56.9142 31.2044 56.7891 31.2562C56.664 31.308 56.5504 31.384 56.4546 31.4797L55.7834 32.151C55.6392 32.2952 55.541 32.4789 55.5012 32.6789C55.4615 32.879 55.4819 33.0863 55.5599 33.2747C55.638 33.4631 55.7701 33.6241 55.9397 33.7374C56.1092 33.8508 56.3086 33.9113 56.5125 33.9114Z" fill="#6C440E"/>
<path d="M48.1995 45.154C48.3465 44.7715 48.4148 44.3632 48.4003 43.9537C48.3858 43.5442 48.2888 43.1418 48.1152 42.7707C47.9415 42.3995 47.6948 42.0672 47.3897 41.7936C47.0846 41.52 46.7274 41.3108 46.3396 41.1785V32.6973C46.3396 32.4238 46.231 32.1615 46.0376 31.9681C45.8442 31.7747 45.5819 31.666 45.3084 31.666C45.0349 31.666 44.7726 31.7747 44.5792 31.9681C44.3858 32.1615 44.2771 32.4238 44.2771 32.6973V41.1786C43.8689 41.3199 43.4949 41.5454 43.1794 41.8405C42.8639 42.1355 42.6139 42.4936 42.4457 42.8915C42.2774 43.2894 42.1946 43.7181 42.2027 44.1501C42.2107 44.582 42.3094 45.0074 42.4924 45.3987C42.6754 45.79 42.9386 46.1385 43.2648 46.4216C43.5911 46.7047 43.9732 46.9161 44.3865 47.0421C44.7997 47.1681 45.2347 47.2059 45.6635 47.1529C46.0922 47.1 46.505 46.9576 46.8752 46.735L50.3412 49.6182C50.4453 49.7048 50.5654 49.7701 50.6947 49.8103C50.824 49.8505 50.96 49.8649 51.0949 49.8525C51.2297 49.8402 51.3608 49.8014 51.4807 49.7384C51.6005 49.6754 51.7068 49.5894 51.7934 49.4853C51.8801 49.3812 51.9453 49.2611 51.9855 49.1318C52.0257 49.0025 52.0401 48.8665 52.0277 48.7317C52.0154 48.5968 51.9766 48.4657 51.9136 48.3458C51.8506 48.226 51.7646 48.1197 51.6605 48.0331L48.1995 45.154ZM44.2771 44.0823C44.2771 43.8783 44.3376 43.6789 44.4509 43.5093C44.5642 43.3397 44.7253 43.2076 44.9137 43.1295C45.1022 43.0515 45.3095 43.031 45.5096 43.0708C45.7096 43.1106 45.8933 43.2088 46.0376 43.3531C46.1818 43.4973 46.28 43.681 46.3198 43.8811C46.3596 44.0811 46.3392 44.2885 46.2611 44.4769C46.1831 44.6653 46.0509 44.8264 45.8813 44.9397C45.7117 45.053 45.5123 45.1135 45.3084 45.1135C45.035 45.1132 44.7729 45.0044 44.5796 44.8111C44.3862 44.6178 44.2775 44.3557 44.2771 44.0823Z" fill="#6C440E"/>
<path d="M17.4639 45.1143C17.7374 45.1143 17.9997 45.0056 18.1931 44.8122C18.3865 44.6188 18.4951 44.3565 18.4951 44.083C18.4951 43.8095 18.3865 43.5472 18.1931 43.3538C17.9997 43.1604 17.7374 43.0518 17.4639 43.0518H14.3701C14.0966 43.0518 13.8343 43.1604 13.6409 43.3538C13.4475 43.5472 13.3389 43.8095 13.3389 44.083C13.3389 44.3565 13.4475 44.6188 13.6409 44.8122C13.8343 45.0056 14.0966 45.1143 14.3701 45.1143H17.4639Z" fill="#6C440E"/>
<path d="M18.1653 49.2393H13.3389C13.0654 49.2393 12.8031 49.3479 12.6097 49.5413C12.4163 49.7347 12.3076 49.997 12.3076 50.2705C12.3076 50.544 12.4163 50.8063 12.6097 50.9997C12.8031 51.1931 13.0654 51.3018 13.3389 51.3018H18.1653C18.4388 51.3018 18.7011 51.1931 18.8945 50.9997C19.0879 50.8063 19.1966 50.544 19.1966 50.2705C19.1966 49.997 19.0879 49.7347 18.8945 49.5413C18.7011 49.3479 18.4388 49.2393 18.1653 49.2393Z" fill="#6C440E"/>
<path d="M18.1653 36.8643H13.3389C13.0654 36.8643 12.8031 36.9729 12.6097 37.1663C12.4163 37.3597 12.3076 37.622 12.3076 37.8955C12.3076 38.169 12.4163 38.4313 12.6097 38.6247C12.8031 38.8181 13.0654 38.9268 13.3389 38.9268H18.1653C18.4388 38.9268 18.7011 38.8181 18.8945 38.6247C19.0879 38.4313 19.1966 38.169 19.1966 37.8955C19.1966 37.622 19.0879 37.3597 18.8945 37.1663C18.7011 36.9729 18.4388 36.8643 18.1653 36.8643Z" fill="#6C440E"/>
<path d="M21.4136 31.708C21.4136 31.4345 21.305 31.1722 21.1116 30.9788C20.9182 30.7854 20.6559 30.6768 20.3824 30.6768H16.4326C16.1591 30.6768 15.8968 30.7854 15.7034 30.9788C15.51 31.1722 15.4014 31.4345 15.4014 31.708C15.4014 31.9815 15.51 32.2438 15.7034 32.4372C15.8968 32.6306 16.1591 32.7393 16.4326 32.7393H20.3824C20.6559 32.7392 20.9182 32.6306 21.1116 32.4372C21.305 32.2438 21.4136 31.9815 21.4136 31.708Z" fill="#6C440E"/>
<path d="M13.3389 26.5518H24.59C24.8635 26.5518 25.1258 26.4431 25.3192 26.2497C25.5126 26.0563 25.6212 25.794 25.6212 25.5205C25.6212 25.247 25.5126 24.9847 25.3192 24.7913C25.1258 24.5979 24.8635 24.4893 24.59 24.4893H13.3389C13.0654 24.4893 12.8031 24.5979 12.6097 24.7913C12.4163 24.9847 12.3076 25.247 12.3076 25.5205C12.3076 25.794 12.4163 26.0563 12.6097 26.2497C12.8031 26.4431 13.0654 26.5518 13.3389 26.5518Z" fill="#6C440E"/>
</svg>
