<svg width="87" height="88" viewBox="0 0 87 88" fill="none" xmlns="http://www.w3.org/2000/svg">
<path d="M84.8636 44.1711C84.8636 67.1913 66.202 85.8529 43.1818 85.8529C20.1616 85.8529 1.5 67.1913 1.5 44.1711C1.5 21.1508 20.1616 2.48926 43.1818 2.48926C66.202 2.48926 84.8636 21.1508 84.8636 44.1711Z" fill="#FFE2BA" stroke="#6C440E" stroke-width="3"/>
<path d="M63.6134 63.6561L55.1598 57.9105C52.3474 55.9883 50.2313 53.2089 49.1267 49.9865C48.0221 46.7641 47.9881 43.271 49.0298 40.0277L54.9363 21.8447C55.0037 21.6209 54.9808 21.3796 54.8725 21.1725C54.7642 20.9654 54.579 20.809 54.3567 20.7367C54.1345 20.6645 53.8927 20.6822 53.6833 20.786C53.4739 20.8899 53.3136 21.0716 53.2365 21.2923L47.33 39.4753C46.17 43.0869 46.2078 46.9766 47.4378 50.565C48.6677 54.1534 51.0239 57.2484 54.1554 59.3891L62.6055 65.132C62.7709 65.2463 62.8973 65.4084 62.9678 65.5967C63.0382 65.7849 63.0494 65.9902 62.9997 66.185C62.95 66.3798 62.8419 66.5547 62.6898 66.6861C62.5378 66.8176 62.3491 66.8994 62.1492 66.9204C59.1076 67.3348 55.6554 65.6931 52.1615 64.3324C46.1204 61.7435 39.8259 59.7915 33.3799 58.5082C32.6883 58.3582 32.0367 58.0621 31.4688 57.6398C30.9009 57.2175 30.4298 56.6788 30.087 56.0596C29.7442 55.4405 29.5376 54.7552 29.4811 54.0497C29.4247 53.3443 29.5196 52.6349 29.7595 51.9691L31.2873 48.5018C35.2961 39.8151 37.8119 29.1467 40.0491 19.8351C40.1001 19.6072 40.0599 19.3684 39.937 19.1697C39.8142 18.9711 39.6184 18.8284 39.3917 18.7723C39.1649 18.7162 38.9252 18.751 38.7239 18.8694C38.5226 18.9878 38.3756 19.1804 38.3144 19.4058L35.6076 30.3423C33.7801 37.5477 31.2685 44.562 28.1069 51.2897C27.7685 52.1981 27.6295 53.1686 27.6991 54.1355C27.7688 55.1024 28.0455 56.0429 28.5106 56.8934C28.9758 57.7439 29.6183 58.4844 30.3948 59.0648C31.1712 59.6451 32.0634 60.0517 33.0108 60.2569C36.208 60.8943 39.3713 61.6912 42.4889 62.6448C45.775 63.7163 48.8177 64.9257 51.5018 65.9929C55.2075 67.3751 57.5696 68.7058 61.1222 68.7612C64.2936 69.1632 66.2554 65.733 63.6134 63.6561Z" fill="#6C440E"/>
<path d="M48.9225 66.959L18.0407 66.9769C17.8042 66.9777 17.5777 67.0723 17.4108 67.2399C17.2439 67.4074 17.1503 67.6343 17.1504 67.8708C17.1505 68.1073 17.2444 68.3341 17.4114 68.5015C17.5785 68.6689 17.8051 68.7633 18.0416 68.7639L48.9234 68.746C49.1599 68.7452 49.3864 68.6506 49.5533 68.483C49.7202 68.3155 49.8138 68.0886 49.8137 67.8521C49.8136 67.6156 49.7197 67.3888 49.5527 67.2214C49.3856 67.054 49.159 66.9596 48.9225 66.959Z" fill="#6C440E"/>
<path d="M18.0416 64.2938H18.0425L34.8232 64.2851C35.0597 64.2843 35.2863 64.1897 35.4531 64.0221C35.62 63.8545 35.7137 63.6276 35.7135 63.3911C35.7134 63.1546 35.6196 62.9278 35.4525 62.7604C35.2855 62.593 35.0589 62.4987 34.8224 62.498L18.0407 62.5068C17.8042 62.5076 17.5777 62.6022 17.4108 62.7698C17.2439 62.9374 17.1503 63.1642 17.1504 63.4007C17.1505 63.6372 17.2444 63.864 17.4114 64.0315C17.5785 64.1989 17.8051 64.2932 18.0416 64.2938Z" fill="#6C440E"/>
<path d="M18.0416 59.829H18.0425L26.5939 59.8203C26.8304 59.8194 27.0569 59.7248 27.2238 59.5573C27.3906 59.3897 27.4843 59.1628 27.4842 58.9263C27.4841 58.6898 27.3902 58.463 27.2231 58.2956C27.0561 58.1282 26.8295 58.0338 26.593 58.0332L18.0407 58.0419C17.8042 58.0428 17.5777 58.1374 17.4108 58.3049C17.2439 58.4725 17.1503 58.6994 17.1504 58.9359C17.1505 59.1724 17.2444 59.3992 17.4114 59.5666C17.5785 59.734 17.8051 59.8284 18.0416 59.829Z" fill="#6C440E"/>
<path d="M18.0421 55.3632H25.021C25.1386 55.3636 25.2551 55.3408 25.3639 55.296C25.4726 55.2513 25.5714 55.1855 25.6547 55.1025C25.738 55.0195 25.804 54.9209 25.8491 54.8123C25.8942 54.7037 25.9174 54.5873 25.9174 54.4697C25.9174 54.3521 25.8942 54.2357 25.8491 54.1271C25.804 54.0185 25.738 53.9199 25.6547 53.8369C25.5714 53.7539 25.4726 53.6881 25.3639 53.6434C25.2551 53.5986 25.1386 53.5758 25.021 53.5762H18.0421C17.8056 53.5769 17.579 53.6714 17.4121 53.8389C17.2451 54.0064 17.1514 54.2332 17.1514 54.4697C17.1514 54.7062 17.2451 54.933 17.4121 55.1005C17.579 55.268 17.8056 55.3625 18.0421 55.3632Z" fill="#6C440E"/>
<path d="M18.0411 50.8925H25.7077C25.9442 50.8918 26.1707 50.7973 26.3377 50.6298C26.5046 50.4623 26.5984 50.2355 26.5984 49.999C26.5984 49.7625 26.5046 49.5357 26.3377 49.3682C26.1707 49.2007 25.9442 49.1062 25.7077 49.1055H18.0411C17.8046 49.1062 17.5781 49.2007 17.4111 49.3682C17.2441 49.5357 17.1504 49.7625 17.1504 49.999C17.1504 50.2355 17.2441 50.4623 17.4111 50.6298C17.5781 50.7973 17.8046 50.8918 18.0411 50.8925Z" fill="#6C440E"/>
</svg>
