<svg width="225" height="227" viewBox="0 0 225 227" fill="none" xmlns="http://www.w3.org/2000/svg">
<path d="M111.613 0C113.565 0.195833 114.561 1.45317 115.802 2.82834C116.15 3.21078 116.15 3.21078 116.506 3.60095C122.154 9.93684 125.125 17.0096 129.605 24.1949C129.858 24.5996 130.11 25.0044 130.371 25.4214C130.618 25.8241 130.866 26.2268 131.121 26.6417C131.348 27.0093 131.574 27.3768 131.807 27.7555C132.304 28.6754 132.304 28.6754 132.304 29.5716C133.664 28.2205 135.017 26.8627 136.361 25.4956C146.754 14.9353 146.754 14.9353 152.095 11.2013C152.523 10.8929 152.951 10.5845 153.392 10.2667C154.449 9.51466 155.508 8.7764 156.593 8.06497C156.977 7.80622 157.362 7.54747 157.758 7.28087C158.294 7.00364 158.294 7.00364 158.842 6.72081C160.191 7.16886 160.191 7.16886 160.984 8.50077C161.28 9.10819 161.568 9.71939 161.85 10.3332C162.005 10.67 162.161 11.0068 162.321 11.3538C166.444 20.5572 168.92 30.3986 170.537 40.3248C170.866 40.1389 170.866 40.1389 171.201 39.9491C182.457 33.604 182.457 33.604 184.48 33.604C186.367 39.0491 187.6 44.4995 188.529 50.182C188.61 50.6502 188.61 50.6502 188.692 51.1278C189.538 56.1782 189.509 61.2626 189.512 66.368C189.513 66.7097 189.513 67.0515 189.514 67.4036C189.513 72.1335 189.328 76.8289 188.978 81.5458C189.408 81.3075 189.838 81.0693 190.281 80.8238C200.229 75.3473 213.391 69.0003 224.962 69.0003C225.438 93.8821 221.561 116.904 206.071 137.104C206.923 137.459 207.776 137.814 208.629 138.169C209.104 138.366 209.579 138.564 210.068 138.767C211.281 139.267 212.497 139.758 213.717 140.241C213.46 142.448 212.476 144.079 211.356 145.954C211.159 146.285 210.962 146.616 210.758 146.957C207.39 152.484 203.289 157.47 198.874 162.195C198.264 162.895 197.655 163.595 197.047 164.296C195.379 166.159 193.617 167.787 191.677 169.364C191.341 169.64 191.341 169.64 190.999 169.921C174.515 183.39 150.971 191.183 129.582 189.319C124.151 188.77 118.876 187.661 114.686 183.949C113.853 183.246 113.055 182.803 112.063 182.358C111.838 182.591 111.614 182.823 111.383 183.063C105.545 188.711 97.1849 189.693 89.3568 189.593C78.9532 189.156 68.8505 186.97 58.9867 183.702C58.6741 183.6 58.3615 183.498 58.0394 183.393C50.3501 180.843 43.3474 176.981 36.9466 172.053C36.5448 171.752 36.143 171.452 35.729 171.143C29.7732 166.517 24.4225 160.955 19.9641 154.891C19.3938 154.116 18.8128 153.35 18.2308 152.583C11.3081 143.338 11.3081 143.338 11.3081 140.241C13.9799 139.206 16.6517 138.171 19.4045 137.104C18.987 136.679 18.5695 136.254 18.1394 135.816C4.46356 120.157 -0.206149 96.9535 0.00693178 76.7852C0.0114621 76.0233 0.0155634 75.2614 0.0192309 74.4995C0.0289602 72.6663 0.0443821 70.8333 0.0631565 69.0003C13.0158 70.2095 25.7279 75.6517 36.9466 81.9939C36.8869 81.7328 36.8272 81.4717 36.7656 81.2028C33.5253 66.2183 35.3218 47.9629 40.545 33.604C43.755 34.5672 46.5915 35.8906 49.5409 37.4685C49.9694 37.6938 50.3979 37.919 50.8394 38.1511C53.9654 39.8035 53.9654 39.8035 54.4887 40.3248C54.5653 39.9468 54.6418 39.5688 54.7206 39.1793C56.7393 29.3228 59.1712 19.8439 63.1473 10.5573C63.2899 10.2174 63.4325 9.87761 63.5794 9.52749C64.5943 7.27429 64.5943 7.27429 65.6833 6.79552C66.8983 6.69997 67.2948 6.97639 68.2761 7.67992C68.5853 7.89857 68.8945 8.11722 69.2131 8.34249C69.7034 8.70414 69.7034 8.70414 70.2035 9.07309C70.5434 9.31852 70.8833 9.56395 71.2335 9.81682C74.327 12.0769 77.2623 14.4872 80.1272 17.026C80.3536 17.2239 80.58 17.4218 80.8133 17.6257C84.4324 20.7946 87.7083 24.2087 90.9224 27.7793C91.1457 27.3948 91.1457 27.3948 91.3735 27.0025C96.9128 17.4915 104.651 8.54101 111.613 0ZM112.513 11.2013C95.9281 32.3446 82.7206 60.3184 82.7417 87.3425C82.742 87.8357 82.7424 88.329 82.7428 88.8372C82.771 92.7632 82.9541 96.6712 83.2196 100.588C83.2548 101.133 83.2901 101.678 83.3264 102.24C83.3642 102.744 83.402 103.248 83.4409 103.766C83.4739 104.213 83.5069 104.66 83.5409 105.12C83.6333 106.269 83.6333 106.269 84.6252 107.085C84.8795 106.774 84.8795 106.774 85.139 106.457C88.3346 102.556 91.5411 98.6882 94.9705 94.9874C95.3625 94.556 95.7545 94.1245 96.1583 93.68C99.6298 89.862 103.171 86.1285 107.103 82.7727C108.168 81.8629 109.216 80.9353 110.264 80.0056C110.607 79.7012 110.95 79.3969 111.304 79.0833C111.554 78.8609 111.805 78.6385 112.063 78.4094C113.641 79.0908 114.74 80.0222 115.999 81.1818C117.328 82.4016 118.667 83.603 120.038 84.7767C122.205 86.6601 124.232 88.6732 126.26 90.7029C126.625 91.0647 126.99 91.4266 127.366 91.7994C130.678 95.104 133.708 98.5896 136.661 102.212C136.911 102.516 137.16 102.819 137.418 103.131C138.525 104.488 139.591 105.839 140.549 107.305C140.797 107.676 141.045 108.047 141.3 108.429C141.448 108.429 141.597 108.429 141.75 108.429C142.118 105.525 142.277 102.684 142.291 99.7585C142.293 99.3212 142.296 98.8839 142.298 98.4334C142.303 97.5094 142.306 96.5853 142.307 95.6612C142.312 94.2849 142.326 92.9088 142.34 91.5325C142.384 83.4027 141.656 75.359 139.641 67.4601C139.527 67.0017 139.412 66.5433 139.295 66.071C137.158 57.7492 134.243 49.8495 130.505 42.1171C130.334 41.7572 130.164 41.3973 129.989 41.0265C125.727 32.0319 122.326 23.6191 116.329 15.6716C115.852 15.0389 115.379 14.403 114.909 13.7652C114.666 13.436 114.422 13.1069 114.171 12.7678C113.95 12.4677 113.729 12.1676 113.502 11.8584C113.324 11.6416 113.146 11.4248 112.962 11.2013C112.814 11.2013 112.666 11.2013 112.513 11.2013ZM68.4325 17.9222C66.076 24.7812 64.0484 31.5971 62.7948 38.7457C62.6108 39.7381 62.3881 40.7076 62.1441 41.6865C61.8456 43.2254 61.6996 44.1947 62.1353 45.7015C63.6368 47.3104 65.3136 48.4234 67.1558 49.6106C68.5208 50.5539 69.705 51.6756 70.9063 52.8143C72.1018 53.9365 73.2779 55.0299 74.5662 56.0452C75.5446 56.8346 76.3193 57.6195 77.1192 58.583C77.3494 58.858 77.5796 59.1329 77.8167 59.4161C77.9854 59.6218 78.1542 59.8274 78.328 60.0392C79.6588 58.7136 79.8882 57.0423 80.3802 55.2786C81.6997 50.7104 83.3412 46.2947 85.0521 41.8598C85.8741 39.7238 86.6154 37.572 87.324 35.3963C87.0033 35.0497 86.6827 34.7032 86.3523 34.3461C85.9171 33.8748 85.482 33.4034 85.0469 32.932C84.8184 32.6848 84.5898 32.4376 84.3544 32.1829C83.1597 30.8864 81.9922 29.5772 80.8581 28.2274C77.573 24.4594 73.5342 20.6425 69.3321 17.9222C69.0352 17.9222 68.7383 17.9222 68.4325 17.9222ZM152.77 20.3304C152.475 20.5868 152.18 20.8432 151.876 21.1073C143.455 28.173 143.455 28.173 136.802 36.7404C136.845 38.947 138.152 41.0864 139.051 43.0692C141.563 48.7346 143.462 54.5912 145.348 60.4873C146.728 59.8772 147.638 59.1965 148.676 58.1087C148.963 57.8132 149.249 57.5176 149.545 57.2131C149.848 56.8981 150.152 56.5832 150.464 56.2588C153.965 52.6916 157.672 49.3296 161.943 46.6886C163.053 45.731 163.053 45.731 163.076 44.0808C162.931 41.8919 162.563 39.7348 162.159 37.5805C162.08 37.1559 162.001 36.7312 161.92 36.2937C161.315 33.1607 160.577 30.0748 159.741 26.9952C159.635 26.6013 159.529 26.2073 159.419 25.8014C158.657 23.095 157.688 20.5116 156.593 17.9222C155.003 17.9222 153.921 19.3264 152.77 20.3304ZM45.4928 44.3573C43.9479 53.4973 43.9479 53.4973 43.2438 62.7275C43.2258 63.3051 43.2078 63.8827 43.1893 64.4777C43.0785 69.7523 43.509 74.9687 44.1434 80.2016C44.1822 80.5773 44.2211 80.9529 44.2611 81.3399C44.7219 85.4956 45.459 88.3749 48.81 91.0669C49.659 91.7153 50.5162 92.3507 51.3781 92.9819C60.1537 99.718 66.4435 109.904 71.8915 119.347C72.0668 119.65 72.2421 119.953 72.4227 120.266C72.5754 120.533 72.7281 120.8 72.8855 121.075C73.4486 121.981 74.0775 122.819 74.7296 123.663C78.1534 118.884 78.113 115.51 77.2035 109.885C77.0551 108.857 76.9121 107.829 76.7696 106.8C76.6747 106.117 76.5779 105.434 76.4794 104.752C75.6906 99.1691 75.5416 93.5345 75.5449 87.9026C75.5446 87.3682 75.5443 86.8338 75.544 86.2832C75.5676 82.3028 75.8424 78.402 76.332 74.4539C76.4 73.8311 76.4657 73.2081 76.5288 72.5847C76.5652 72.2741 76.6015 71.9635 76.639 71.6434C76.7619 69.8661 76.5711 69.0618 75.5537 67.5809C75.1103 67.1208 74.6569 66.6702 74.1955 66.228C73.9515 65.9813 73.7075 65.7347 73.4561 65.4806C72.9425 64.9634 72.4252 64.4498 71.9043 63.9398C71.1665 63.2105 70.4511 62.4654 69.7397 61.7107C63.1318 54.7788 54.8471 48.8653 46.3924 44.3573C46.0955 44.3573 45.7986 44.3573 45.4928 44.3573ZM154.203 62.7555C153.547 63.4239 152.897 64.0974 152.253 64.777C151.674 65.3851 151.084 65.9819 150.492 66.578C148.692 68.5264 148.692 68.5264 147.897 70.9868C147.971 72.1497 147.971 72.1497 148.22 73.3305C149.441 79.9256 149.555 86.5371 149.537 93.2232C149.537 93.6899 149.538 94.1566 149.539 94.6375C149.544 101.354 149.275 107.969 148.329 114.623C147.867 118.293 148.206 120.563 150.296 123.663C151.683 122.027 152.746 120.356 153.782 118.482C155.477 115.478 157.296 112.591 159.292 109.773C159.518 109.454 159.744 109.134 159.977 108.804C165.084 101.639 170.665 94.6997 177.828 89.448C180.128 87.2823 180.35 84.0973 180.882 81.0977C180.935 80.7992 180.989 80.5007 181.044 80.1931C182.989 68.5168 182.259 55.8459 179.533 44.3573C172.039 44.3573 159.487 57.5315 154.203 62.7555ZM7.70972 78.4094C6.82008 97.3477 13.4639 117.423 25.1464 132.244C26.1514 133.52 26.1514 133.52 26.8297 134.589C27.4449 135.409 27.4449 135.409 28.4461 135.421C28.8207 135.366 29.1952 135.312 29.5812 135.256C30.0288 135.2 30.4764 135.144 30.9376 135.086C31.964 134.936 32.99 134.783 34.0159 134.628C45.8598 133.005 57.675 133.651 69.1107 137.11C70.6258 137.614 70.6258 137.614 72.0308 137.553C71.6361 134.613 70.4798 132.276 69.1915 129.628C68.9506 129.131 68.7098 128.634 68.4617 128.123C66.2161 123.581 63.6502 119.327 60.7859 115.15C60.5852 114.856 60.3845 114.562 60.1777 114.26C47.7681 96.2318 29.8067 84.0765 8.60932 78.4094C8.31245 78.4094 8.01559 78.4094 7.70972 78.4094ZM198.874 85.1302C198.525 85.2982 198.176 85.4662 197.816 85.6393C190.082 89.4106 183.229 94.1845 176.834 99.916C176.486 100.225 176.138 100.534 175.78 100.852C166.663 109.423 159.303 121.793 154.203 133.1C154.07 133.391 153.937 133.681 153.8 133.981C153.289 135.169 152.966 136.001 153.144 137.299C153.293 137.646 153.293 137.646 153.444 138.001C153.88 137.854 154.316 137.708 154.766 137.558C167.646 133.338 180.933 132.97 194.278 135.189C195.385 135.326 196.41 135.392 197.524 135.312C211.239 123.19 216.5 100.221 217.565 82.9529C217.647 81.4387 217.712 79.9248 217.765 78.4094C211.598 78.4094 204.355 82.4816 198.874 85.1302ZM110.598 89.497C110.318 89.7594 110.039 90.0219 109.751 90.2923C109.456 90.5756 109.162 90.859 108.858 91.151C108.555 91.4378 108.253 91.7246 107.941 92.0201C107.062 92.8559 106.188 93.6965 105.316 94.5394C104.909 94.9315 104.502 95.3237 104.082 95.7278C102.316 97.4602 100.624 99.2376 99.0135 101.115C98.327 101.914 97.6305 102.705 96.9296 103.492C88.6917 112.79 79.5157 124.277 79.6493 137.244C79.6513 137.619 79.6534 137.994 79.6554 138.38C79.6607 139.299 79.6688 140.218 79.6774 141.137C79.9122 141.249 80.1471 141.361 80.389 141.477C85.7659 144.063 90.8617 146.865 95.8701 150.098C96.6175 150.55 97.3662 151 98.1191 151.442C98.121 151.188 98.1228 150.934 98.1247 150.672C98.3007 136.738 103.385 129.278 111.418 117.938C112.144 117.014 112.144 117.014 112.063 116.046C113.623 117.46 114.689 119.035 115.746 120.835C115.919 121.128 116.093 121.422 116.272 121.725C116.824 122.666 117.369 123.611 117.91 124.559C118.085 124.865 118.26 125.171 118.441 125.487C124.056 135.422 127.031 140.026 126.906 151.442C127.149 151.278 127.391 151.114 127.641 150.945C130.638 148.98 133.736 147.242 136.886 145.533C137.308 145.305 137.73 145.076 138.165 144.84C140.538 143.561 142.927 142.324 145.348 141.137C145.876 127.287 139.099 116.44 130.315 106.131C129.67 105.37 129.039 104.601 128.412 103.826C125.347 100.093 121.96 96.6743 118.557 93.2512C118.313 93.0045 118.07 92.7577 117.819 92.5035C117.122 91.7981 116.42 91.0976 115.716 90.3984C115.305 89.9878 114.894 89.5772 114.471 89.1542C112.818 87.7679 112.029 88.1379 110.598 89.497ZM112.513 130.384C107.196 140.622 103.504 145.51 106.99 157.036C107.994 159.787 109.125 162.336 111.613 163.988C112.679 164.325 112.679 164.325 113.862 163.988C117.792 160.85 118.907 155.352 119.46 150.628C120.327 141.451 117.108 138.43 112.962 130.384C112.814 130.384 112.666 130.384 112.513 130.384ZM26.2358 143.405C25.7512 143.514 25.7512 143.514 25.2569 143.625C24.4973 143.81 23.7483 144.038 23.0029 144.273C22.8544 144.569 22.706 144.865 22.5531 145.169C35.2887 164.455 52.9481 175.552 75.5027 180.356C84.565 182.209 95.8563 183.559 104.416 179.222C105.607 178.34 106.445 177.42 107.115 176.085C107.514 172.379 106.25 169.75 103.942 166.865C102.929 165.726 101.882 164.631 100.818 163.54C100.556 163.246 100.295 162.953 100.025 162.651C95.2372 157.463 88.6129 153.747 82.3762 150.546C82.0191 150.362 81.662 150.179 81.2941 149.99C63.6244 141.014 45.5965 139.045 26.2358 143.405ZM122.464 165.115C120.21 167.74 117.617 171.327 117.882 174.937C118.115 176.541 118.516 177.388 119.709 178.493C126.485 183.409 137.371 182.276 145.181 181.108C161.682 178.387 176.712 172.928 188.978 161.299C189.228 161.065 189.478 160.831 189.736 160.589C194.742 155.868 199.497 150.727 202.922 144.721C199.971 143.642 197.048 142.96 193.954 142.425C193.538 142.349 193.122 142.274 192.694 142.196C167.424 137.715 140.377 146.685 122.464 165.115Z" fill="#805211"/>
<path fill-rule="evenodd" clip-rule="evenodd" d="M96.041 44.5144C95.743 45.1005 95.4505 45.6955 95.1648 46.2986C94.6223 47.4438 94.1045 48.6184 93.6211 49.8175C99.7269 52.4752 104.781 53.605 108.587 57.6702C110.022 59.2031 111.279 60.8348 112.348 62.5643C113.417 60.8347 114.674 59.2029 116.109 57.6699C119.914 53.6048 124.969 52.4746 131.075 49.8175C130.6 48.6398 130.091 47.4857 129.559 46.3597C129.264 45.736 128.961 45.1209 128.653 44.5152C123.271 33.9357 116.119 26.2301 115.492 25.5691C114.624 24.653 113.486 24.195 112.348 24.195C111.211 24.195 110.073 24.653 109.205 25.5691C108.585 26.2232 101.424 33.9275 96.041 44.5144ZM123.411 47.0958C119.499 39.4196 114.545 33.327 112.348 30.8012C110.15 33.3261 105.193 39.4172 101.283 47.0952C105.487 49.4235 109.222 49.9413 112.348 53.1565C115.473 49.9417 119.207 49.4239 123.411 47.0958Z" fill="#805211"/>
<path fill-rule="evenodd" clip-rule="evenodd" d="M96.041 206.681C95.743 206.094 95.4505 205.5 95.1648 204.896C94.6223 203.751 94.1045 202.577 93.6211 201.377C99.7269 198.72 104.781 195.35 108.587 191.284C110.022 189.752 111.279 188.12 112.348 186.39C113.417 188.12 114.674 189.752 116.109 191.285C119.914 195.35 124.969 198.72 131.075 201.377C130.6 202.555 130.091 203.709 129.559 204.835C129.264 205.459 128.961 206.074 128.653 206.68C123.271 217.259 116.119 224.965 115.492 225.626C114.624 226.542 113.486 227 112.348 227C111.211 227 110.073 226.542 109.205 225.626C108.585 224.972 101.424 217.268 96.041 206.681ZM123.411 204.099C119.499 211.775 114.545 217.868 112.348 220.394C110.15 217.869 105.193 211.778 101.283 204.1C105.487 201.771 109.222 199.013 112.348 195.798C115.473 199.013 119.207 201.771 123.411 204.099Z" fill="#805211"/>
</svg>
