<svg width="84" height="30" viewBox="0 0 84 30" fill="none" xmlns="http://www.w3.org/2000/svg">
<g >
<rect y="30" width="30" height="84" rx="5" transform="rotate(-90 0 30)" fill="url(#paint0_linear_363_2728)"/>
<rect x="0.4" y="29.6" width="29.2" height="83.2" rx="4.6" transform="rotate(-90 0.4 29.6)" stroke="#6C440E" stroke-width="0.8"/>
<g >
<path fill-rule="evenodd" clip-rule="evenodd" d="M17.8866 16.624C17.6675 16.624 17.5879 16.3949 17.4584 16.1559C17.3389 16.365 17.1796 16.7634 16.8708 16.5841C16.7414 16.5045 16.6916 16.3252 16.7712 16.1858L17.1696 15.5086V12.3914H16.0243V21.0059C16.0243 21.1155 15.9745 21.2151 15.8749 21.2649L11.1344 23.8044C11.0448 23.8542 10.9452 23.8542 10.8556 23.8044L6.12507 21.2649C6.02548 21.2151 5.96573 21.1155 5.96573 21.0059V12.3914C5.58729 12.3914 5.20885 12.3914 4.8304 12.3914V15.5086L5.22876 16.1858C5.41798 16.5244 4.92004 16.8032 4.73081 16.4746L4.54159 16.1559C4.42209 16.365 4.2727 16.7634 3.96397 16.5841C3.82455 16.5045 3.77475 16.3252 3.85442 16.1858L4.25278 15.5086V12.3914C3.6652 12.3914 3.68512 12.3516 3.68512 11.754H2.78881C2.62947 11.754 2.5 11.6246 2.5 11.4652V10.0809C2.5 9.92158 2.62947 9.79211 2.78881 9.79211H3.68512C3.68512 9.02527 3.63533 9.15473 5.10926 9.15473C6.59315 9.15473 6.54335 9.02527 6.54335 9.79211H15.4467C15.4467 9.02527 15.4069 9.15473 16.8808 9.15473C18.3647 9.15473 18.3149 9.02527 18.3149 9.79211H19.2112C19.3705 9.79211 19.5 9.92158 19.5 10.0809V11.4652C19.5 11.6246 19.3705 11.754 19.2112 11.754H18.3149C18.3149 12.3516 18.3348 12.3914 17.7472 12.3914V15.5086L18.1356 16.1858C18.2551 16.385 18.1057 16.624 17.8866 16.624ZM3.68512 11.1764V10.3697H3.07762V11.1764H3.68512ZM6.54335 10.3697V11.1764H15.4467V10.3697H6.54335ZM18.3149 10.3697V11.1764H18.9224V10.3697H18.3149ZM6.54335 20.8366L10.995 23.2268L15.4467 20.8366V11.754H6.54335V20.8366ZM4.26274 11.8138H4.82045V9.73236H4.26274V11.8138ZM5.39807 11.8138H5.96573V9.73236H5.39807V11.8138ZM16.592 11.8138V9.73236H16.0243V11.8138H16.592ZM17.1696 11.8138H17.7373V9.73236H17.1696V11.8138Z" fill="#6A430E"/>
<path d="M10.9739 16.0273C11.0313 16.033 11.0605 16.0696 11.097 16.1096C11.1073 16.1208 11.1073 16.1208 11.1177 16.1321C11.2837 16.3167 11.3709 16.5227 11.5026 16.7319C11.51 16.7437 11.5174 16.7555 11.5251 16.7676C11.5324 16.7794 11.5396 16.7911 11.5471 16.8032C11.5538 16.8139 11.5604 16.8246 11.5673 16.8356C11.5819 16.8624 11.5819 16.8624 11.5819 16.8885C11.6219 16.8492 11.6616 16.8096 11.7011 16.7698C12.0065 16.4622 12.0065 16.4622 12.1634 16.3535C12.176 16.3445 12.1886 16.3355 12.2015 16.3263C12.2326 16.3044 12.2637 16.2829 12.2956 16.2622C12.3069 16.2546 12.3182 16.2471 12.3298 16.2393C12.3456 16.2312 12.3456 16.2312 12.3616 16.223C12.4013 16.2361 12.4013 16.2361 12.4246 16.2748C12.4333 16.2925 12.4417 16.3103 12.45 16.3282C12.4546 16.338 12.4592 16.3478 12.4639 16.3579C12.585 16.626 12.6578 16.9126 12.7053 17.2017C12.7149 17.1963 12.7149 17.1963 12.7248 17.1907C13.0555 17.0059 13.0555 17.0059 13.115 17.0059C13.1704 17.1645 13.2066 17.3233 13.2339 17.4888C13.2363 17.5024 13.2363 17.5024 13.2387 17.5163C13.2636 17.6634 13.2627 17.8115 13.2628 17.9602C13.2628 17.9701 13.2629 17.9801 13.2629 17.9903C13.2629 18.1281 13.2574 18.2648 13.2471 18.4022C13.2598 18.3953 13.2724 18.3883 13.2854 18.3812C13.5777 18.2217 13.9645 18.0368 14.3044 18.0368C14.3184 18.7615 14.2045 19.4319 13.7494 20.0203C13.7744 20.0306 13.7995 20.0409 13.8245 20.0513C13.8385 20.057 13.8524 20.0628 13.8668 20.0687C13.9025 20.0833 13.9382 20.0976 13.974 20.1116C13.9665 20.1759 13.9376 20.2234 13.9047 20.278C13.8989 20.2876 13.8931 20.2973 13.8871 20.3072C13.7881 20.4682 13.6676 20.6134 13.5379 20.751C13.52 20.7714 13.5021 20.7918 13.4842 20.8122C13.4352 20.8664 13.3834 20.9139 13.3264 20.9598C13.3166 20.9678 13.3166 20.9678 13.3065 20.976C12.8222 21.3683 12.1304 21.5953 11.5019 21.541C11.3423 21.525 11.1873 21.4927 11.0642 21.3846C11.0397 21.3641 11.0163 21.3512 10.9872 21.3382C10.9806 21.345 10.974 21.3518 10.9672 21.3588C10.7957 21.5233 10.55 21.5519 10.32 21.549C10.0143 21.5362 9.71746 21.4726 9.42763 21.3774C9.41845 21.3744 9.40926 21.3714 9.3998 21.3684C9.17387 21.2941 8.96811 21.1816 8.78004 21.0381C8.76823 21.0294 8.75642 21.0206 8.74426 21.0116C8.56926 20.8769 8.41204 20.7149 8.28104 20.5383C8.26429 20.5157 8.24721 20.4934 8.23011 20.4711C8.02671 20.2018 8.02671 20.2018 8.02671 20.1116C8.10521 20.0815 8.18372 20.0513 8.2646 20.0203C8.25233 20.0079 8.24007 19.9955 8.22743 19.9828C7.8256 19.5267 7.68839 18.8509 7.69465 18.2635C7.69478 18.2414 7.6949 18.2192 7.69501 18.197C7.6953 18.1436 7.69575 18.0902 7.6963 18.0368C8.07688 18.072 8.4504 18.2305 8.78004 18.4152C8.77828 18.4076 8.77653 18.4 8.77472 18.3922C8.67951 17.9558 8.7323 17.4241 8.88577 17.0059C8.98009 17.034 9.06343 17.0725 9.15009 17.1185C9.16268 17.1251 9.17527 17.1316 9.18824 17.1384C9.28009 17.1865 9.28009 17.1865 9.29547 17.2017C9.29772 17.1907 9.29997 17.1797 9.30229 17.1683C9.3616 16.8813 9.43306 16.6052 9.54988 16.3347C9.55407 16.3248 9.55826 16.3149 9.56258 16.3047C9.5924 16.2391 9.5924 16.2391 9.6244 16.2252C9.6601 16.2224 9.67175 16.2304 9.70058 16.2509C9.70967 16.2573 9.71875 16.2637 9.72811 16.2702C9.74252 16.2808 9.74252 16.2808 9.75722 16.2915C9.7672 16.2987 9.77719 16.3058 9.78748 16.3132C9.87837 16.379 9.96462 16.4492 10.0488 16.5231C10.0555 16.5289 10.0621 16.5347 10.069 16.5406C10.1753 16.6329 10.2716 16.7323 10.366 16.8363C10.3726 16.8251 10.3726 16.8251 10.3792 16.8137C10.542 16.5367 10.7694 16.276 10.9739 16.0273ZM11.0004 16.3535C10.5131 16.9693 10.125 17.784 10.1256 18.571C10.1256 18.5854 10.1256 18.5997 10.1257 18.6145C10.1265 18.7289 10.1319 18.8427 10.1397 18.9568C10.1407 18.9727 10.1417 18.9885 10.1428 19.0049C10.1439 19.0196 10.145 19.0342 10.1462 19.0493C10.1471 19.0624 10.1481 19.0754 10.1491 19.0888C10.1518 19.1222 10.1518 19.1222 10.181 19.146C10.1884 19.1369 10.1884 19.1369 10.1961 19.1277C10.29 19.0141 10.3842 18.9014 10.4849 18.7937C10.4965 18.7811 10.508 18.7685 10.5198 18.7556C10.6218 18.6444 10.7259 18.5357 10.8414 18.4379C10.8727 18.4114 10.9035 18.3844 10.9343 18.3573C10.9444 18.3485 10.9545 18.3396 10.9649 18.3305C10.9722 18.324 10.9796 18.3175 10.9872 18.3109C11.0335 18.3307 11.0658 18.3578 11.1028 18.3916C11.1419 18.4271 11.1812 18.4621 11.2215 18.4963C11.2852 18.5511 11.3447 18.6098 11.4043 18.6689C11.415 18.6794 11.4257 18.69 11.4368 18.7008C11.5341 18.7971 11.6231 18.8986 11.7099 19.0041C11.7173 19.0129 11.7246 19.0217 11.7321 19.0308C11.7647 19.0704 11.796 19.1097 11.8242 19.1524C11.8314 19.1632 11.8387 19.174 11.8462 19.1851C11.8506 19.1851 11.8549 19.1851 11.8594 19.1851C11.8703 19.1006 11.8749 19.0178 11.8753 18.9326C11.8754 18.9199 11.8755 18.9071 11.8756 18.894C11.8757 18.8671 11.8758 18.8402 11.8758 18.8133C11.8759 18.7732 11.8764 18.7331 11.8768 18.693C11.8781 18.4563 11.8567 18.222 11.7975 17.992C11.7941 17.9786 11.7908 17.9653 11.7873 17.9515C11.7245 17.7091 11.6389 17.4791 11.529 17.2539C11.524 17.2434 11.519 17.2329 11.5139 17.2221C11.3887 16.9602 11.2887 16.7151 11.1125 16.4837C11.0985 16.4653 11.0846 16.4467 11.0708 16.4282C11.0636 16.4186 11.0565 16.409 11.0491 16.3991C11.0426 16.3904 11.0361 16.3816 11.0294 16.3726C11.0242 16.3663 11.019 16.36 11.0136 16.3535C11.0092 16.3535 11.0049 16.3535 11.0004 16.3535ZM9.70518 16.5492C9.63594 16.749 9.57636 16.9475 9.53953 17.1557C9.53412 17.1846 9.52758 17.2128 9.52041 17.2413C9.51164 17.2862 9.50735 17.3144 9.52015 17.3583C9.56427 17.4051 9.61354 17.4375 9.66766 17.4721C9.70777 17.4996 9.74257 17.5323 9.77787 17.5654C9.81299 17.5981 9.84755 17.63 9.8854 17.6595C9.91415 17.6825 9.93691 17.7054 9.96042 17.7334C9.96718 17.7414 9.97394 17.7494 9.98091 17.7577C9.98587 17.7637 9.99083 17.7697 9.99593 17.7758C10.035 17.7372 10.0418 17.6886 10.0562 17.6372C10.095 17.5042 10.1432 17.3755 10.1935 17.2464C10.2177 17.1842 10.2394 17.1215 10.2603 17.0581C10.2508 17.0481 10.2414 17.038 10.2317 17.0276C10.2189 17.0138 10.2061 17.0001 10.1934 16.9864C10.1866 16.9792 10.1799 16.972 10.173 16.9646C10.1379 16.9268 10.1036 16.8887 10.0703 16.8494C9.97375 16.7396 9.85508 16.6285 9.73161 16.5492C9.72289 16.5492 9.71416 16.5492 9.70518 16.5492ZM12.1832 16.6194C12.1746 16.6268 12.1659 16.6343 12.157 16.642C11.9096 16.8478 11.9096 16.8478 11.7141 17.0973C11.7153 17.1616 11.7537 17.2239 11.7801 17.2816C11.854 17.4466 11.9098 17.6172 11.9652 17.7889C12.0057 17.7711 12.0325 17.7513 12.0629 17.7196C12.0714 17.711 12.0798 17.7024 12.0885 17.6935C12.0974 17.6844 12.1063 17.6752 12.1155 17.6657C12.2184 17.5618 12.3273 17.4639 12.4528 17.387C12.4854 17.3591 12.4854 17.3591 12.4861 17.3111C12.4818 17.2473 12.471 17.1845 12.4591 17.1218C12.4568 17.1094 12.4545 17.097 12.4521 17.0843C12.4343 16.993 12.4126 16.9032 12.3881 16.8135C12.385 16.802 12.3818 16.7905 12.3786 16.7787C12.3562 16.6999 12.3277 16.6246 12.2956 16.5492C12.2488 16.5492 12.2171 16.5901 12.1832 16.6194ZM9.03115 17.3191C8.98575 17.5853 8.98575 17.5853 8.96506 17.8541C8.96454 17.871 8.96401 17.8878 8.96346 17.9051C8.96021 18.0587 8.97286 18.2106 8.9915 18.363C8.99264 18.374 8.99378 18.3849 8.99496 18.3962C9.0085 18.5172 9.03015 18.6011 9.12862 18.6795C9.15356 18.6984 9.17875 18.7169 9.20407 18.7353C9.46192 18.9314 9.64674 19.2281 9.80681 19.5031C9.81196 19.5119 9.81711 19.5208 9.82242 19.5299C9.82691 19.5376 9.8314 19.5454 9.83602 19.5534C9.85256 19.5798 9.87104 19.6042 9.8902 19.6288C9.9908 19.4896 9.98962 19.3914 9.96289 19.2275C9.95853 19.1976 9.95433 19.1677 9.95014 19.1377C9.94735 19.1178 9.94451 19.0979 9.94162 19.078C9.91844 18.9155 9.91406 18.7514 9.91416 18.5873C9.91415 18.5718 9.91414 18.5562 9.91413 18.5402C9.91483 18.4242 9.9229 18.3106 9.93729 18.1957C9.93929 18.1775 9.94121 18.1594 9.94307 18.1412C9.94414 18.1322 9.94521 18.1231 9.94631 18.1138C9.94992 18.062 9.94431 18.0386 9.91442 17.9955C9.90139 17.9821 9.88807 17.969 9.87451 17.9561C9.86734 17.9489 9.86017 17.9417 9.85278 17.9343C9.83769 17.9193 9.82249 17.9043 9.80719 17.8894C9.78551 17.8682 9.76449 17.8465 9.74359 17.8245C9.54943 17.6226 9.306 17.4504 9.05758 17.3191C9.04886 17.3191 9.04013 17.3191 9.03115 17.3191ZM12.2254 17.855C12.2061 17.8744 12.187 17.894 12.1681 17.9138C12.151 17.9315 12.1337 17.9489 12.1163 17.9663C12.0634 18.023 12.0634 18.023 12.0401 18.0947C12.0422 18.1285 12.0422 18.1285 12.0495 18.1629C12.0854 18.355 12.0888 18.5476 12.0882 18.7423C12.0883 18.7559 12.0883 18.7695 12.0883 18.7835C12.0885 18.9791 12.0806 19.1717 12.0528 19.3655C12.0392 19.4724 12.0491 19.5385 12.1105 19.6288C12.1513 19.5812 12.1825 19.5325 12.213 19.4779C12.2628 19.3904 12.3162 19.3063 12.3749 19.2243C12.3815 19.215 12.3882 19.2057 12.395 19.1961C12.5451 18.9874 12.7091 18.7853 12.9195 18.6323C12.9871 18.5693 12.9936 18.4765 13.0092 18.3891C13.0108 18.3805 13.0124 18.3718 13.014 18.3628C13.0712 18.0227 13.0497 17.6537 12.9696 17.3191C12.7494 17.3191 12.3806 17.7028 12.2254 17.855ZM7.92098 18.3109C7.89484 18.8624 8.09005 19.4471 8.43331 19.8787C8.46284 19.9159 8.46284 19.9159 8.48277 19.947C8.50085 19.9709 8.50085 19.9709 8.53027 19.9712C8.54127 19.9697 8.55228 19.9681 8.56362 19.9664C8.57677 19.9648 8.58992 19.9632 8.60347 19.9615C8.63363 19.9571 8.66378 19.9527 8.69392 19.9482C9.04193 19.9009 9.38909 19.9197 9.7251 20.0204C9.76962 20.0351 9.76962 20.0351 9.81091 20.0333C9.79931 19.9477 9.76533 19.8797 9.72748 19.8025C9.7204 19.7881 9.71333 19.7736 9.70603 19.7587C9.64005 19.6264 9.56466 19.5025 9.4805 19.3809C9.4746 19.3723 9.46871 19.3638 9.46263 19.3549C9.098 18.8299 8.57025 18.4759 7.94741 18.3109C7.93869 18.3109 7.92996 18.3109 7.92098 18.3109ZM13.5379 18.5066C13.5276 18.5115 13.5174 18.5164 13.5068 18.5214C13.2796 18.6312 13.0782 18.7703 12.8903 18.9372C12.8801 18.9462 12.8699 18.9552 12.8593 18.9645C12.5915 19.2141 12.3752 19.5744 12.2254 19.9037C12.2214 19.9121 12.2175 19.9206 12.2135 19.9293C12.1985 19.9639 12.189 19.9882 12.1942 20.0259C12.1986 20.0361 12.1986 20.0361 12.2031 20.0464C12.2159 20.0421 12.2287 20.0379 12.2419 20.0335C12.6203 19.9106 13.0107 19.8999 13.4028 19.9645C13.4354 19.9685 13.4655 19.9704 13.4983 19.9681C13.9012 19.615 14.0558 18.9461 14.0871 18.4432C14.0895 18.3991 14.0914 18.355 14.093 18.3109C13.9118 18.3109 13.6989 18.4294 13.5379 18.5066ZM10.9441 18.6338C10.9359 18.6414 10.9277 18.6491 10.9192 18.6569C10.9106 18.6652 10.9019 18.6734 10.893 18.6819C10.8841 18.6903 10.8752 18.6986 10.866 18.7072C10.8402 18.7316 10.8145 18.7561 10.7889 18.7806C10.777 18.792 10.765 18.8035 10.7527 18.8152C10.7008 18.8657 10.6511 18.9174 10.6037 18.9721C10.5836 18.9954 10.5631 19.0184 10.5425 19.0413C10.3004 19.3121 10.0308 19.6467 10.0348 20.0244C10.0348 20.0353 10.0349 20.0462 10.0349 20.0574C10.0351 20.0842 10.0353 20.1109 10.0356 20.1377C10.0425 20.141 10.0494 20.1443 10.0565 20.1476C10.2145 20.2229 10.3642 20.3045 10.5114 20.3987C10.5333 20.4119 10.5553 20.425 10.5775 20.4378C10.5775 20.4304 10.5776 20.4231 10.5776 20.4154C10.5828 20.0096 10.7322 19.7923 10.9682 19.4621C10.9895 19.4352 10.9895 19.4352 10.9872 19.407C11.033 19.4482 11.0643 19.494 11.0954 19.5464C11.1005 19.555 11.1056 19.5635 11.1108 19.5724C11.1271 19.5998 11.1431 19.6273 11.159 19.6549C11.1641 19.6638 11.1693 19.6727 11.1746 19.6819C11.3395 19.9713 11.427 20.1054 11.4233 20.4378C11.4304 20.4331 11.4375 20.4283 11.4449 20.4234C11.5329 20.3661 11.624 20.3155 11.7165 20.2658C11.7289 20.2591 11.7413 20.2524 11.7541 20.2456C11.8238 20.2083 11.894 20.1723 11.9652 20.1377C11.9807 19.7343 11.7815 19.4185 11.5234 19.1182C11.5045 19.096 11.486 19.0736 11.4675 19.0511C11.3775 18.9424 11.278 18.8428 11.178 18.7431C11.1708 18.7359 11.1637 18.7287 11.1563 18.7213C11.1358 18.7008 11.1152 18.6804 11.0945 18.66C11.0824 18.6481 11.0703 18.6361 11.0579 18.6238C11.0093 18.5834 10.9862 18.5942 10.9441 18.6338ZM11.0004 19.8245C10.8441 20.1227 10.7357 20.2651 10.8381 20.6008C10.8676 20.6809 10.9008 20.7551 10.9739 20.8032C11.0052 20.813 11.0052 20.813 11.04 20.8032C11.1555 20.7118 11.1882 20.5517 11.2045 20.4141C11.23 20.1469 11.1354 20.0589 11.0136 19.8245C11.0092 19.8245 11.0049 19.8245 11.0004 19.8245ZM8.46532 20.2038C8.45109 20.207 8.45109 20.207 8.43656 20.2102C8.41424 20.2156 8.39223 20.2222 8.37033 20.2291C8.36597 20.2377 8.36161 20.2463 8.35711 20.2552C8.73132 20.8168 9.2502 21.14 9.91292 21.2799C10.1792 21.3339 10.511 21.3732 10.7625 21.2469C10.7975 21.2212 10.8221 21.1944 10.8418 21.1555C10.8535 21.0476 10.8164 20.971 10.7485 20.887C10.7188 20.8539 10.688 20.8219 10.6567 20.7902C10.6491 20.7816 10.6414 20.7731 10.6335 20.7643C10.4928 20.6132 10.2981 20.505 10.1149 20.4117C10.1044 20.4064 10.0939 20.4011 10.0831 20.3955C9.5639 20.1341 9.03419 20.0768 8.46532 20.2038ZM11.2928 20.836C11.2265 20.9125 11.1504 21.017 11.1581 21.1221C11.165 21.1688 11.1768 21.1935 11.2118 21.2257C11.4109 21.3689 11.7308 21.3358 11.9603 21.3018C12.4451 21.2226 12.8867 21.0636 13.2471 20.7249C13.2545 20.7181 13.2618 20.7113 13.2694 20.7042C13.4165 20.5667 13.5562 20.417 13.6568 20.2421C13.5702 20.2107 13.4842 20.1908 13.3933 20.1752C13.3811 20.173 13.3689 20.1708 13.3563 20.1686C12.6138 20.0381 11.8191 20.2993 11.2928 20.836Z" fill="#6A430E"/>
<path fill-rule="evenodd" clip-rule="evenodd" d="M10.5164 17.3237C10.5076 17.3408 10.499 17.3581 10.4906 17.3757C10.4747 17.409 10.4595 17.4432 10.4453 17.4781C10.6247 17.5555 10.7732 17.5885 10.885 17.7068C10.9272 17.7515 10.9641 17.799 10.9955 17.8494C11.0269 17.799 11.0639 17.7515 11.106 17.7068C11.2178 17.5884 11.3664 17.5555 11.5458 17.4781C11.5318 17.4438 11.5169 17.4102 11.5012 17.3774C11.4926 17.3593 11.4837 17.3414 11.4746 17.3237C11.3165 17.0156 11.1063 16.7912 11.0879 16.7719C11.0624 16.7453 11.029 16.7319 10.9955 16.7319C10.9621 16.7319 10.9287 16.7453 10.9032 16.7719C10.885 16.791 10.6745 17.0154 10.5164 17.3237ZM11.3206 17.3989C11.2057 17.1753 11.0601 16.9979 10.9955 16.9243C10.931 16.9979 10.7853 17.1752 10.6704 17.3989C10.7939 17.4667 10.9037 17.4818 10.9955 17.5754C11.0873 17.4818 11.1971 17.4667 11.3206 17.3989Z" fill="#6A430E"/>
<path fill-rule="evenodd" clip-rule="evenodd" d="M10.5164 22.0466C10.5076 22.0295 10.499 22.0122 10.4906 21.9946C10.4747 21.9613 10.4595 21.9271 10.4453 21.8922C10.6247 21.8148 10.7732 21.7166 10.885 21.5982C10.9272 21.5536 10.9641 21.506 10.9955 21.4557C11.0269 21.506 11.0639 21.5536 11.106 21.5982C11.2178 21.7166 11.3664 21.8148 11.5458 21.8922C11.5318 21.9265 11.5169 21.9601 11.5012 21.9929C11.4926 22.011 11.4837 22.0289 11.4746 22.0466C11.3165 22.3547 11.1063 22.5791 11.0879 22.5984C11.0624 22.625 11.029 22.6384 10.9955 22.6384C10.9621 22.6384 10.9287 22.625 10.9032 22.5984C10.885 22.5793 10.6745 22.3549 10.5164 22.0466ZM11.3206 21.9714C11.2057 22.195 11.0601 22.3724 10.9955 22.446C10.931 22.3724 10.7853 22.1951 10.6704 21.9714C10.7939 21.9036 10.9037 21.8233 10.9955 21.7297C11.0873 21.8233 11.1971 21.9036 11.3206 21.9714Z" fill="#6A430E"/>
</g>
</g>
<defs>
<filter id="filter0_i_363_2728" x="0" y="0" width="84" height="35" filterUnits="userSpaceOnUse" color-interpolation-filters="sRGB">
<feFlood flood-opacity="0" result="BackgroundImageFix"/>
<feBlend mode="normal" in="SourceGraphic" in2="BackgroundImageFix" result="shape"/>
<feColorMatrix in="SourceAlpha" type="matrix" values="0 0 0 0 0 0 0 0 0 0 0 0 0 0 0 0 0 0 127 0" result="hardAlpha"/>
<feOffset dy="5"/>
<feGaussianBlur stdDeviation="4.45"/>
<feComposite in2="hardAlpha" operator="arithmetic" k2="-1" k3="1"/>
<feColorMatrix type="matrix" values="0 0 0 0 0.6925 0 0 0 0 0.451656 0 0 0 0 0.119456 0 0 0 0.41 0"/>
<feBlend mode="normal" in2="shape" result="effect1_innerShadow_363_2728"/>
</filter>
<linearGradient id="paint0_linear_363_2728" x1="15" y1="30" x2="15" y2="114" gradientUnits="userSpaceOnUse">
<stop offset="0.247903" stop-color="#FFE2BA"/>
<stop offset="0.251007" stop-color="#6C440E"/>
</linearGradient>
<clipPath id="clip0_363_2728">
<rect width="17" height="17" fill="white" transform="translate(2.5 8)"/>
</clipPath>
</defs>
</svg>
