<svg width="34" height="34" viewBox="0 0 34 34" fill="none" xmlns="http://www.w3.org/2000/svg">
<mask id="path-1-outside-1_165_1641" maskUnits="userSpaceOnUse" x="0" y="0" width="34" height="34" fill="black">
<rect fill="white" width="34" height="34"/>
<path d="M15.4489 1.64247C16.3056 0.785842 17.6944 0.785842 18.5511 1.64248L32.3575 15.4489C33.2142 16.3056 33.2142 17.6944 32.3575 18.5511L18.5511 32.3575C17.6944 33.2142 16.3056 33.2142 15.4489 32.3575L1.64247 18.5511C0.785842 17.6944 0.785842 16.3056 1.64248 15.4489L15.4489 1.64247Z"/>
<path d="M16.9374 5.45382C17.1599 5.47621 17.2733 5.61998 17.4147 5.77723C17.4544 5.82096 17.4544 5.82096 17.4949 5.86558C18.1385 6.59007 18.477 7.39883 18.9875 8.22045C19.0163 8.26673 19.0451 8.31301 19.0747 8.3607C19.103 8.40675 19.1312 8.45279 19.1603 8.50024C19.186 8.54227 19.2118 8.5843 19.2384 8.6276C19.295 8.73279 19.295 8.73279 19.295 8.83526C19.45 8.68077 19.6041 8.52551 19.7573 8.36918C20.9415 7.16163 20.9415 7.16163 21.55 6.73467C21.5988 6.6994 21.6475 6.66413 21.6978 6.6278C21.8182 6.5418 21.9389 6.45738 22.0625 6.37603C22.1063 6.34644 22.1502 6.31685 22.1953 6.28637C22.2564 6.25467 22.2564 6.25467 22.3188 6.22233C22.4726 6.27356 22.4726 6.27356 22.5628 6.42586C22.5966 6.49532 22.6294 6.56521 22.6615 6.6354C22.6793 6.67391 22.697 6.71242 22.7153 6.7521C23.1851 7.80448 23.4671 8.92983 23.6513 10.0649C23.6888 10.0436 23.6888 10.0436 23.7271 10.0219C25.0096 9.29637 25.0096 9.29637 25.2401 9.29637C25.4551 9.919 25.5955 10.5422 25.7014 11.192C25.7106 11.2456 25.7106 11.2456 25.72 11.3002C25.8164 11.8777 25.813 12.4591 25.8135 13.0429C25.8135 13.0819 25.8136 13.121 25.8137 13.1613C25.8136 13.7021 25.7925 14.239 25.7526 14.7784C25.8016 14.7512 25.8506 14.7239 25.901 14.6959C27.0345 14.0696 28.5343 13.3439 29.8527 13.3439C29.9069 16.189 29.4651 18.8215 27.7002 21.1314C27.7973 21.172 27.8945 21.2126 27.9917 21.2531C28.0458 21.2757 28.0999 21.2983 28.1556 21.3216C28.2938 21.3788 28.4324 21.4349 28.5714 21.4901C28.5421 21.7424 28.43 21.929 28.3024 22.1433C28.2799 22.1812 28.2575 22.2191 28.2343 22.2581C27.8505 22.8901 27.3832 23.4602 26.8802 24.0005C26.8106 24.0805 26.7412 24.1605 26.672 24.2407C26.4819 24.4537 26.2812 24.6399 26.0601 24.8203C26.0219 24.8518 26.0219 24.8518 25.9828 24.8839C24.1047 26.424 21.422 27.3152 18.9849 27.102C18.366 27.0393 17.765 26.9125 17.2876 26.488C17.1926 26.4076 17.1017 26.3569 16.9887 26.3061C16.9631 26.3327 16.9376 26.3593 16.9112 26.3867C16.2461 27.0325 15.2935 27.1449 14.4015 27.1334C13.2161 27.0834 12.065 26.8335 10.941 26.4598C10.9054 26.4481 10.8698 26.4364 10.8331 26.4244C9.95697 26.1329 9.15907 25.6912 8.42974 25.1277C8.38396 25.0933 8.33817 25.059 8.291 25.0236C7.61239 24.4947 7.00271 23.8586 6.49471 23.1653C6.42973 23.0767 6.36353 22.989 6.29721 22.9014C5.50843 21.8442 5.50843 21.8442 5.50843 21.4901C5.81286 21.3717 6.11729 21.2534 6.43095 21.1314C6.38338 21.0828 6.33581 21.0342 6.2868 20.9841C4.72854 19.1935 4.19646 16.5402 4.22074 14.234C4.22126 14.1469 4.22172 14.0598 4.22214 13.9727C4.22325 13.7631 4.22501 13.5535 4.22715 13.3439C5.703 13.4821 7.15146 14.1044 8.42974 14.8296C8.42294 14.7998 8.41613 14.7699 8.40912 14.7392C8.03991 13.0257 8.24461 10.9383 8.83975 9.29637C9.20551 9.40651 9.52871 9.55783 9.86477 9.73826C9.9136 9.76402 9.96242 9.78977 10.0127 9.81631C10.3689 10.0053 10.3689 10.0053 10.4285 10.0649C10.4373 10.0217 10.446 9.97843 10.455 9.93389C10.685 8.80682 10.9621 7.72293 11.4151 6.66102C11.4314 6.62216 11.4476 6.5833 11.4644 6.54326C11.58 6.28562 11.58 6.28562 11.7041 6.23087C11.8425 6.21994 11.8877 6.25155 11.9995 6.332C12.0347 6.357 12.07 6.382 12.1063 6.40776C12.1621 6.44912 12.1621 6.44912 12.2191 6.4913C12.2579 6.51937 12.2966 6.54743 12.3365 6.57635C12.689 6.83479 13.0234 7.11039 13.3499 7.40071C13.3757 7.42334 13.4014 7.44596 13.428 7.46928C13.8404 7.83163 14.2137 8.22203 14.5799 8.63032C14.6053 8.58635 14.6053 8.58635 14.6313 8.54149C15.2625 7.45393 16.1442 6.43046 16.9374 5.45382ZM17.0399 6.73467C15.1502 9.15235 13.6453 12.3511 13.6477 15.4412C13.6478 15.4976 13.6478 15.554 13.6479 15.6122C13.6511 16.0611 13.672 16.508 13.7022 16.9559C13.7062 17.0182 13.7102 17.0805 13.7144 17.1448C13.7187 17.2024 13.723 17.26 13.7274 17.3193C13.7312 17.3704 13.7349 17.4215 13.7388 17.4741C13.7493 17.6055 13.7493 17.6055 13.8624 17.6987C13.8913 17.6632 13.8913 17.6632 13.9209 17.6269C14.285 17.1809 14.6504 16.7386 15.0411 16.3154C15.0858 16.2661 15.1305 16.2168 15.1765 16.1659C15.572 15.7294 15.9755 15.3024 16.4235 14.9187C16.5449 14.8147 16.6643 14.7086 16.7837 14.6023C16.8228 14.5675 16.8619 14.5327 16.9022 14.4968C16.9307 14.4714 16.9593 14.446 16.9887 14.4198C17.1685 14.4977 17.2938 14.6042 17.4371 14.7368C17.5886 14.8763 17.7412 15.0136 17.8974 15.1479C18.1443 15.3632 18.3752 15.5934 18.6063 15.8255C18.6479 15.8669 18.6895 15.9083 18.7323 15.9509C19.1097 16.3288 19.4549 16.7273 19.7915 17.1416C19.8199 17.1762 19.8484 17.2109 19.8777 17.2466C20.0039 17.4018 20.1254 17.5563 20.2345 17.724C20.2627 17.7664 20.2909 17.8088 20.32 17.8524C20.3369 17.8524 20.3538 17.8524 20.3713 17.8524C20.4133 17.5204 20.4314 17.1956 20.4329 16.861C20.4332 16.811 20.4335 16.761 20.4338 16.7095C20.4343 16.6038 20.4346 16.4981 20.4348 16.3925C20.4353 16.2351 20.4369 16.0777 20.4385 15.9204C20.4435 14.9907 20.3606 14.071 20.131 13.1677C20.118 13.1153 20.105 13.0629 20.0915 13.0089C19.8481 12.0573 19.5159 11.154 19.09 10.2698C19.0706 10.2287 19.0512 10.1875 19.0312 10.1451C18.5456 9.1166 18.1581 8.15461 17.4748 7.24583C17.4204 7.17348 17.3666 7.10077 17.313 7.02784C17.2853 6.9902 17.2575 6.95256 17.2289 6.91379C17.2038 6.87947 17.1786 6.84516 17.1526 6.8098C17.1324 6.78501 17.1121 6.76021 17.0912 6.73467C17.0743 6.73467 17.0574 6.73467 17.0399 6.73467ZM12.0173 7.50318C11.7488 8.28749 11.5178 9.06687 11.375 9.88431C11.354 9.99778 11.3286 10.1086 11.3008 10.2206C11.2668 10.3965 11.2502 10.5074 11.2998 10.6797C11.4709 10.8637 11.662 10.9909 11.8719 11.1267C12.0274 11.2346 12.1623 11.3628 12.2992 11.493C12.4354 11.6213 12.5694 11.7464 12.7162 11.8625C12.8277 11.9527 12.916 12.0425 13.0071 12.1527C13.0333 12.1841 13.0596 12.2155 13.0866 12.2479C13.1058 12.2714 13.125 12.2949 13.1448 12.3192C13.2965 12.1676 13.3226 11.9765 13.3787 11.7748C13.529 11.2524 13.7161 10.7475 13.911 10.2404C14.0047 9.99615 14.0891 9.7501 14.1699 9.5013C14.1333 9.46168 14.0968 9.42205 14.0592 9.38122C14.0096 9.32733 13.96 9.27342 13.9104 9.21952C13.8844 9.19125 13.8583 9.16298 13.8315 9.13386C13.6954 8.98561 13.5624 8.83591 13.4331 8.68156C13.0588 8.25069 12.5986 7.81424 12.1198 7.50318C12.086 7.50318 12.0522 7.50318 12.0173 7.50318ZM21.6269 7.77856C21.5933 7.80788 21.5597 7.83719 21.5251 7.86739C20.5656 8.67534 20.5656 8.67534 19.8075 9.65501C19.8124 9.90732 19.9614 10.152 20.0638 10.3787C20.35 11.0265 20.5664 11.6962 20.7813 12.3704C20.9385 12.3007 21.0423 12.2228 21.1604 12.0984C21.1931 12.0646 21.2258 12.0308 21.2595 11.996C21.2941 11.96 21.3286 11.924 21.3643 11.8869C21.7632 11.479 22.1855 11.0946 22.6722 10.7926C22.7986 10.6831 22.7986 10.6831 22.8013 10.4944C22.7848 10.2441 22.7429 9.99741 22.6968 9.75107C22.6878 9.70251 22.6788 9.65395 22.6696 9.60392C22.6006 9.24567 22.5166 8.8928 22.4213 8.54067C22.4092 8.49562 22.397 8.45057 22.3845 8.40415C22.2978 8.09468 22.1873 7.79927 22.0625 7.50318C21.8814 7.50318 21.7581 7.66375 21.6269 7.77856ZM9.40351 10.526C9.22749 11.5711 9.22749 11.5711 9.14726 12.6266C9.14521 12.6926 9.14316 12.7587 9.14105 12.8267C9.12843 13.4298 9.17748 14.0263 9.24976 14.6247C9.25419 14.6677 9.25861 14.7106 9.26317 14.7549C9.31568 15.2301 9.39967 15.5593 9.78149 15.8671C9.87823 15.9413 9.9759 16.0139 10.0741 16.0861C11.074 16.8564 11.7907 18.0211 12.4115 19.1009C12.4314 19.1355 12.4514 19.1702 12.472 19.2059C12.4894 19.2365 12.5068 19.267 12.5247 19.2984C12.5889 19.4021 12.6605 19.4979 12.7348 19.5944C13.125 19.0479 13.1204 18.6622 13.0167 18.019C12.9998 17.9014 12.9835 17.7838 12.9673 17.6662C12.9565 17.5881 12.9454 17.51 12.9342 17.4319C12.8443 16.7936 12.8274 16.1493 12.8277 15.5053C12.8277 15.4442 12.8277 15.3831 12.8276 15.3201C12.8303 14.865 12.8616 14.4189 12.9174 13.9675C12.9252 13.8963 12.9327 13.825 12.9398 13.7537C12.944 13.7182 12.9481 13.6827 12.9524 13.6461C12.9664 13.4429 12.9447 13.3509 12.8287 13.1815C12.7782 13.1289 12.7265 13.0774 12.674 13.0268C12.6462 12.9986 12.6184 12.9704 12.5897 12.9414C12.5312 12.8822 12.4723 12.8235 12.4129 12.7652C12.3289 12.6818 12.2473 12.5966 12.1663 12.5103C11.4134 11.7177 10.4694 11.0415 9.50602 10.526C9.47219 10.526 9.43836 10.526 9.40351 10.526ZM21.7903 12.6298C21.7155 12.7062 21.6415 12.7832 21.5681 12.8609C21.5021 12.9305 21.4348 12.9987 21.3675 13.0669C21.1623 13.2897 21.1623 13.2897 21.0718 13.571C21.0801 13.704 21.0801 13.704 21.1085 13.839C21.2476 14.5931 21.2606 15.3492 21.2585 16.1137C21.2586 16.1671 21.2587 16.2204 21.2588 16.2754C21.2594 17.0434 21.2288 17.7998 21.121 18.5607C21.0683 18.9804 21.1069 19.2399 21.345 19.5944C21.5031 19.4074 21.6242 19.2163 21.7422 19.002C21.9354 18.6584 22.1426 18.3283 22.3701 18.0061C22.3958 17.9696 22.4216 17.933 22.4482 17.8954C23.0301 17.076 23.666 16.2825 24.4822 15.682C24.7442 15.4344 24.7695 15.0702 24.8301 14.7272C24.8362 14.693 24.8423 14.6589 24.8485 14.6237C25.0702 13.2886 24.987 11.8397 24.6764 10.526C23.8226 10.526 22.3923 12.0324 21.7903 12.6298ZM5.09842 14.4198C4.99705 16.5853 5.75406 18.8809 7.0852 20.5757C7.19971 20.7216 7.19971 20.7216 7.27699 20.8438C7.34709 20.9376 7.34709 20.9376 7.46118 20.9389C7.50385 20.9327 7.54653 20.9265 7.59051 20.9201C7.64151 20.9137 7.69251 20.9073 7.74506 20.9007C7.86201 20.8834 7.97892 20.8659 8.09581 20.8482C9.44533 20.6627 10.7916 20.7365 12.0946 21.132C12.2672 21.1896 12.2672 21.1896 12.4273 21.1827C12.3824 20.8465 12.2506 20.5793 12.1038 20.2765C12.0764 20.2197 12.0489 20.1629 12.0207 20.1044C11.7648 19.5851 11.4724 19.0986 11.1461 18.621C11.1232 18.5874 11.1003 18.5538 11.0768 18.5192C9.66277 16.4577 7.6162 15.0678 5.20092 14.4198C5.16709 14.4198 5.13327 14.4198 5.09842 14.4198ZM26.8802 15.1883C26.8404 15.2075 26.8006 15.2267 26.7597 15.2465C25.8784 15.6777 25.0975 16.2236 24.3689 16.879C24.3292 16.9143 24.2896 16.9497 24.2487 16.9861C23.21 17.9662 22.3713 19.3806 21.7903 20.6735C21.7751 20.7067 21.7599 20.74 21.7443 20.7742C21.6861 20.9102 21.6493 21.0053 21.6696 21.1536C21.6865 21.1934 21.6865 21.1934 21.7038 21.2339C21.7535 21.2172 21.8032 21.2005 21.8543 21.1833C23.322 20.7008 24.8359 20.6586 26.3564 20.9124C26.4827 20.928 26.5994 20.9356 26.7264 20.9265C28.289 19.5403 28.8886 16.9139 29.0099 14.9393C29.0192 14.7662 29.0266 14.5931 29.0327 14.4198C28.3299 14.4198 27.5046 14.8854 26.8802 15.1883ZM16.8217 15.6876C16.7899 15.7176 16.758 15.7476 16.7252 15.7785C16.6917 15.8109 16.6581 15.8434 16.6235 15.8767C16.589 15.9095 16.5545 15.9423 16.519 15.9761C16.4189 16.0717 16.3193 16.1678 16.2199 16.2642C16.1735 16.309 16.1272 16.3539 16.0794 16.4001C15.8781 16.5982 15.6853 16.8014 15.5018 17.0161C15.4236 17.1075 15.3442 17.1979 15.2644 17.2879C14.3257 18.3511 13.2802 19.6646 13.2954 21.1474C13.2956 21.1903 13.2959 21.2331 13.2961 21.2772C13.2967 21.3823 13.2976 21.4874 13.2986 21.5925C13.3254 21.6054 13.3521 21.6182 13.3797 21.6314C13.9923 21.9271 14.573 22.2475 15.1436 22.6172C15.2288 22.6689 15.3141 22.7203 15.3999 22.7709C15.4001 22.7419 15.4003 22.7128 15.4005 22.6829C15.4206 21.0895 15.9999 20.2365 16.9152 18.9398C16.9979 18.8341 16.9979 18.8341 16.9887 18.7234C17.1664 18.8852 17.2879 19.0653 17.4083 19.271C17.4281 19.3046 17.4479 19.3382 17.4683 19.3728C17.5312 19.4804 17.5933 19.5885 17.655 19.6969C17.6749 19.7319 17.6948 19.7669 17.7154 19.803C18.3552 20.939 18.6942 21.4655 18.68 22.7709C18.7076 22.7522 18.7352 22.7334 18.7637 22.7141C19.1052 22.4893 19.4581 22.2907 19.8171 22.0953C19.8652 22.0691 19.9132 22.0429 19.9628 22.016C20.2332 21.8697 20.5054 21.7283 20.7813 21.5925C20.8415 20.0088 20.0692 18.7685 19.0683 17.5896C18.9949 17.5026 18.923 17.4147 18.8515 17.3261C18.5024 16.8992 18.1164 16.5083 17.7286 16.1169C17.7009 16.0887 17.6732 16.0605 17.6446 16.0314C17.5651 15.9507 17.4851 15.8706 17.4049 15.7907C17.3581 15.7437 17.3113 15.6968 17.263 15.6484C17.0747 15.4899 16.9849 15.5322 16.8217 15.6876ZM17.0399 20.3629C16.4341 21.5336 16.0134 22.0926 16.4107 23.4105C16.5251 23.7251 16.654 24.0166 16.9374 24.2055C17.0588 24.244 17.0588 24.244 17.1937 24.2055C17.6414 23.8467 17.7685 23.218 17.8315 22.6779C17.9303 21.6284 17.5636 21.283 17.0912 20.3629C17.0743 20.3629 17.0574 20.3629 17.0399 20.3629ZM7.20932 21.8519C7.15411 21.8644 7.15411 21.8644 7.09779 21.8771C7.01123 21.8982 6.92589 21.9242 6.84096 21.9512C6.82404 21.985 6.80713 22.0188 6.78971 22.0536C8.24084 24.2589 10.253 25.5279 12.8229 26.0771C13.8555 26.289 15.1421 26.4434 16.1174 25.9474C16.2531 25.8466 16.3486 25.7415 16.4249 25.5888C16.4703 25.165 16.3264 24.8644 16.0634 24.5345C15.9479 24.4043 15.8287 24.279 15.7074 24.1542C15.6776 24.1207 15.6478 24.0871 15.6171 24.0526C15.0715 23.4594 14.3167 23.0344 13.6061 22.6684C13.5654 22.6474 13.5247 22.6264 13.4828 22.6048C11.4695 21.5785 9.41533 21.3533 7.20932 21.8519ZM18.1739 24.3344C17.917 24.6345 17.6216 25.0446 17.6517 25.4575C17.6783 25.641 17.724 25.7377 17.86 25.8642C18.632 26.4263 19.8724 26.2967 20.7623 26.1632C22.6424 25.8519 24.355 25.2278 25.7526 23.8981C25.7811 23.8713 25.8096 23.8445 25.8389 23.8169C26.4094 23.2769 26.9511 22.6892 27.3414 22.0024C27.0052 21.879 26.6721 21.801 26.3196 21.7398C26.2722 21.7312 26.2248 21.7225 26.176 21.7136C23.2967 21.2013 20.2149 22.2269 18.1739 24.3344Z"/>
<path fill-rule="evenodd" clip-rule="evenodd" d="M15.1631 10.5439C15.1292 10.611 15.0958 10.679 15.0633 10.748C15.0015 10.8789 14.9425 11.0132 14.8874 11.1503C15.5831 11.4542 16.159 11.5834 16.5926 12.0483C16.7561 12.2236 16.8994 12.4101 17.0212 12.6079C17.143 12.4101 17.2862 12.2235 17.4497 12.0483C17.8833 11.5834 18.4592 11.4542 19.155 11.1503C19.1008 11.0157 19.0429 10.8837 18.9822 10.755C18.9486 10.6836 18.9141 10.6133 18.879 10.544C18.2658 9.33429 17.4508 8.45318 17.3794 8.37758C17.2805 8.27284 17.1508 8.22046 17.0212 8.22046C16.8916 8.22046 16.762 8.27284 16.663 8.37758C16.5924 8.45238 15.7764 9.33335 15.1631 10.5439ZM18.2818 10.8391C17.836 9.96136 17.2715 9.26469 17.0212 8.97587C16.7708 9.26459 16.2059 9.96109 15.7604 10.8391C16.2394 11.1053 16.665 11.1645 17.0211 11.5322C17.3772 11.1645 17.8027 11.1053 18.2818 10.8391Z"/>
<path fill-rule="evenodd" clip-rule="evenodd" d="M15.1631 29.0873C15.1292 29.0203 15.0958 28.9523 15.0633 28.8833C15.0015 28.7523 14.9425 28.618 14.8874 28.4809C15.5831 28.177 16.159 27.7916 16.5926 27.3268C16.7561 27.1515 16.8994 26.9649 17.0212 26.7672C17.143 26.9649 17.2862 27.1515 17.4497 27.3268C17.8833 27.7917 18.4592 28.1771 19.155 28.4809C19.1008 28.6156 19.0429 28.7475 18.9822 28.8763C18.9486 28.9476 18.9141 29.018 18.879 29.0872C18.2658 30.297 17.4508 31.1781 17.3794 31.2537C17.2805 31.3584 17.1508 31.4108 17.0212 31.4108C16.8916 31.4108 16.762 31.3584 16.663 31.2537C16.5924 31.1789 15.7764 30.2979 15.1631 29.0873ZM18.2818 28.7921C17.836 29.6699 17.2715 30.3666 17.0212 30.6554C16.7708 30.3667 16.2059 29.6702 15.7604 28.7922C16.2394 28.526 16.665 28.2106 17.0211 27.8429C17.3772 28.2105 17.8027 28.5259 18.2818 28.7921Z"/>
</mask>
<path d="M15.4489 1.64247C16.3056 0.785842 17.6944 0.785842 18.5511 1.64248L32.3575 15.4489C33.2142 16.3056 33.2142 17.6944 32.3575 18.5511L18.5511 32.3575C17.6944 33.2142 16.3056 33.2142 15.4489 32.3575L1.64247 18.5511C0.785842 17.6944 0.785842 16.3056 1.64248 15.4489L15.4489 1.64247Z" fill="url(#paint0_linear_165_1641)"/>
<path d="M16.9374 5.45382C17.1599 5.47621 17.2733 5.61998 17.4147 5.77723C17.4544 5.82096 17.4544 5.82096 17.4949 5.86558C18.1385 6.59007 18.477 7.39883 18.9875 8.22045C19.0163 8.26673 19.0451 8.31301 19.0747 8.3607C19.103 8.40675 19.1312 8.45279 19.1603 8.50024C19.186 8.54227 19.2118 8.5843 19.2384 8.6276C19.295 8.73279 19.295 8.73279 19.295 8.83526C19.45 8.68077 19.6041 8.52551 19.7573 8.36918C20.9415 7.16163 20.9415 7.16163 21.55 6.73467C21.5988 6.6994 21.6475 6.66413 21.6978 6.6278C21.8182 6.5418 21.9389 6.45738 22.0625 6.37603C22.1063 6.34644 22.1502 6.31685 22.1953 6.28637C22.2564 6.25467 22.2564 6.25467 22.3188 6.22233C22.4726 6.27356 22.4726 6.27356 22.5628 6.42586C22.5966 6.49532 22.6294 6.56521 22.6615 6.6354C22.6793 6.67391 22.697 6.71242 22.7153 6.7521C23.1851 7.80448 23.4671 8.92983 23.6513 10.0649C23.6888 10.0436 23.6888 10.0436 23.7271 10.0219C25.0096 9.29637 25.0096 9.29637 25.2401 9.29637C25.4551 9.919 25.5955 10.5422 25.7014 11.192C25.7106 11.2456 25.7106 11.2456 25.72 11.3002C25.8164 11.8777 25.813 12.4591 25.8135 13.0429C25.8135 13.0819 25.8136 13.121 25.8137 13.1613C25.8136 13.7021 25.7925 14.239 25.7526 14.7784C25.8016 14.7512 25.8506 14.7239 25.901 14.6959C27.0345 14.0696 28.5343 13.3439 29.8527 13.3439C29.9069 16.189 29.4651 18.8215 27.7002 21.1314C27.7973 21.172 27.8945 21.2126 27.9917 21.2531C28.0458 21.2757 28.0999 21.2983 28.1556 21.3216C28.2938 21.3788 28.4324 21.4349 28.5714 21.4901C28.5421 21.7424 28.43 21.929 28.3024 22.1433C28.2799 22.1812 28.2575 22.2191 28.2343 22.2581C27.8505 22.8901 27.3832 23.4602 26.8802 24.0005C26.8106 24.0805 26.7412 24.1605 26.672 24.2407C26.4819 24.4537 26.2812 24.6399 26.0601 24.8203C26.0219 24.8518 26.0219 24.8518 25.9828 24.8839C24.1047 26.424 21.422 27.3152 18.9849 27.102C18.366 27.0393 17.765 26.9125 17.2876 26.488C17.1926 26.4076 17.1017 26.3569 16.9887 26.3061C16.9631 26.3327 16.9376 26.3593 16.9112 26.3867C16.2461 27.0325 15.2935 27.1449 14.4015 27.1334C13.2161 27.0834 12.065 26.8335 10.941 26.4598C10.9054 26.4481 10.8698 26.4364 10.8331 26.4244C9.95697 26.1329 9.15907 25.6912 8.42974 25.1277C8.38396 25.0933 8.33817 25.059 8.291 25.0236C7.61239 24.4947 7.00271 23.8586 6.49471 23.1653C6.42973 23.0767 6.36353 22.989 6.29721 22.9014C5.50843 21.8442 5.50843 21.8442 5.50843 21.4901C5.81286 21.3717 6.11729 21.2534 6.43095 21.1314C6.38338 21.0828 6.33581 21.0342 6.2868 20.9841C4.72854 19.1935 4.19646 16.5402 4.22074 14.234C4.22126 14.1469 4.22172 14.0598 4.22214 13.9727C4.22325 13.7631 4.22501 13.5535 4.22715 13.3439C5.703 13.4821 7.15146 14.1044 8.42974 14.8296C8.42294 14.7998 8.41613 14.7699 8.40912 14.7392C8.03991 13.0257 8.24461 10.9383 8.83975 9.29637C9.20551 9.40651 9.52871 9.55783 9.86477 9.73826C9.9136 9.76402 9.96242 9.78977 10.0127 9.81631C10.3689 10.0053 10.3689 10.0053 10.4285 10.0649C10.4373 10.0217 10.446 9.97843 10.455 9.93389C10.685 8.80682 10.9621 7.72293 11.4151 6.66102C11.4314 6.62216 11.4476 6.5833 11.4644 6.54326C11.58 6.28562 11.58 6.28562 11.7041 6.23087C11.8425 6.21994 11.8877 6.25155 11.9995 6.332C12.0347 6.357 12.07 6.382 12.1063 6.40776C12.1621 6.44912 12.1621 6.44912 12.2191 6.4913C12.2579 6.51937 12.2966 6.54743 12.3365 6.57635C12.689 6.83479 13.0234 7.11039 13.3499 7.40071C13.3757 7.42334 13.4014 7.44596 13.428 7.46928C13.8404 7.83163 14.2137 8.22203 14.5799 8.63032C14.6053 8.58635 14.6053 8.58635 14.6313 8.54149C15.2625 7.45393 16.1442 6.43046 16.9374 5.45382ZM17.0399 6.73467C15.1502 9.15235 13.6453 12.3511 13.6477 15.4412C13.6478 15.4976 13.6478 15.554 13.6479 15.6122C13.6511 16.0611 13.672 16.508 13.7022 16.9559C13.7062 17.0182 13.7102 17.0805 13.7144 17.1448C13.7187 17.2024 13.723 17.26 13.7274 17.3193C13.7312 17.3704 13.7349 17.4215 13.7388 17.4741C13.7493 17.6055 13.7493 17.6055 13.8624 17.6987C13.8913 17.6632 13.8913 17.6632 13.9209 17.6269C14.285 17.1809 14.6504 16.7386 15.0411 16.3154C15.0858 16.2661 15.1305 16.2168 15.1765 16.1659C15.572 15.7294 15.9755 15.3024 16.4235 14.9187C16.5449 14.8147 16.6643 14.7086 16.7837 14.6023C16.8228 14.5675 16.8619 14.5327 16.9022 14.4968C16.9307 14.4714 16.9593 14.446 16.9887 14.4198C17.1685 14.4977 17.2938 14.6042 17.4371 14.7368C17.5886 14.8763 17.7412 15.0136 17.8974 15.1479C18.1443 15.3632 18.3752 15.5934 18.6063 15.8255C18.6479 15.8669 18.6895 15.9083 18.7323 15.9509C19.1097 16.3288 19.4549 16.7273 19.7915 17.1416C19.8199 17.1762 19.8484 17.2109 19.8777 17.2466C20.0039 17.4018 20.1254 17.5563 20.2345 17.724C20.2627 17.7664 20.2909 17.8088 20.32 17.8524C20.3369 17.8524 20.3538 17.8524 20.3713 17.8524C20.4133 17.5204 20.4314 17.1956 20.4329 16.861C20.4332 16.811 20.4335 16.761 20.4338 16.7095C20.4343 16.6038 20.4346 16.4981 20.4348 16.3925C20.4353 16.2351 20.4369 16.0777 20.4385 15.9204C20.4435 14.9907 20.3606 14.071 20.131 13.1677C20.118 13.1153 20.105 13.0629 20.0915 13.0089C19.8481 12.0573 19.5159 11.154 19.09 10.2698C19.0706 10.2287 19.0512 10.1875 19.0312 10.1451C18.5456 9.1166 18.1581 8.15461 17.4748 7.24583C17.4204 7.17348 17.3666 7.10077 17.313 7.02784C17.2853 6.9902 17.2575 6.95256 17.2289 6.91379C17.2038 6.87947 17.1786 6.84516 17.1526 6.8098C17.1324 6.78501 17.1121 6.76021 17.0912 6.73467C17.0743 6.73467 17.0574 6.73467 17.0399 6.73467ZM12.0173 7.50318C11.7488 8.28749 11.5178 9.06687 11.375 9.88431C11.354 9.99778 11.3286 10.1086 11.3008 10.2206C11.2668 10.3965 11.2502 10.5074 11.2998 10.6797C11.4709 10.8637 11.662 10.9909 11.8719 11.1267C12.0274 11.2346 12.1623 11.3628 12.2992 11.493C12.4354 11.6213 12.5694 11.7464 12.7162 11.8625C12.8277 11.9527 12.916 12.0425 13.0071 12.1527C13.0333 12.1841 13.0596 12.2155 13.0866 12.2479C13.1058 12.2714 13.125 12.2949 13.1448 12.3192C13.2965 12.1676 13.3226 11.9765 13.3787 11.7748C13.529 11.2524 13.7161 10.7475 13.911 10.2404C14.0047 9.99615 14.0891 9.7501 14.1699 9.5013C14.1333 9.46168 14.0968 9.42205 14.0592 9.38122C14.0096 9.32733 13.96 9.27342 13.9104 9.21952C13.8844 9.19125 13.8583 9.16298 13.8315 9.13386C13.6954 8.98561 13.5624 8.83591 13.4331 8.68156C13.0588 8.25069 12.5986 7.81424 12.1198 7.50318C12.086 7.50318 12.0522 7.50318 12.0173 7.50318ZM21.6269 7.77856C21.5933 7.80788 21.5597 7.83719 21.5251 7.86739C20.5656 8.67534 20.5656 8.67534 19.8075 9.65501C19.8124 9.90732 19.9614 10.152 20.0638 10.3787C20.35 11.0265 20.5664 11.6962 20.7813 12.3704C20.9385 12.3007 21.0423 12.2228 21.1604 12.0984C21.1931 12.0646 21.2258 12.0308 21.2595 11.996C21.2941 11.96 21.3286 11.924 21.3643 11.8869C21.7632 11.479 22.1855 11.0946 22.6722 10.7926C22.7986 10.6831 22.7986 10.6831 22.8013 10.4944C22.7848 10.2441 22.7429 9.99741 22.6968 9.75107C22.6878 9.70251 22.6788 9.65395 22.6696 9.60392C22.6006 9.24567 22.5166 8.8928 22.4213 8.54067C22.4092 8.49562 22.397 8.45057 22.3845 8.40415C22.2978 8.09468 22.1873 7.79927 22.0625 7.50318C21.8814 7.50318 21.7581 7.66375 21.6269 7.77856ZM9.40351 10.526C9.22749 11.5711 9.22749 11.5711 9.14726 12.6266C9.14521 12.6926 9.14316 12.7587 9.14105 12.8267C9.12843 13.4298 9.17748 14.0263 9.24976 14.6247C9.25419 14.6677 9.25861 14.7106 9.26317 14.7549C9.31568 15.2301 9.39967 15.5593 9.78149 15.8671C9.87823 15.9413 9.9759 16.0139 10.0741 16.0861C11.074 16.8564 11.7907 18.0211 12.4115 19.1009C12.4314 19.1355 12.4514 19.1702 12.472 19.2059C12.4894 19.2365 12.5068 19.267 12.5247 19.2984C12.5889 19.4021 12.6605 19.4979 12.7348 19.5944C13.125 19.0479 13.1204 18.6622 13.0167 18.019C12.9998 17.9014 12.9835 17.7838 12.9673 17.6662C12.9565 17.5881 12.9454 17.51 12.9342 17.4319C12.8443 16.7936 12.8274 16.1493 12.8277 15.5053C12.8277 15.4442 12.8277 15.3831 12.8276 15.3201C12.8303 14.865 12.8616 14.4189 12.9174 13.9675C12.9252 13.8963 12.9327 13.825 12.9398 13.7537C12.944 13.7182 12.9481 13.6827 12.9524 13.6461C12.9664 13.4429 12.9447 13.3509 12.8287 13.1815C12.7782 13.1289 12.7265 13.0774 12.674 13.0268C12.6462 12.9986 12.6184 12.9704 12.5897 12.9414C12.5312 12.8822 12.4723 12.8235 12.4129 12.7652C12.3289 12.6818 12.2473 12.5966 12.1663 12.5103C11.4134 11.7177 10.4694 11.0415 9.50602 10.526C9.47219 10.526 9.43836 10.526 9.40351 10.526ZM21.7903 12.6298C21.7155 12.7062 21.6415 12.7832 21.5681 12.8609C21.5021 12.9305 21.4348 12.9987 21.3675 13.0669C21.1623 13.2897 21.1623 13.2897 21.0718 13.571C21.0801 13.704 21.0801 13.704 21.1085 13.839C21.2476 14.5931 21.2606 15.3492 21.2585 16.1137C21.2586 16.1671 21.2587 16.2204 21.2588 16.2754C21.2594 17.0434 21.2288 17.7998 21.121 18.5607C21.0683 18.9804 21.1069 19.2399 21.345 19.5944C21.5031 19.4074 21.6242 19.2163 21.7422 19.002C21.9354 18.6584 22.1426 18.3283 22.3701 18.0061C22.3958 17.9696 22.4216 17.933 22.4482 17.8954C23.0301 17.076 23.666 16.2825 24.4822 15.682C24.7442 15.4344 24.7695 15.0702 24.8301 14.7272C24.8362 14.693 24.8423 14.6589 24.8485 14.6237C25.0702 13.2886 24.987 11.8397 24.6764 10.526C23.8226 10.526 22.3923 12.0324 21.7903 12.6298ZM5.09842 14.4198C4.99705 16.5853 5.75406 18.8809 7.0852 20.5757C7.19971 20.7216 7.19971 20.7216 7.27699 20.8438C7.34709 20.9376 7.34709 20.9376 7.46118 20.9389C7.50385 20.9327 7.54653 20.9265 7.59051 20.9201C7.64151 20.9137 7.69251 20.9073 7.74506 20.9007C7.86201 20.8834 7.97892 20.8659 8.09581 20.8482C9.44533 20.6627 10.7916 20.7365 12.0946 21.132C12.2672 21.1896 12.2672 21.1896 12.4273 21.1827C12.3824 20.8465 12.2506 20.5793 12.1038 20.2765C12.0764 20.2197 12.0489 20.1629 12.0207 20.1044C11.7648 19.5851 11.4724 19.0986 11.1461 18.621C11.1232 18.5874 11.1003 18.5538 11.0768 18.5192C9.66277 16.4577 7.6162 15.0678 5.20092 14.4198C5.16709 14.4198 5.13327 14.4198 5.09842 14.4198ZM26.8802 15.1883C26.8404 15.2075 26.8006 15.2267 26.7597 15.2465C25.8784 15.6777 25.0975 16.2236 24.3689 16.879C24.3292 16.9143 24.2896 16.9497 24.2487 16.9861C23.21 17.9662 22.3713 19.3806 21.7903 20.6735C21.7751 20.7067 21.7599 20.74 21.7443 20.7742C21.6861 20.9102 21.6493 21.0053 21.6696 21.1536C21.6865 21.1934 21.6865 21.1934 21.7038 21.2339C21.7535 21.2172 21.8032 21.2005 21.8543 21.1833C23.322 20.7008 24.8359 20.6586 26.3564 20.9124C26.4827 20.928 26.5994 20.9356 26.7264 20.9265C28.289 19.5403 28.8886 16.9139 29.0099 14.9393C29.0192 14.7662 29.0266 14.5931 29.0327 14.4198C28.3299 14.4198 27.5046 14.8854 26.8802 15.1883ZM16.8217 15.6876C16.7899 15.7176 16.758 15.7476 16.7252 15.7785C16.6917 15.8109 16.6581 15.8434 16.6235 15.8767C16.589 15.9095 16.5545 15.9423 16.519 15.9761C16.4189 16.0717 16.3193 16.1678 16.2199 16.2642C16.1735 16.309 16.1272 16.3539 16.0794 16.4001C15.8781 16.5982 15.6853 16.8014 15.5018 17.0161C15.4236 17.1075 15.3442 17.1979 15.2644 17.2879C14.3257 18.3511 13.2802 19.6646 13.2954 21.1474C13.2956 21.1903 13.2959 21.2331 13.2961 21.2772C13.2967 21.3823 13.2976 21.4874 13.2986 21.5925C13.3254 21.6054 13.3521 21.6182 13.3797 21.6314C13.9923 21.9271 14.573 22.2475 15.1436 22.6172C15.2288 22.6689 15.3141 22.7203 15.3999 22.7709C15.4001 22.7419 15.4003 22.7128 15.4005 22.6829C15.4206 21.0895 15.9999 20.2365 16.9152 18.9398C16.9979 18.8341 16.9979 18.8341 16.9887 18.7234C17.1664 18.8852 17.2879 19.0653 17.4083 19.271C17.4281 19.3046 17.4479 19.3382 17.4683 19.3728C17.5312 19.4804 17.5933 19.5885 17.655 19.6969C17.6749 19.7319 17.6948 19.7669 17.7154 19.803C18.3552 20.939 18.6942 21.4655 18.68 22.7709C18.7076 22.7522 18.7352 22.7334 18.7637 22.7141C19.1052 22.4893 19.4581 22.2907 19.8171 22.0953C19.8652 22.0691 19.9132 22.0429 19.9628 22.016C20.2332 21.8697 20.5054 21.7283 20.7813 21.5925C20.8415 20.0088 20.0692 18.7685 19.0683 17.5896C18.9949 17.5026 18.923 17.4147 18.8515 17.3261C18.5024 16.8992 18.1164 16.5083 17.7286 16.1169C17.7009 16.0887 17.6732 16.0605 17.6446 16.0314C17.5651 15.9507 17.4851 15.8706 17.4049 15.7907C17.3581 15.7437 17.3113 15.6968 17.263 15.6484C17.0747 15.4899 16.9849 15.5322 16.8217 15.6876ZM17.0399 20.3629C16.4341 21.5336 16.0134 22.0926 16.4107 23.4105C16.5251 23.7251 16.654 24.0166 16.9374 24.2055C17.0588 24.244 17.0588 24.244 17.1937 24.2055C17.6414 23.8467 17.7685 23.218 17.8315 22.6779C17.9303 21.6284 17.5636 21.283 17.0912 20.3629C17.0743 20.3629 17.0574 20.3629 17.0399 20.3629ZM7.20932 21.8519C7.15411 21.8644 7.15411 21.8644 7.09779 21.8771C7.01123 21.8982 6.92589 21.9242 6.84096 21.9512C6.82404 21.985 6.80713 22.0188 6.78971 22.0536C8.24084 24.2589 10.253 25.5279 12.8229 26.0771C13.8555 26.289 15.1421 26.4434 16.1174 25.9474C16.2531 25.8466 16.3486 25.7415 16.4249 25.5888C16.4703 25.165 16.3264 24.8644 16.0634 24.5345C15.9479 24.4043 15.8287 24.279 15.7074 24.1542C15.6776 24.1207 15.6478 24.0871 15.6171 24.0526C15.0715 23.4594 14.3167 23.0344 13.6061 22.6684C13.5654 22.6474 13.5247 22.6264 13.4828 22.6048C11.4695 21.5785 9.41533 21.3533 7.20932 21.8519ZM18.1739 24.3344C17.917 24.6345 17.6216 25.0446 17.6517 25.4575C17.6783 25.641 17.724 25.7377 17.86 25.8642C18.632 26.4263 19.8724 26.2967 20.7623 26.1632C22.6424 25.8519 24.355 25.2278 25.7526 23.8981C25.7811 23.8713 25.8096 23.8445 25.8389 23.8169C26.4094 23.2769 26.9511 22.6892 27.3414 22.0024C27.0052 21.879 26.6721 21.801 26.3196 21.7398C26.2722 21.7312 26.2248 21.7225 26.176 21.7136C23.2967 21.2013 20.2149 22.2269 18.1739 24.3344Z" fill="#805211"/>
<path fill-rule="evenodd" clip-rule="evenodd" d="M15.1631 10.5439C15.1292 10.611 15.0958 10.679 15.0633 10.748C15.0015 10.8789 14.9425 11.0132 14.8874 11.1503C15.5831 11.4542 16.159 11.5834 16.5926 12.0483C16.7561 12.2236 16.8994 12.4101 17.0212 12.6079C17.143 12.4101 17.2862 12.2235 17.4497 12.0483C17.8833 11.5834 18.4592 11.4542 19.155 11.1503C19.1008 11.0157 19.0429 10.8837 18.9822 10.755C18.9486 10.6836 18.9141 10.6133 18.879 10.544C18.2658 9.33429 17.4508 8.45318 17.3794 8.37758C17.2805 8.27284 17.1508 8.22046 17.0212 8.22046C16.8916 8.22046 16.762 8.27284 16.663 8.37758C16.5924 8.45238 15.7764 9.33335 15.1631 10.5439ZM18.2818 10.8391C17.836 9.96136 17.2715 9.26469 17.0212 8.97587C16.7708 9.26459 16.2059 9.96109 15.7604 10.8391C16.2394 11.1053 16.665 11.1645 17.0211 11.5322C17.3772 11.1645 17.8027 11.1053 18.2818 10.8391Z" fill="#805211"/>
<path fill-rule="evenodd" clip-rule="evenodd" d="M15.1631 29.0873C15.1292 29.0203 15.0958 28.9523 15.0633 28.8833C15.0015 28.7523 14.9425 28.618 14.8874 28.4809C15.5831 28.177 16.159 27.7916 16.5926 27.3268C16.7561 27.1515 16.8994 26.9649 17.0212 26.7672C17.143 26.9649 17.2862 27.1515 17.4497 27.3268C17.8833 27.7917 18.4592 28.1771 19.155 28.4809C19.1008 28.6156 19.0429 28.7475 18.9822 28.8763C18.9486 28.9476 18.9141 29.018 18.879 29.0872C18.2658 30.297 17.4508 31.1781 17.3794 31.2537C17.2805 31.3584 17.1508 31.4108 17.0212 31.4108C16.8916 31.4108 16.762 31.3584 16.663 31.2537C16.5924 31.1789 15.7764 30.2979 15.1631 29.0873ZM18.2818 28.7921C17.836 29.6699 17.2715 30.3666 17.0212 30.6554C16.7708 30.3667 16.2059 29.6702 15.7604 28.7922C16.2394 28.526 16.665 28.2106 17.0211 27.8429C17.3772 28.2105 17.8027 28.5259 18.2818 28.7921Z" fill="#805211"/>
<path d="M15.4489 1.64247C16.3056 0.785842 17.6944 0.785842 18.5511 1.64248L32.3575 15.4489C33.2142 16.3056 33.2142 17.6944 32.3575 18.5511L18.5511 32.3575C17.6944 33.2142 16.3056 33.2142 15.4489 32.3575L1.64247 18.5511C0.785842 17.6944 0.785842 16.3056 1.64248 15.4489L15.4489 1.64247Z" stroke="#FFFDF9" stroke-width="2" mask="url(#path-1-outside-1_165_1641)"/>
<path d="M16.9374 5.45382C17.1599 5.47621 17.2733 5.61998 17.4147 5.77723C17.4544 5.82096 17.4544 5.82096 17.4949 5.86558C18.1385 6.59007 18.477 7.39883 18.9875 8.22045C19.0163 8.26673 19.0451 8.31301 19.0747 8.3607C19.103 8.40675 19.1312 8.45279 19.1603 8.50024C19.186 8.54227 19.2118 8.5843 19.2384 8.6276C19.295 8.73279 19.295 8.73279 19.295 8.83526C19.45 8.68077 19.6041 8.52551 19.7573 8.36918C20.9415 7.16163 20.9415 7.16163 21.55 6.73467C21.5988 6.6994 21.6475 6.66413 21.6978 6.6278C21.8182 6.5418 21.9389 6.45738 22.0625 6.37603C22.1063 6.34644 22.1502 6.31685 22.1953 6.28637C22.2564 6.25467 22.2564 6.25467 22.3188 6.22233C22.4726 6.27356 22.4726 6.27356 22.5628 6.42586C22.5966 6.49532 22.6294 6.56521 22.6615 6.6354C22.6793 6.67391 22.697 6.71242 22.7153 6.7521C23.1851 7.80448 23.4671 8.92983 23.6513 10.0649C23.6888 10.0436 23.6888 10.0436 23.7271 10.0219C25.0096 9.29637 25.0096 9.29637 25.2401 9.29637C25.4551 9.919 25.5955 10.5422 25.7014 11.192C25.7106 11.2456 25.7106 11.2456 25.72 11.3002C25.8164 11.8777 25.813 12.4591 25.8135 13.0429C25.8135 13.0819 25.8136 13.121 25.8137 13.1613C25.8136 13.7021 25.7925 14.239 25.7526 14.7784C25.8016 14.7512 25.8506 14.7239 25.901 14.6959C27.0345 14.0696 28.5343 13.3439 29.8527 13.3439C29.9069 16.189 29.4651 18.8215 27.7002 21.1314C27.7973 21.172 27.8945 21.2126 27.9917 21.2531C28.0458 21.2757 28.0999 21.2983 28.1556 21.3216C28.2938 21.3788 28.4324 21.4349 28.5714 21.4901C28.5421 21.7424 28.43 21.929 28.3024 22.1433C28.2799 22.1812 28.2575 22.2191 28.2343 22.2581C27.8505 22.8901 27.3832 23.4602 26.8802 24.0005C26.8106 24.0805 26.7412 24.1605 26.672 24.2407C26.4819 24.4537 26.2812 24.6399 26.0601 24.8203C26.0219 24.8518 26.0219 24.8518 25.9828 24.8839C24.1047 26.424 21.422 27.3152 18.9849 27.102C18.366 27.0393 17.765 26.9125 17.2876 26.488C17.1926 26.4076 17.1017 26.3569 16.9887 26.3061C16.9631 26.3327 16.9376 26.3593 16.9112 26.3867C16.2461 27.0325 15.2935 27.1449 14.4015 27.1334C13.2161 27.0834 12.065 26.8335 10.941 26.4598C10.9054 26.4481 10.8698 26.4364 10.8331 26.4244C9.95697 26.1329 9.15907 25.6912 8.42974 25.1277C8.38396 25.0933 8.33817 25.059 8.291 25.0236C7.61239 24.4947 7.00271 23.8586 6.49471 23.1653C6.42973 23.0767 6.36353 22.989 6.29721 22.9014C5.50843 21.8442 5.50843 21.8442 5.50843 21.4901C5.81286 21.3717 6.11729 21.2534 6.43095 21.1314C6.38338 21.0828 6.33581 21.0342 6.2868 20.9841C4.72854 19.1935 4.19646 16.5402 4.22074 14.234C4.22126 14.1469 4.22172 14.0598 4.22214 13.9727C4.22325 13.7631 4.22501 13.5535 4.22715 13.3439C5.703 13.4821 7.15146 14.1044 8.42974 14.8296C8.42294 14.7998 8.41613 14.7699 8.40912 14.7392C8.03991 13.0257 8.24461 10.9383 8.83975 9.29637C9.20551 9.40651 9.52871 9.55783 9.86477 9.73826C9.9136 9.76402 9.96242 9.78977 10.0127 9.81631C10.3689 10.0053 10.3689 10.0053 10.4285 10.0649C10.4373 10.0217 10.446 9.97843 10.455 9.93389C10.685 8.80682 10.9621 7.72293 11.4151 6.66102C11.4314 6.62216 11.4476 6.5833 11.4644 6.54326C11.58 6.28562 11.58 6.28562 11.7041 6.23087C11.8425 6.21994 11.8877 6.25155 11.9995 6.332C12.0347 6.357 12.07 6.382 12.1063 6.40776C12.1621 6.44912 12.1621 6.44912 12.2191 6.4913C12.2579 6.51937 12.2966 6.54743 12.3365 6.57635C12.689 6.83479 13.0234 7.11039 13.3499 7.40071C13.3757 7.42334 13.4014 7.44596 13.428 7.46928C13.8404 7.83163 14.2137 8.22203 14.5799 8.63032C14.6053 8.58635 14.6053 8.58635 14.6313 8.54149C15.2625 7.45393 16.1442 6.43046 16.9374 5.45382ZM17.0399 6.73467C15.1502 9.15235 13.6453 12.3511 13.6477 15.4412C13.6478 15.4976 13.6478 15.554 13.6479 15.6122C13.6511 16.0611 13.672 16.508 13.7022 16.9559C13.7062 17.0182 13.7102 17.0805 13.7144 17.1448C13.7187 17.2024 13.723 17.26 13.7274 17.3193C13.7312 17.3704 13.7349 17.4215 13.7388 17.4741C13.7493 17.6055 13.7493 17.6055 13.8624 17.6987C13.8913 17.6632 13.8913 17.6632 13.9209 17.6269C14.285 17.1809 14.6504 16.7386 15.0411 16.3154C15.0858 16.2661 15.1305 16.2168 15.1765 16.1659C15.572 15.7294 15.9755 15.3024 16.4235 14.9187C16.5449 14.8147 16.6643 14.7086 16.7837 14.6023C16.8228 14.5675 16.8619 14.5327 16.9022 14.4968C16.9307 14.4714 16.9593 14.446 16.9887 14.4198C17.1685 14.4977 17.2938 14.6042 17.4371 14.7368C17.5886 14.8763 17.7412 15.0136 17.8974 15.1479C18.1443 15.3632 18.3752 15.5934 18.6063 15.8255C18.6479 15.8669 18.6895 15.9083 18.7323 15.9509C19.1097 16.3288 19.4549 16.7273 19.7915 17.1416C19.8199 17.1762 19.8484 17.2109 19.8777 17.2466C20.0039 17.4018 20.1254 17.5563 20.2345 17.724C20.2627 17.7664 20.2909 17.8088 20.32 17.8524C20.3369 17.8524 20.3538 17.8524 20.3713 17.8524C20.4133 17.5204 20.4314 17.1956 20.4329 16.861C20.4332 16.811 20.4335 16.761 20.4338 16.7095C20.4343 16.6038 20.4346 16.4981 20.4348 16.3925C20.4353 16.2351 20.4369 16.0777 20.4385 15.9204C20.4435 14.9907 20.3606 14.071 20.131 13.1677C20.118 13.1153 20.105 13.0629 20.0915 13.0089C19.8481 12.0573 19.5159 11.154 19.09 10.2698C19.0706 10.2287 19.0512 10.1875 19.0312 10.1451C18.5456 9.1166 18.1581 8.15461 17.4748 7.24583C17.4204 7.17348 17.3666 7.10077 17.313 7.02784C17.2853 6.9902 17.2575 6.95256 17.2289 6.91379C17.2038 6.87947 17.1786 6.84516 17.1526 6.8098C17.1324 6.78501 17.1121 6.76021 17.0912 6.73467C17.0743 6.73467 17.0574 6.73467 17.0399 6.73467ZM12.0173 7.50318C11.7488 8.28749 11.5178 9.06687 11.375 9.88431C11.354 9.99778 11.3286 10.1086 11.3008 10.2206C11.2668 10.3965 11.2502 10.5074 11.2998 10.6797C11.4709 10.8637 11.662 10.9909 11.8719 11.1267C12.0274 11.2346 12.1623 11.3628 12.2992 11.493C12.4354 11.6213 12.5694 11.7464 12.7162 11.8625C12.8277 11.9527 12.916 12.0425 13.0071 12.1527C13.0333 12.1841 13.0596 12.2155 13.0866 12.2479C13.1058 12.2714 13.125 12.2949 13.1448 12.3192C13.2965 12.1676 13.3226 11.9765 13.3787 11.7748C13.529 11.2524 13.7161 10.7475 13.911 10.2404C14.0047 9.99615 14.0891 9.7501 14.1699 9.5013C14.1333 9.46168 14.0968 9.42205 14.0592 9.38122C14.0096 9.32733 13.96 9.27342 13.9104 9.21952C13.8844 9.19125 13.8583 9.16298 13.8315 9.13386C13.6954 8.98561 13.5624 8.83591 13.4331 8.68156C13.0588 8.25069 12.5986 7.81424 12.1198 7.50318C12.086 7.50318 12.0522 7.50318 12.0173 7.50318ZM21.6269 7.77856C21.5933 7.80788 21.5597 7.83719 21.5251 7.86739C20.5656 8.67534 20.5656 8.67534 19.8075 9.65501C19.8124 9.90732 19.9614 10.152 20.0638 10.3787C20.35 11.0265 20.5664 11.6962 20.7813 12.3704C20.9385 12.3007 21.0423 12.2228 21.1604 12.0984C21.1931 12.0646 21.2258 12.0308 21.2595 11.996C21.2941 11.96 21.3286 11.924 21.3643 11.8869C21.7632 11.479 22.1855 11.0946 22.6722 10.7926C22.7986 10.6831 22.7986 10.6831 22.8013 10.4944C22.7848 10.2441 22.7429 9.99741 22.6968 9.75107C22.6878 9.70251 22.6788 9.65395 22.6696 9.60392C22.6006 9.24567 22.5166 8.8928 22.4213 8.54067C22.4092 8.49562 22.397 8.45057 22.3845 8.40415C22.2978 8.09468 22.1873 7.79927 22.0625 7.50318C21.8814 7.50318 21.7581 7.66375 21.6269 7.77856ZM9.40351 10.526C9.22749 11.5711 9.22749 11.5711 9.14726 12.6266C9.14521 12.6926 9.14316 12.7587 9.14105 12.8267C9.12843 13.4298 9.17748 14.0263 9.24976 14.6247C9.25419 14.6677 9.25861 14.7106 9.26317 14.7549C9.31568 15.2301 9.39967 15.5593 9.78149 15.8671C9.87823 15.9413 9.9759 16.0139 10.0741 16.0861C11.074 16.8564 11.7907 18.0211 12.4115 19.1009C12.4314 19.1355 12.4514 19.1702 12.472 19.2059C12.4894 19.2365 12.5068 19.267 12.5247 19.2984C12.5889 19.4021 12.6605 19.4979 12.7348 19.5944C13.125 19.0479 13.1204 18.6622 13.0167 18.019C12.9998 17.9014 12.9835 17.7838 12.9673 17.6662C12.9565 17.5881 12.9454 17.51 12.9342 17.4319C12.8443 16.7936 12.8274 16.1493 12.8277 15.5053C12.8277 15.4442 12.8277 15.3831 12.8276 15.3201C12.8303 14.865 12.8616 14.4189 12.9174 13.9675C12.9252 13.8963 12.9327 13.825 12.9398 13.7537C12.944 13.7182 12.9481 13.6827 12.9524 13.6461C12.9664 13.4429 12.9447 13.3509 12.8287 13.1815C12.7782 13.1289 12.7265 13.0774 12.674 13.0268C12.6462 12.9986 12.6184 12.9704 12.5897 12.9414C12.5312 12.8822 12.4723 12.8235 12.4129 12.7652C12.3289 12.6818 12.2473 12.5966 12.1663 12.5103C11.4134 11.7177 10.4694 11.0415 9.50602 10.526C9.47219 10.526 9.43836 10.526 9.40351 10.526ZM21.7903 12.6298C21.7155 12.7062 21.6415 12.7832 21.5681 12.8609C21.5021 12.9305 21.4348 12.9987 21.3675 13.0669C21.1623 13.2897 21.1623 13.2897 21.0718 13.571C21.0801 13.704 21.0801 13.704 21.1085 13.839C21.2476 14.5931 21.2606 15.3492 21.2585 16.1137C21.2586 16.1671 21.2587 16.2204 21.2588 16.2754C21.2594 17.0434 21.2288 17.7998 21.121 18.5607C21.0683 18.9804 21.1069 19.2399 21.345 19.5944C21.5031 19.4074 21.6242 19.2163 21.7422 19.002C21.9354 18.6584 22.1426 18.3283 22.3701 18.0061C22.3958 17.9696 22.4216 17.933 22.4482 17.8954C23.0301 17.076 23.666 16.2825 24.4822 15.682C24.7442 15.4344 24.7695 15.0702 24.8301 14.7272C24.8362 14.693 24.8423 14.6589 24.8485 14.6237C25.0702 13.2886 24.987 11.8397 24.6764 10.526C23.8226 10.526 22.3923 12.0324 21.7903 12.6298ZM5.09842 14.4198C4.99705 16.5853 5.75406 18.8809 7.0852 20.5757C7.19971 20.7216 7.19971 20.7216 7.27699 20.8438C7.34709 20.9376 7.34709 20.9376 7.46118 20.9389C7.50385 20.9327 7.54653 20.9265 7.59051 20.9201C7.64151 20.9137 7.69251 20.9073 7.74506 20.9007C7.86201 20.8834 7.97892 20.8659 8.09581 20.8482C9.44533 20.6627 10.7916 20.7365 12.0946 21.132C12.2672 21.1896 12.2672 21.1896 12.4273 21.1827C12.3824 20.8465 12.2506 20.5793 12.1038 20.2765C12.0764 20.2197 12.0489 20.1629 12.0207 20.1044C11.7648 19.5851 11.4724 19.0986 11.1461 18.621C11.1232 18.5874 11.1003 18.5538 11.0768 18.5192C9.66277 16.4577 7.6162 15.0678 5.20092 14.4198C5.16709 14.4198 5.13327 14.4198 5.09842 14.4198ZM26.8802 15.1883C26.8404 15.2075 26.8006 15.2267 26.7597 15.2465C25.8784 15.6777 25.0975 16.2236 24.3689 16.879C24.3292 16.9143 24.2896 16.9497 24.2487 16.9861C23.21 17.9662 22.3713 19.3806 21.7903 20.6735C21.7751 20.7067 21.7599 20.74 21.7443 20.7742C21.6861 20.9102 21.6493 21.0053 21.6696 21.1536C21.6865 21.1934 21.6865 21.1934 21.7038 21.2339C21.7535 21.2172 21.8032 21.2005 21.8543 21.1833C23.322 20.7008 24.8359 20.6586 26.3564 20.9124C26.4827 20.928 26.5994 20.9356 26.7264 20.9265C28.289 19.5403 28.8886 16.9139 29.0099 14.9393C29.0192 14.7662 29.0266 14.5931 29.0327 14.4198C28.3299 14.4198 27.5046 14.8854 26.8802 15.1883ZM16.8217 15.6876C16.7899 15.7176 16.758 15.7476 16.7252 15.7785C16.6917 15.8109 16.6581 15.8434 16.6235 15.8767C16.589 15.9095 16.5545 15.9423 16.519 15.9761C16.4189 16.0717 16.3193 16.1678 16.2199 16.2642C16.1735 16.309 16.1272 16.3539 16.0794 16.4001C15.8781 16.5982 15.6853 16.8014 15.5018 17.0161C15.4236 17.1075 15.3442 17.1979 15.2644 17.2879C14.3257 18.3511 13.2802 19.6646 13.2954 21.1474C13.2956 21.1903 13.2959 21.2331 13.2961 21.2772C13.2967 21.3823 13.2976 21.4874 13.2986 21.5925C13.3254 21.6054 13.3521 21.6182 13.3797 21.6314C13.9923 21.9271 14.573 22.2475 15.1436 22.6172C15.2288 22.6689 15.3141 22.7203 15.3999 22.7709C15.4001 22.7419 15.4003 22.7128 15.4005 22.6829C15.4206 21.0895 15.9999 20.2365 16.9152 18.9398C16.9979 18.8341 16.9979 18.8341 16.9887 18.7234C17.1664 18.8852 17.2879 19.0653 17.4083 19.271C17.4281 19.3046 17.4479 19.3382 17.4683 19.3728C17.5312 19.4804 17.5933 19.5885 17.655 19.6969C17.6749 19.7319 17.6948 19.7669 17.7154 19.803C18.3552 20.939 18.6942 21.4655 18.68 22.7709C18.7076 22.7522 18.7352 22.7334 18.7637 22.7141C19.1052 22.4893 19.4581 22.2907 19.8171 22.0953C19.8652 22.0691 19.9132 22.0429 19.9628 22.016C20.2332 21.8697 20.5054 21.7283 20.7813 21.5925C20.8415 20.0088 20.0692 18.7685 19.0683 17.5896C18.9949 17.5026 18.923 17.4147 18.8515 17.3261C18.5024 16.8992 18.1164 16.5083 17.7286 16.1169C17.7009 16.0887 17.6732 16.0605 17.6446 16.0314C17.5651 15.9507 17.4851 15.8706 17.4049 15.7907C17.3581 15.7437 17.3113 15.6968 17.263 15.6484C17.0747 15.4899 16.9849 15.5322 16.8217 15.6876ZM17.0399 20.3629C16.4341 21.5336 16.0134 22.0926 16.4107 23.4105C16.5251 23.7251 16.654 24.0166 16.9374 24.2055C17.0588 24.244 17.0588 24.244 17.1937 24.2055C17.6414 23.8467 17.7685 23.218 17.8315 22.6779C17.9303 21.6284 17.5636 21.283 17.0912 20.3629C17.0743 20.3629 17.0574 20.3629 17.0399 20.3629ZM7.20932 21.8519C7.15411 21.8644 7.15411 21.8644 7.09779 21.8771C7.01123 21.8982 6.92589 21.9242 6.84096 21.9512C6.82404 21.985 6.80713 22.0188 6.78971 22.0536C8.24084 24.2589 10.253 25.5279 12.8229 26.0771C13.8555 26.289 15.1421 26.4434 16.1174 25.9474C16.2531 25.8466 16.3486 25.7415 16.4249 25.5888C16.4703 25.165 16.3264 24.8644 16.0634 24.5345C15.9479 24.4043 15.8287 24.279 15.7074 24.1542C15.6776 24.1207 15.6478 24.0871 15.6171 24.0526C15.0715 23.4594 14.3167 23.0344 13.6061 22.6684C13.5654 22.6474 13.5247 22.6264 13.4828 22.6048C11.4695 21.5785 9.41533 21.3533 7.20932 21.8519ZM18.1739 24.3344C17.917 24.6345 17.6216 25.0446 17.6517 25.4575C17.6783 25.641 17.724 25.7377 17.86 25.8642C18.632 26.4263 19.8724 26.2967 20.7623 26.1632C22.6424 25.8519 24.355 25.2278 25.7526 23.8981C25.7811 23.8713 25.8096 23.8445 25.8389 23.8169C26.4094 23.2769 26.9511 22.6892 27.3414 22.0024C27.0052 21.879 26.6721 21.801 26.3196 21.7398C26.2722 21.7312 26.2248 21.7225 26.176 21.7136C23.2967 21.2013 20.2149 22.2269 18.1739 24.3344Z" stroke="#FFFDF9" stroke-width="2" mask="url(#path-1-outside-1_165_1641)"/>
<path fill-rule="evenodd" clip-rule="evenodd" d="M15.1631 10.5439C15.1292 10.611 15.0958 10.679 15.0633 10.748C15.0015 10.8789 14.9425 11.0132 14.8874 11.1503C15.5831 11.4542 16.159 11.5834 16.5926 12.0483C16.7561 12.2236 16.8994 12.4101 17.0212 12.6079C17.143 12.4101 17.2862 12.2235 17.4497 12.0483C17.8833 11.5834 18.4592 11.4542 19.155 11.1503C19.1008 11.0157 19.0429 10.8837 18.9822 10.755C18.9486 10.6836 18.9141 10.6133 18.879 10.544C18.2658 9.33429 17.4508 8.45318 17.3794 8.37758C17.2805 8.27284 17.1508 8.22046 17.0212 8.22046C16.8916 8.22046 16.762 8.27284 16.663 8.37758C16.5924 8.45238 15.7764 9.33335 15.1631 10.5439ZM18.2818 10.8391C17.836 9.96136 17.2715 9.26469 17.0212 8.97587C16.7708 9.26459 16.2059 9.96109 15.7604 10.8391C16.2394 11.1053 16.665 11.1645 17.0211 11.5322C17.3772 11.1645 17.8027 11.1053 18.2818 10.8391Z" stroke="#FFFDF9" stroke-width="2" mask="url(#path-1-outside-1_165_1641)"/>
<path fill-rule="evenodd" clip-rule="evenodd" d="M15.1631 29.0873C15.1292 29.0203 15.0958 28.9523 15.0633 28.8833C15.0015 28.7523 14.9425 28.618 14.8874 28.4809C15.5831 28.177 16.159 27.7916 16.5926 27.3268C16.7561 27.1515 16.8994 26.9649 17.0212 26.7672C17.143 26.9649 17.2862 27.1515 17.4497 27.3268C17.8833 27.7917 18.4592 28.1771 19.155 28.4809C19.1008 28.6156 19.0429 28.7475 18.9822 28.8763C18.9486 28.9476 18.9141 29.018 18.879 29.0872C18.2658 30.297 17.4508 31.1781 17.3794 31.2537C17.2805 31.3584 17.1508 31.4108 17.0212 31.4108C16.8916 31.4108 16.762 31.3584 16.663 31.2537C16.5924 31.1789 15.7764 30.2979 15.1631 29.0873ZM18.2818 28.7921C17.836 29.6699 17.2715 30.3666 17.0212 30.6554C16.7708 30.3667 16.2059 29.6702 15.7604 28.7922C16.2394 28.526 16.665 28.2106 17.0211 27.8429C17.3772 28.2105 17.8027 28.5259 18.2818 28.7921Z" stroke="#FFFDF9" stroke-width="2" mask="url(#path-1-outside-1_165_1641)"/>
<defs>
<linearGradient id="paint0_linear_165_1641" x1="17" y1="1" x2="17" y2="33" gradientUnits="userSpaceOnUse">
<stop stop-color="#F3E2A3"/>
<stop offset="0.515" stop-color="#FCD38D"/>
<stop offset="1" stop-color="#BC7B2D"/>
</linearGradient>
</defs>
</svg>
