<svg width="84" height="30" viewBox="0 0 84 30" fill="none" xmlns="http://www.w3.org/2000/svg">
<g >
<rect y="30" width="30" height="84" rx="5" transform="rotate(-90 0 30)" fill="url(#paint0_linear_363_2699)"/>
<rect x="0.4" y="29.6" width="29.2" height="83.2" rx="4.6" transform="rotate(-90 0.4 29.6)" stroke="#6C440E" stroke-width="0.8"/>
<g clip-path="url(#clip0_363_2699)">
<path fill-rule="evenodd" clip-rule="evenodd" d="M8.31335 23.068C7.67157 22.3641 7.67157 21.2876 8.31335 20.5941H6.31556C5.64273 20.5941 5.08377 21.1427 5.08377 21.8259C5.08377 22.5091 5.64273 23.068 6.31556 23.068H8.31335ZM6.02573 20.0144V15.3978C6.02573 14.0625 7.12296 12.9652 8.46862 12.9652H9.6176V12.1475C9.07934 11.7748 8.70669 11.1848 8.61353 10.5016H8.18913C7.83719 10.5016 7.55771 10.2118 7.55771 9.85987V8.94897C7.55771 8.58667 7.83719 8.30719 8.18913 8.30719H8.59283C8.65494 6.90978 9.87638 5.88501 11.222 6.00922C12.4124 6.12308 13.3544 7.0961 13.3958 8.30719H13.7995C14.1514 8.30719 14.4413 8.58667 14.4413 8.94897V9.85987C14.4413 10.2118 14.1514 10.5016 13.7995 10.5016H13.3751C13.2819 11.1848 12.9093 11.7748 12.371 12.1475V12.9652H13.5304C14.876 12.9652 15.9629 14.0625 15.9629 15.3978V20.0144C16.8428 20.149 17.5156 20.915 17.5156 21.8259C17.5156 22.8403 16.6875 23.6684 15.6731 23.6684C12.5573 23.6684 9.44163 23.6684 6.31556 23.6684C5.3115 23.6684 4.4834 22.8403 4.4834 21.8259C4.4834 20.915 5.15623 20.149 6.02573 20.0144ZM10.0524 11.7127C10.0627 11.7127 10.0627 11.7231 10.0731 11.7231C11.2427 12.427 12.7954 11.5989 12.7954 10.1808V8.40035C12.7954 8.16227 12.754 7.93455 12.6712 7.72752C11.7292 8.62808 10.2594 8.62808 9.32777 7.72752C9.1932 8.04841 9.1932 8.26579 9.1932 8.60738V10.1808C9.1932 10.8225 9.53479 11.3919 10.0524 11.7127ZM15.3625 19.9834V15.3978C15.3625 14.3937 14.5448 13.5656 13.5304 13.5656H13.106V14.9527C13.106 15.0665 13.0439 15.17 12.9403 15.2218L8.81021 17.292V17.9028H11.0461C12.1226 17.9028 12.754 19.1035 12.164 19.9834H15.3625ZM12.5056 13.5656C11.6671 13.5656 11.7707 13.607 11.7707 12.4477C11.2738 12.6236 10.7252 12.6236 10.218 12.4477V13.2654C10.218 13.431 10.0834 13.5656 9.91779 13.5656H8.46862C7.4542 13.5656 6.6261 14.3937 6.6261 15.3978V19.9834H11.0564C11.4601 19.9834 11.7914 19.6521 11.7914 19.2484C11.7914 18.8344 11.4498 18.5031 11.0461 18.5031H8.51002C8.3444 18.5031 8.20984 18.3686 8.20984 18.203V16.0188C8.20984 15.6255 8.81021 15.6255 8.81021 16.0188V16.6192L12.5056 14.7663V13.5656ZM13.489 18.5031C13.3233 18.5031 13.1888 18.3686 13.1888 18.203V16.0188C13.1888 15.6255 13.7891 15.6255 13.7891 16.0188V18.203C13.7891 18.3686 13.6546 18.5031 13.489 18.5031ZM9.65901 7.19961C10.3732 7.99665 11.6154 7.99665 12.34 7.19961C11.6154 6.40257 10.3732 6.40257 9.65901 7.19961ZM13.3958 9.90128C13.5614 9.90128 13.8409 9.93233 13.8409 9.85987V8.94897C13.8409 8.87651 13.5614 8.90756 13.3958 8.90756V9.90128ZM8.18913 8.90756C8.16843 8.90756 8.15808 8.91791 8.15808 8.94897V9.85987C8.15808 9.93233 8.43756 9.90128 8.59283 9.90128V8.90756H8.18913ZM10.3111 9.6632C9.97989 9.6632 9.51409 9.74601 9.51409 9.36302C9.51409 8.98002 9.97989 9.06283 10.3111 9.06283C10.7045 9.06283 10.7045 9.6632 10.3111 9.6632ZM12.1847 9.6632C11.8535 9.6632 11.3877 9.74601 11.3877 9.36302C11.3877 8.98002 11.8535 9.06283 12.1847 9.06283C12.578 9.06283 12.578 9.6632 12.1847 9.6632ZM11.2427 11.0917C10.9115 11.0917 10.4561 11.1745 10.4561 10.7915C10.4561 10.4085 10.9115 10.4913 11.2427 10.4913C11.6361 10.4913 11.6361 11.0917 11.2427 11.0917ZM9.65901 20.5941C8.97583 20.5941 8.42721 21.1427 8.42721 21.8259C8.42721 22.5091 8.97583 23.0577 9.67971 23.068H15.6731C16.3562 23.068 16.9152 22.5091 16.9152 21.8259C16.9152 21.1427 16.3562 20.5941 15.6627 20.5941H9.65901Z" fill="#71480F"/>
</g>
<g opacity="0.66" clip-path="url(#clip1_363_2699)">
<path fill-rule="evenodd" clip-rule="evenodd" d="M17.1114 19.2554C16.8386 18.9562 16.8386 18.4986 17.1114 18.2038H16.2622C15.9762 18.2038 15.7386 18.437 15.7386 18.7274C15.7386 19.0178 15.9762 19.2554 16.2622 19.2554H17.1114ZM16.139 17.9574V15.995C16.139 15.4275 16.6054 14.9611 17.1774 14.9611H17.6658V14.6135C17.437 14.4551 17.2786 14.2043 17.239 13.9139H17.0586C16.909 13.9139 16.7902 13.7907 16.7902 13.6411V13.2539C16.7902 13.0999 16.909 12.9811 17.0586 12.9811H17.2302C17.2566 12.3871 17.7757 11.9515 18.3477 12.0043C18.8537 12.0527 19.2541 12.4663 19.2717 12.9811H19.4433C19.5929 12.9811 19.7161 13.0999 19.7161 13.2539V13.6411C19.7161 13.7907 19.5929 13.9139 19.4433 13.9139H19.2629C19.2233 14.2043 19.0649 14.4551 18.8361 14.6135V14.9611H19.3289C19.9009 14.9611 20.3629 15.4275 20.3629 15.995V17.9574C20.7369 18.0146 21.0229 18.3402 21.0229 18.7274C21.0229 19.1586 20.6709 19.5106 20.2397 19.5106C18.9153 19.5106 17.591 19.5106 16.2622 19.5106C15.8354 19.5106 15.4834 19.1586 15.4834 18.7274C15.4834 18.3402 15.7694 18.0146 16.139 17.9574ZM17.8505 14.4287C17.8549 14.4287 17.8549 14.4331 17.8593 14.4331C18.3565 14.7323 19.0165 14.3803 19.0165 13.7775V13.0207C19.0165 12.9195 18.9989 12.8227 18.9637 12.7347C18.5633 13.1175 17.9385 13.1175 17.5426 12.7347C17.4854 12.8711 17.4854 12.9635 17.4854 13.1087V13.7775C17.4854 14.0503 17.6306 14.2923 17.8505 14.4287ZM20.1077 17.9442V15.995C20.1077 15.5683 19.7601 15.2163 19.3289 15.2163H19.1485V15.8059C19.1485 15.8543 19.1221 15.8983 19.0781 15.9203L17.3226 16.8002V17.0598H18.2729C18.7305 17.0598 18.9989 17.5702 18.7481 17.9442H20.1077ZM18.8933 15.2163C18.5369 15.2163 18.5809 15.2339 18.5809 14.7411C18.3697 14.8159 18.1365 14.8159 17.9209 14.7411V15.0887C17.9209 15.1591 17.8637 15.2163 17.7933 15.2163H17.1774C16.7462 15.2163 16.3942 15.5683 16.3942 15.995V17.9442H18.2773C18.4489 17.9442 18.5897 17.8034 18.5897 17.6318C18.5897 17.4558 18.4445 17.315 18.2729 17.315H17.195C17.1246 17.315 17.0674 17.2578 17.0674 17.1874V16.259C17.0674 16.0918 17.3226 16.0918 17.3226 16.259V16.5142L18.8933 15.7267V15.2163ZM19.3113 17.315C19.2409 17.315 19.1837 17.2578 19.1837 17.1874V16.259C19.1837 16.0918 19.4389 16.0918 19.4389 16.259V17.1874C19.4389 17.2578 19.3817 17.315 19.3113 17.315ZM17.6834 12.5103C17.9869 12.8491 18.5149 12.8491 18.8229 12.5103C18.5149 12.1715 17.9869 12.1715 17.6834 12.5103ZM19.2717 13.6587C19.3421 13.6587 19.4609 13.6719 19.4609 13.6411V13.2539C19.4609 13.2231 19.3421 13.2363 19.2717 13.2363V13.6587ZM17.0586 13.2363C17.0498 13.2363 17.0454 13.2407 17.0454 13.2539V13.6411C17.0454 13.6719 17.1642 13.6587 17.2302 13.6587V13.2363H17.0586ZM17.9605 13.5575C17.8197 13.5575 17.6218 13.5927 17.6218 13.4299C17.6218 13.2671 17.8197 13.3023 17.9605 13.3023C18.1277 13.3023 18.1277 13.5575 17.9605 13.5575ZM18.7569 13.5575C18.6161 13.5575 18.4181 13.5927 18.4181 13.4299C18.4181 13.2671 18.6161 13.3023 18.7569 13.3023C18.9241 13.3023 18.9241 13.5575 18.7569 13.5575ZM18.3565 14.1647C18.2157 14.1647 18.0221 14.1999 18.0221 14.0371C18.0221 13.8743 18.2157 13.9095 18.3565 13.9095C18.5237 13.9095 18.5237 14.1647 18.3565 14.1647ZM17.6834 18.2038C17.393 18.2038 17.1598 18.437 17.1598 18.7274C17.1598 19.0178 17.393 19.251 17.6922 19.2554H20.2397C20.5301 19.2554 20.7677 19.0178 20.7677 18.7274C20.7677 18.437 20.5301 18.2038 20.2353 18.2038H17.6834Z" fill="#2A1800" fill-opacity="0.68"/>
</g>
<g opacity="0.66" clip-path="url(#clip2_363_2699)">
<path fill-rule="evenodd" clip-rule="evenodd" d="M2.61332 19.2554C2.34052 18.9562 2.34052 18.4986 2.61332 18.2038H1.76413C1.47814 18.2038 1.24055 18.437 1.24055 18.7274C1.24055 19.0178 1.47814 19.2554 1.76413 19.2554H2.61332ZM1.64094 17.9574V15.995C1.64094 15.4275 2.10733 14.9611 2.67932 14.9611H3.1677V14.6135C2.93891 14.4551 2.78051 14.2043 2.74091 13.9139H2.56052C2.41092 13.9139 2.29212 13.7907 2.29212 13.6411V13.2539C2.29212 13.0999 2.41092 12.9811 2.56052 12.9811H2.73211C2.75851 12.3871 3.2777 11.9515 3.84969 12.0043C4.35568 12.0527 4.75607 12.4663 4.77367 12.9811H4.94527C5.09486 12.9811 5.21806 13.0999 5.21806 13.2539V13.6411C5.21806 13.7907 5.09486 13.9139 4.94527 13.9139H4.76487C4.72527 14.2043 4.56687 14.4551 4.33808 14.6135V14.9611H4.83087C5.40286 14.9611 5.86485 15.4275 5.86485 15.995V17.9574C6.23884 18.0146 6.52483 18.3402 6.52483 18.7274C6.52483 19.1586 6.17284 19.5106 5.74165 19.5106C4.41728 19.5106 3.09291 19.5106 1.76413 19.5106C1.33734 19.5106 0.985352 19.1586 0.985352 18.7274C0.985352 18.3402 1.27135 18.0146 1.64094 17.9574ZM3.3525 14.4287C3.3569 14.4287 3.3569 14.4331 3.3613 14.4331C3.85849 14.7323 4.51848 14.3803 4.51848 13.7775V13.0207C4.51848 12.9195 4.50088 12.8227 4.46568 12.7347C4.06529 13.1175 3.4405 13.1175 3.04451 12.7347C2.98731 12.8711 2.98731 12.9635 2.98731 13.1087V13.7775C2.98731 14.0503 3.13251 14.2923 3.3525 14.4287ZM5.60965 17.9442V15.995C5.60965 15.5683 5.26206 15.2163 4.83087 15.2163H4.65047V15.8059C4.65047 15.8543 4.62407 15.8983 4.58007 15.9203L2.82451 16.8002V17.0598H3.77489C4.23248 17.0598 4.50088 17.5702 4.25008 17.9442H5.60965ZM4.39528 15.2163C4.03889 15.2163 4.08289 15.2339 4.08289 14.7411C3.87169 14.8159 3.63849 14.8159 3.4229 14.7411V15.0887C3.4229 15.1591 3.3657 15.2163 3.2953 15.2163H2.67932C2.24812 15.2163 1.89613 15.5683 1.89613 15.995V17.9442H3.77929C3.95089 17.9442 4.09168 17.8034 4.09168 17.6318C4.09168 17.4558 3.94649 17.315 3.77489 17.315H2.69691C2.62652 17.315 2.56932 17.2578 2.56932 17.1874V16.259C2.56932 16.0918 2.82451 16.0918 2.82451 16.259V16.5142L4.39528 15.7267V15.2163ZM4.81327 17.315C4.74287 17.315 4.68567 17.2578 4.68567 17.1874V16.259C4.68567 16.0918 4.94087 16.0918 4.94087 16.259V17.1874C4.94087 17.2578 4.88367 17.315 4.81327 17.315ZM3.1853 12.5103C3.4889 12.8491 4.01689 12.8491 4.32488 12.5103C4.01689 12.1715 3.4889 12.1715 3.1853 12.5103ZM4.77367 13.6587C4.84407 13.6587 4.96287 13.6719 4.96287 13.6411V13.2539C4.96287 13.2231 4.84407 13.2363 4.77367 13.2363V13.6587ZM2.56052 13.2363C2.55172 13.2363 2.54732 13.2407 2.54732 13.2539V13.6411C2.54732 13.6719 2.66612 13.6587 2.73211 13.6587V13.2363H2.56052ZM3.4625 13.5575C3.3217 13.5575 3.12371 13.5927 3.12371 13.4299C3.12371 13.2671 3.3217 13.3023 3.4625 13.3023C3.62969 13.3023 3.62969 13.5575 3.4625 13.5575ZM4.25888 13.5575C4.11808 13.5575 3.92009 13.5927 3.92009 13.4299C3.92009 13.2671 4.11808 13.3023 4.25888 13.3023C4.42608 13.3023 4.42608 13.5575 4.25888 13.5575ZM3.85849 14.1647C3.71769 14.1647 3.5241 14.1999 3.5241 14.0371C3.5241 13.8743 3.71769 13.9095 3.85849 13.9095C4.02569 13.9095 4.02569 14.1647 3.85849 14.1647ZM3.1853 18.2038C2.89491 18.2038 2.66172 18.437 2.66172 18.7274C2.66172 19.0178 2.89491 19.251 3.1941 19.2554H5.74165C6.03204 19.2554 6.26964 19.0178 6.26964 18.7274C6.26964 18.437 6.03204 18.2038 5.73725 18.2038H3.1853Z" fill="#2A1800" fill-opacity="0.68"/>
</g>
</g>
<defs>
<filter id="filter0_i_363_2699" x="0" y="0" width="84" height="35" filterUnits="userSpaceOnUse" color-interpolation-filters="sRGB">
<feFlood flood-opacity="0" result="BackgroundImageFix"/>
<feBlend mode="normal" in="SourceGraphic" in2="BackgroundImageFix" result="shape"/>
<feColorMatrix in="SourceAlpha" type="matrix" values="0 0 0 0 0 0 0 0 0 0 0 0 0 0 0 0 0 0 127 0" result="hardAlpha"/>
<feOffset dy="5"/>
<feGaussianBlur stdDeviation="4.45"/>
<feComposite in2="hardAlpha" operator="arithmetic" k2="-1" k3="1"/>
<feColorMatrix type="matrix" values="0 0 0 0 0.6925 0 0 0 0 0.451656 0 0 0 0 0.119456 0 0 0 0.41 0"/>
<feBlend mode="normal" in2="shape" result="effect1_innerShadow_363_2699"/>
</filter>
<linearGradient id="paint0_linear_363_2699" x1="15" y1="30" x2="15" y2="114" gradientUnits="userSpaceOnUse">
<stop offset="0.247903" stop-color="#FFE2BA"/>
<stop offset="0.251007" stop-color="#6C440E"/>
</linearGradient>
<clipPath id="clip0_363_2699">
<rect width="17.6695" height="17.6695" fill="white" transform="translate(2.16504 6)"/>
</clipPath>
<clipPath id="clip1_363_2699">
<rect width="7.51064" height="7.51064" fill="white" transform="translate(14.498 12)"/>
</clipPath>
<clipPath id="clip2_363_2699">
<rect width="7.51064" height="7.51064" fill="white" transform="translate(0 12)"/>
</clipPath>
</defs>
</svg>
