<svg width="84" height="30" viewBox="0 0 84 30" fill="none" xmlns="http://www.w3.org/2000/svg">
<g >
<rect y="30" width="30" height="84" rx="5" transform="rotate(-90 0 30)" fill="url(#paint0_linear_363_2697)"/>
<rect x="0.4" y="29.6" width="29.2" height="83.2" rx="4.6" transform="rotate(-90 0.4 29.6)" stroke="#6C440E" stroke-width="0.8"/>
<path fill-rule="evenodd" clip-rule="evenodd" d="M15.9716 20.3307H6.0173C5.95403 20.3307 5.89076 20.3096 5.83804 20.2675C5.66932 20.1409 1.79937 17.1673 2.01027 10.3975C2.01027 10.2604 2.09463 10.155 2.22116 10.1128C2.3477 10.0706 2.48478 10.1233 2.5586 10.2288C3.07529 10.9248 3.80289 11.5258 4.70974 12.0214C4.72028 12.0214 4.73083 12.032 4.74137 12.032C5.41624 12.401 6.17547 12.6963 7.01905 12.9283C7.38812 11.0407 9.04366 9.66992 10.9945 9.66992C12.9452 9.66992 14.6008 11.0407 14.9804 12.9283C15.8134 12.6963 16.5832 12.401 17.2475 12.0425C17.2686 12.032 17.2792 12.0214 17.3002 12.0109C18.1966 11.5258 18.9242 10.9248 19.4303 10.2288C19.5147 10.1233 19.6517 10.0706 19.7677 10.1128C19.8943 10.155 19.9786 10.2604 19.9892 10.3975C20.2001 17.1673 16.3196 20.1409 16.1614 20.2675C16.1087 20.3096 16.0454 20.3307 15.9716 20.3307ZM6.13329 19.7191H6.64999C5.93294 18.749 4.5832 16.4291 4.2774 12.4748C3.63417 12.1163 3.07529 11.6945 2.61132 11.2306C2.72731 16.6084 5.62714 19.2868 6.13329 19.7191ZM15.3495 19.7191H15.8662C16.3723 19.2868 19.2721 16.6084 19.3776 11.2306C18.9136 11.6945 18.3547 12.1163 17.7115 12.4748C17.4162 16.4291 16.056 18.749 15.3495 19.7191ZM17.0683 12.8123C15.4022 13.5926 13.2827 14.0355 10.9945 14.0355C8.70623 14.0355 6.59726 13.5926 4.92064 12.8123C5.33188 17.0724 7.0296 19.2657 7.4303 19.7191H14.5691C14.9593 19.2552 16.6676 17.0618 17.0683 12.8123ZM7.60956 13.0654C8.68514 13.3079 9.82398 13.4239 10.9945 13.4239C12.1755 13.4239 13.3143 13.3079 14.3899 13.0654C14.0735 11.4625 12.6605 10.2815 10.9945 10.2815C9.33891 10.2815 7.92591 11.4625 7.60956 13.0654Z" fill="#6A430E"/>
<path d="M10.9869 15.0003C11.0153 15.0031 11.0297 15.0212 11.0478 15.0411C11.0528 15.0466 11.0528 15.0466 11.058 15.0522C11.1402 15.1436 11.1834 15.2455 11.2486 15.3491C11.2522 15.3549 11.2559 15.3608 11.2597 15.3668C11.2633 15.3726 11.2669 15.3784 11.2706 15.3844C11.2739 15.3897 11.2772 15.395 11.2806 15.4004C11.2878 15.4137 11.2878 15.4137 11.2878 15.4266C11.3076 15.4072 11.3273 15.3876 11.3468 15.3679C11.498 15.2156 11.498 15.2156 11.5757 15.1618C11.5819 15.1573 11.5881 15.1529 11.5945 15.1483C11.6099 15.1375 11.6253 15.1268 11.6411 15.1166C11.6467 15.1128 11.6523 15.1091 11.6581 15.1053C11.6659 15.1013 11.6659 15.1013 11.6738 15.0972C11.6934 15.1036 11.6934 15.1036 11.705 15.1228C11.7093 15.1316 11.7135 15.1404 11.7176 15.1493C11.7198 15.1541 11.7221 15.159 11.7244 15.164C11.7844 15.2967 11.8204 15.4386 11.8439 15.5817C11.8487 15.579 11.8487 15.579 11.8536 15.5762C12.0173 15.4848 12.0173 15.4848 12.0467 15.4848C12.0742 15.5633 12.0921 15.6419 12.1056 15.7238C12.1068 15.7305 12.1068 15.7305 12.108 15.7374C12.1203 15.8102 12.1199 15.8835 12.1199 15.9571C12.1199 15.9621 12.12 15.967 12.12 15.9721C12.1199 16.0403 12.1173 16.108 12.1122 16.176C12.1184 16.1725 12.1247 16.1691 12.1311 16.1656C12.2758 16.0866 12.4673 15.9951 12.6356 15.9951C12.6425 16.3538 12.5861 16.6857 12.3608 16.977C12.3732 16.9821 12.3856 16.9872 12.398 16.9923C12.4049 16.9952 12.4118 16.998 12.4189 17.0009C12.4366 17.0081 12.4543 17.0152 12.472 17.0222C12.4683 17.054 12.4539 17.0775 12.4377 17.1045C12.4348 17.1093 12.4319 17.1141 12.429 17.119C12.38 17.1987 12.3203 17.2706 12.2561 17.3387C12.2472 17.3488 12.2384 17.3589 12.2295 17.369C12.2053 17.3958 12.1796 17.4193 12.1514 17.4421C12.1465 17.446 12.1465 17.446 12.1416 17.4501C11.9018 17.6443 11.5593 17.7566 11.2482 17.7298C11.1692 17.7218 11.0925 17.7059 11.0316 17.6523C11.0194 17.6422 11.0078 17.6358 10.9934 17.6294C10.9901 17.6328 10.9869 17.6361 10.9835 17.6396C10.8986 17.721 10.777 17.7352 10.6631 17.7337C10.5118 17.7274 10.3649 17.6959 10.2214 17.6488C10.2168 17.6473 10.2123 17.6458 10.2076 17.6443C10.0958 17.6076 9.9939 17.5519 9.9008 17.4808C9.89495 17.4765 9.88911 17.4722 9.88309 17.4677C9.79646 17.401 9.71863 17.3208 9.65378 17.2334C9.64548 17.2222 9.63703 17.2112 9.62857 17.2001C9.52787 17.0668 9.52787 17.0668 9.52787 17.0222C9.56674 17.0073 9.6056 16.9923 9.64564 16.977C9.63957 16.9708 9.63349 16.9647 9.62724 16.9584C9.42832 16.7326 9.36039 16.3981 9.36349 16.1073C9.36356 16.0963 9.36362 16.0854 9.36367 16.0744C9.36381 16.0479 9.36404 16.0215 9.36431 15.9951C9.55271 16.0125 9.73762 16.091 9.9008 16.1824C9.89993 16.1787 9.89906 16.1749 9.89816 16.171C9.85103 15.955 9.87716 15.6918 9.95314 15.4848C9.99983 15.4987 10.0411 15.5177 10.084 15.5405C10.0902 15.5437 10.0965 15.547 10.1029 15.5503C10.1483 15.5741 10.1483 15.5741 10.156 15.5817C10.1571 15.5762 10.1582 15.5708 10.1593 15.5651C10.1887 15.423 10.2241 15.2864 10.2819 15.1525C10.284 15.1476 10.286 15.1427 10.2882 15.1376C10.3029 15.1052 10.3029 15.1052 10.3188 15.0983C10.3365 15.0969 10.3422 15.1009 10.3565 15.111C10.361 15.1142 10.3655 15.1173 10.3701 15.1206C10.3773 15.1258 10.3773 15.1258 10.3845 15.1311C10.3895 15.1346 10.3944 15.1382 10.3995 15.1418C10.4445 15.1744 10.4872 15.2092 10.5289 15.2458C10.5322 15.2486 10.5355 15.2515 10.5389 15.2544C10.5915 15.3001 10.6391 15.3493 10.6859 15.4008C10.6891 15.3952 10.6891 15.3952 10.6925 15.3896C10.773 15.2525 10.8856 15.1234 10.9869 15.0003ZM10.9999 15.1618C10.7587 15.4666 10.5666 15.8699 10.5669 16.2595C10.5669 16.2666 10.5669 16.2738 10.5669 16.2811C10.5673 16.3377 10.57 16.394 10.5739 16.4505C10.5744 16.4584 10.5749 16.4662 10.5754 16.4743C10.576 16.4816 10.5765 16.4888 10.5771 16.4963C10.5776 16.5028 10.578 16.5092 10.5785 16.5158C10.5799 16.5324 10.5799 16.5324 10.5943 16.5442C10.598 16.5397 10.598 16.5397 10.6018 16.5351C10.6483 16.4789 10.6949 16.4231 10.7448 16.3698C10.7505 16.3635 10.7562 16.3573 10.7621 16.3509C10.8126 16.2959 10.8641 16.242 10.9213 16.1936C10.9367 16.1805 10.952 16.1672 10.9672 16.1538C10.9722 16.1494 10.9772 16.145 10.9824 16.1405C10.986 16.1372 10.9896 16.134 10.9934 16.1307C11.0164 16.1406 11.0323 16.154 11.0506 16.1707C11.07 16.1883 11.0895 16.2056 11.1094 16.2225C11.1409 16.2497 11.1704 16.2787 11.1999 16.308C11.2052 16.3132 11.2105 16.3184 11.216 16.3238C11.2642 16.3714 11.3082 16.4217 11.3512 16.4739C11.3548 16.4783 11.3585 16.4827 11.3622 16.4872C11.3783 16.5067 11.3938 16.5262 11.4077 16.5473C11.4113 16.5527 11.415 16.558 11.4187 16.5635C11.4208 16.5635 11.423 16.5635 11.4252 16.5635C11.4306 16.5217 11.4329 16.4807 11.4331 16.4385C11.4331 16.4322 11.4332 16.4259 11.4332 16.4194C11.4332 16.4061 11.4333 16.3928 11.4333 16.3795C11.4334 16.3596 11.4336 16.3398 11.4338 16.3199C11.4344 16.2027 11.4238 16.0868 11.3945 15.9729C11.3929 15.9663 11.3912 15.9597 11.3895 15.9529C11.3584 15.8329 11.316 15.719 11.2616 15.6075C11.2592 15.6023 11.2567 15.5971 11.2541 15.5918C11.1922 15.4621 11.1427 15.3408 11.0554 15.2262C11.0485 15.2171 11.0416 15.2079 11.0348 15.1987C11.0313 15.194 11.0277 15.1893 11.0241 15.1844C11.0209 15.18 11.0176 15.1757 11.0143 15.1713C11.0117 15.1681 11.0092 15.165 11.0065 15.1618C11.0043 15.1618 11.0022 15.1618 10.9999 15.1618ZM10.3588 15.2587C10.3245 15.3576 10.295 15.4558 10.2768 15.5589C10.2741 15.5732 10.2709 15.5872 10.2673 15.6013C10.263 15.6235 10.2608 15.6375 10.2672 15.6592C10.289 15.6824 10.3134 15.6984 10.3402 15.7155C10.3601 15.7291 10.3773 15.7453 10.3948 15.7617C10.4121 15.7779 10.4293 15.7937 10.448 15.8083C10.4622 15.8197 10.4735 15.831 10.4851 15.8449C10.4885 15.8489 10.4918 15.8528 10.4953 15.8569C10.4977 15.8599 10.5002 15.8628 10.5027 15.8659C10.5221 15.8468 10.5254 15.8227 10.5326 15.7973C10.5518 15.7314 10.5756 15.6677 10.6005 15.6038C10.6125 15.573 10.6233 15.542 10.6336 15.5106C10.6289 15.5056 10.6242 15.5006 10.6194 15.4955C10.6131 15.4887 10.6068 15.4819 10.6004 15.4751C10.5971 15.4715 10.5938 15.468 10.5904 15.4643C10.573 15.4456 10.556 15.4267 10.5395 15.4073C10.4917 15.3529 10.433 15.2979 10.3719 15.2587C10.3675 15.2587 10.3632 15.2587 10.3588 15.2587ZM11.5855 15.2934C11.5812 15.2971 11.5769 15.3008 11.5725 15.3046C11.45 15.4065 11.45 15.4065 11.3532 15.53C11.3539 15.5618 11.3729 15.5926 11.3859 15.6212C11.4225 15.7029 11.4501 15.7873 11.4775 15.8724C11.4976 15.8636 11.5109 15.8537 11.5259 15.8381C11.5301 15.8338 11.5343 15.8295 11.5386 15.8251C11.543 15.8206 11.5474 15.8161 11.552 15.8114C11.6029 15.76 11.6568 15.7115 11.7189 15.6734C11.7351 15.6596 11.7351 15.6596 11.7354 15.6358C11.7333 15.6043 11.728 15.5732 11.7221 15.5421C11.7209 15.536 11.7198 15.5299 11.7186 15.5235C11.7098 15.4784 11.6991 15.4339 11.6869 15.3895C11.6854 15.3838 11.6838 15.3781 11.6822 15.3723C11.6711 15.3333 11.657 15.296 11.6411 15.2587C11.618 15.2587 11.6022 15.2789 11.5855 15.2934ZM10.0251 15.6398C10.0026 15.7716 10.0026 15.7716 9.99239 15.9047C9.99213 15.913 9.99187 15.9213 9.9916 15.9299C9.98999 16.0059 9.99625 16.0811 10.0055 16.1566C10.006 16.162 10.0066 16.1674 10.0072 16.173C10.0139 16.2329 10.0246 16.2744 10.0734 16.3132C10.0857 16.3226 10.0982 16.3317 10.1107 16.3408C10.2384 16.438 10.3298 16.5848 10.4091 16.7209C10.4116 16.7253 10.4142 16.7297 10.4168 16.7342C10.419 16.738 10.4213 16.7419 10.4235 16.7459C10.4317 16.7589 10.4409 16.771 10.4504 16.7832C10.5002 16.7143 10.4996 16.6656 10.4864 16.5845C10.4842 16.5697 10.4821 16.5549 10.48 16.5401C10.4787 16.5302 10.4773 16.5204 10.4758 16.5105C10.4643 16.43 10.4622 16.3488 10.4622 16.2676C10.4622 16.2599 10.4622 16.2522 10.4622 16.2443C10.4626 16.1869 10.4666 16.1306 10.4737 16.0737C10.4747 16.0647 10.4756 16.0558 10.4765 16.0468C10.4771 16.0423 10.4776 16.0378 10.4781 16.0332C10.4799 16.0076 10.4772 15.996 10.4624 15.9746C10.4559 15.968 10.4493 15.9615 10.4426 15.9551C10.439 15.9516 10.4355 15.948 10.4318 15.9443C10.4244 15.9369 10.4168 15.9295 10.4093 15.9221C10.3985 15.9116 10.3881 15.9009 10.3778 15.89C10.2817 15.7901 10.1612 15.7048 10.0382 15.6398C10.0339 15.6398 10.0296 15.6398 10.0251 15.6398ZM11.6063 15.9051C11.5968 15.9147 11.5874 15.9244 11.578 15.9342C11.5696 15.943 11.561 15.9516 11.5524 15.9602C11.5262 15.9883 11.5262 15.9883 11.5146 16.0237C11.5157 16.0405 11.5157 16.0405 11.5193 16.0575C11.5371 16.1526 11.5387 16.2479 11.5385 16.3443C11.5385 16.351 11.5385 16.3578 11.5385 16.3647C11.5386 16.4615 11.5347 16.5569 11.5209 16.6528C11.5142 16.7058 11.5191 16.7385 11.5495 16.7832C11.5697 16.7596 11.5851 16.7355 11.6002 16.7085C11.6249 16.6652 11.6513 16.6235 11.6804 16.5829C11.6837 16.5783 11.6869 16.5737 11.6903 16.569C11.7646 16.4656 11.8458 16.3656 11.95 16.2899C11.9834 16.2587 11.9867 16.2127 11.9944 16.1695C11.9952 16.1652 11.996 16.1609 11.9968 16.1565C12.0251 15.9881 12.0144 15.8054 11.9748 15.6398C11.8658 15.6398 11.6832 15.8297 11.6063 15.9051ZM9.47553 16.1307C9.46259 16.4038 9.55923 16.6932 9.72916 16.9069C9.74378 16.9253 9.74378 16.9253 9.75364 16.9407C9.76259 16.9525 9.76259 16.9525 9.77715 16.9527C9.7826 16.9519 9.78805 16.9511 9.79366 16.9503C9.80017 16.9495 9.80668 16.9487 9.81339 16.9479C9.82832 16.9457 9.84325 16.9435 9.85817 16.9413C10.0304 16.9179 10.2023 16.9272 10.3686 16.977C10.3907 16.9843 10.3907 16.9843 10.4111 16.9834C10.4054 16.941 10.3886 16.9074 10.3698 16.8692C10.3663 16.862 10.3628 16.8548 10.3592 16.8475C10.3265 16.782 10.2892 16.7207 10.2476 16.6604C10.2446 16.6562 10.2417 16.652 10.2387 16.6476C10.0582 16.3877 9.79694 16.2124 9.48862 16.1307C9.4843 16.1307 9.47998 16.1307 9.47553 16.1307ZM12.2561 16.2276C12.251 16.2301 12.246 16.2325 12.2407 16.235C12.1282 16.2893 12.0285 16.3582 11.9355 16.4408C11.9305 16.4453 11.9254 16.4497 11.9202 16.4543C11.7876 16.5779 11.6805 16.7562 11.6063 16.9192C11.6044 16.9234 11.6025 16.9276 11.6005 16.9319C11.5931 16.9491 11.5884 16.9611 11.5909 16.9798C11.5931 16.9848 11.5931 16.9848 11.5953 16.9899C11.6017 16.9878 11.608 16.9857 11.6145 16.9835C11.8019 16.9227 11.9951 16.9174 12.1892 16.9493C12.2054 16.9513 12.2203 16.9523 12.2365 16.9511C12.436 16.7764 12.5125 16.4452 12.528 16.1962C12.5292 16.1744 12.5301 16.1526 12.5309 16.1307C12.4412 16.1307 12.3358 16.1895 12.2561 16.2276ZM10.9721 16.2906C10.968 16.2944 10.964 16.2982 10.9598 16.3021C10.9555 16.3061 10.9512 16.3102 10.9468 16.3144C10.9424 16.3186 10.938 16.3227 10.9334 16.327C10.9207 16.339 10.9079 16.3511 10.8953 16.3633C10.8893 16.3689 10.8834 16.3746 10.8773 16.3804C10.8516 16.4054 10.827 16.431 10.8036 16.4581C10.7936 16.4696 10.7835 16.481 10.7733 16.4924C10.6535 16.6264 10.52 16.792 10.5219 16.979C10.522 16.9844 10.522 16.9898 10.522 16.9953C10.5221 17.0086 10.5222 17.0219 10.5223 17.0351C10.5258 17.0367 10.5292 17.0383 10.5327 17.04C10.6109 17.0773 10.685 17.1177 10.7579 17.1643C10.7687 17.1708 10.7796 17.1773 10.7906 17.1837C10.7906 17.18 10.7906 17.1764 10.7907 17.1726C10.7932 16.9717 10.8672 16.8641 10.984 16.7006C10.9946 16.6873 10.9946 16.6873 10.9934 16.6734C11.0161 16.6937 11.0316 16.7165 11.047 16.7424C11.0495 16.7466 11.052 16.7509 11.0546 16.7552C11.0627 16.7688 11.0706 16.7824 11.0785 16.7961C11.081 16.8005 11.0835 16.8049 11.0862 16.8095C11.1678 16.9527 11.2111 17.0191 11.2093 17.1837C11.2128 17.1813 11.2164 17.1789 11.22 17.1765C11.2636 17.1482 11.3086 17.1231 11.3545 17.0985C11.3606 17.0952 11.3667 17.0919 11.3731 17.0885C11.4076 17.07 11.4423 17.0522 11.4775 17.0351C11.4852 16.8354 11.3866 16.679 11.2589 16.5304C11.2495 16.5194 11.2403 16.5083 11.2312 16.4972C11.1866 16.4434 11.1374 16.3941 11.0879 16.3447C11.0843 16.3412 11.0808 16.3376 11.0771 16.3339C11.067 16.3238 11.0568 16.3137 11.0465 16.3036C11.0406 16.2977 11.0346 16.2918 11.0284 16.2857C11.0044 16.2657 10.9929 16.271 10.9721 16.2906ZM10.9999 16.8801C10.9226 17.0277 10.8689 17.0982 10.9196 17.2643C10.9342 17.304 10.9507 17.3407 10.9869 17.3645C11.0024 17.3694 11.0024 17.3694 11.0196 17.3645C11.0767 17.3193 11.0929 17.24 11.101 17.1719C11.1136 17.0396 11.0668 16.9961 11.0065 16.8801C11.0043 16.8801 11.0022 16.8801 10.9999 16.8801ZM9.745 17.0678C9.73796 17.0694 9.73796 17.0694 9.73077 17.071C9.71972 17.0736 9.70882 17.0769 9.69798 17.0803C9.69582 17.0846 9.69366 17.0888 9.69144 17.0932C9.87668 17.3713 10.1335 17.5313 10.4616 17.6005C10.5934 17.6272 10.7577 17.6467 10.8822 17.5842C10.8995 17.5715 10.9117 17.5582 10.9214 17.539C10.9272 17.4855 10.9088 17.4476 10.8753 17.406C10.8605 17.3896 10.8453 17.3738 10.8298 17.3581C10.826 17.3539 10.8222 17.3496 10.8183 17.3453C10.7487 17.2705 10.6523 17.2169 10.5616 17.1708C10.5564 17.1681 10.5512 17.1655 10.5459 17.1627C10.2888 17.0333 10.0266 17.0049 9.745 17.0678ZM11.1447 17.3808C11.1119 17.4186 11.0742 17.4704 11.078 17.5224C11.0814 17.5455 11.0873 17.5577 11.1046 17.5737C11.2032 17.6446 11.3615 17.6282 11.4751 17.6114C11.7151 17.5721 11.9337 17.4934 12.1122 17.3258C12.1158 17.3224 12.1194 17.319 12.1232 17.3156C12.196 17.2475 12.2652 17.1734 12.315 17.0868C12.2721 17.0712 12.2295 17.0614 12.1845 17.0537C12.1785 17.0526 12.1724 17.0515 12.1662 17.0504C11.7986 16.9858 11.4052 17.1151 11.1447 17.3808Z" fill="#6A430E"/>
<path fill-rule="evenodd" clip-rule="evenodd" d="M10.7604 15.6421C10.756 15.6505 10.7518 15.6591 10.7476 15.6678C10.7397 15.6843 10.7322 15.7012 10.7252 15.7185C10.814 15.7568 10.8875 15.7731 10.9428 15.8317C10.9637 15.8538 10.982 15.8774 10.9975 15.9023C11.0131 15.8774 11.0314 15.8538 11.0523 15.8317C11.1076 15.7731 11.1811 15.7568 11.2699 15.7185C11.263 15.7015 11.2556 15.6849 11.2479 15.6687C11.2436 15.6597 11.2392 15.6508 11.2347 15.6421C11.1564 15.4895 11.0524 15.3785 11.0433 15.3689C11.0306 15.3557 11.0141 15.3491 10.9976 15.3491C10.981 15.3491 10.9645 15.3557 10.9518 15.3689C10.9428 15.3784 10.8386 15.4894 10.7604 15.6421ZM11.1585 15.6793C11.1016 15.5686 11.0295 15.4808 10.9975 15.4444C10.9656 15.4808 10.8935 15.5686 10.8366 15.6793C10.8977 15.7128 10.9521 15.7203 10.9975 15.7667C11.043 15.7203 11.0973 15.7128 11.1585 15.6793Z" fill="#6A430E"/>
<path fill-rule="evenodd" clip-rule="evenodd" d="M10.7604 17.9801C10.756 17.9716 10.7518 17.963 10.7476 17.9543C10.7397 17.9378 10.7322 17.9209 10.7252 17.9036C10.814 17.8653 10.8875 17.8167 10.9428 17.7581C10.9637 17.736 10.982 17.7125 10.9975 17.6875C11.0131 17.7125 11.0314 17.736 11.0523 17.7581C11.1076 17.8167 11.1811 17.8653 11.2699 17.9036C11.263 17.9206 11.2556 17.9372 11.2479 17.9535C11.2436 17.9625 11.2392 17.9713 11.2347 17.9801C11.1564 18.1326 11.0524 18.2437 11.0433 18.2532C11.0306 18.2664 11.0141 18.273 10.9976 18.273C10.981 18.273 10.9645 18.2664 10.9518 18.2532C10.9428 18.2438 10.8386 18.1327 10.7604 17.9801ZM11.1585 17.9428C11.1016 18.0535 11.0295 18.1414 10.9975 18.1778C10.9656 18.1414 10.8935 18.0536 10.8366 17.9429C10.8977 17.9093 10.9521 17.8695 10.9975 17.8232C11.043 17.8695 11.0973 17.9093 11.1585 17.9428Z" fill="#6A430E"/>
</g>
<defs>
<filter id="filter0_i_363_2697" x="0" y="0" width="84" height="35" filterUnits="userSpaceOnUse" color-interpolation-filters="sRGB">
<feFlood flood-opacity="0" result="BackgroundImageFix"/>
<feBlend mode="normal" in="SourceGraphic" in2="BackgroundImageFix" result="shape"/>
<feColorMatrix in="SourceAlpha" type="matrix" values="0 0 0 0 0 0 0 0 0 0 0 0 0 0 0 0 0 0 127 0" result="hardAlpha"/>
<feOffset dy="5"/>
<feGaussianBlur stdDeviation="4.45"/>
<feComposite in2="hardAlpha" operator="arithmetic" k2="-1" k3="1"/>
<feColorMatrix type="matrix" values="0 0 0 0 0.6925 0 0 0 0 0.451656 0 0 0 0 0.119456 0 0 0 0.41 0"/>
<feBlend mode="normal" in2="shape" result="effect1_innerShadow_363_2697"/>
</filter>
<linearGradient id="paint0_linear_363_2697" x1="15" y1="30" x2="15" y2="114" gradientUnits="userSpaceOnUse">
<stop offset="0.247903" stop-color="#FFE2BA"/>
<stop offset="0.251007" stop-color="#6C440E"/>
</linearGradient>
</defs>
</svg>
