<svg width="34" height="30" viewBox="0 0 34 30" fill="none" xmlns="http://www.w3.org/2000/svg">
<g>
<g>
<rect y="0.480469" width="33.88" height="29.04" rx="7.3931" fill="url(#paint0_linear_134_437paint0_linear_134_43799)"/>
<rect y="0.480469" width="33.88" height="29.04" rx="7.3931" fill="#FFE2BA"/>
<g >
<path d="M19.2518 3.0401C19.3344 2.93001 19.3894 2.7924 19.3894 2.65478V2.32451C19.3894 1.96671 19.1142 1.69148 18.7564 1.69148H17.3803V0.755698C17.3803 0.59056 17.2702 0.480469 17.105 0.480469C16.9399 0.480469 16.8298 0.59056 16.8298 0.755698V1.719H15.4537C15.0959 1.719 14.8206 1.99423 14.8206 2.35203V2.6823C14.8206 2.81992 14.8757 2.95753 14.9582 3.06762C13.6371 3.97588 12.7839 5.62726 12.7839 7.38873C12.7839 9.53551 13.9674 11.352 15.5913 12.0676V12.7282C15.5913 12.9759 15.839 13.1135 16.1693 13.1961V13.8291C16.1693 13.9942 16.2793 14.1043 16.4445 14.1043C16.6096 14.1043 16.7197 13.9942 16.7197 13.8291V13.2511H16.8573V14.0768C16.8573 14.2419 16.9674 14.352 17.1326 14.352C17.2977 14.352 17.4078 14.2419 17.4078 14.0768V13.2511H17.5454V13.8291C17.5454 13.9942 17.6555 14.1043 17.8206 14.1043C17.9858 14.1043 18.0959 13.9942 18.0959 13.8291V13.1961C18.3711 13.141 18.6188 13.0034 18.6188 12.7557V12.0951C20.2702 11.3796 21.4261 9.56304 21.4261 7.41625C21.3986 5.57221 20.5729 3.92084 19.2518 3.0401ZM15.3436 2.35203C15.3436 2.29698 15.3711 2.26946 15.4261 2.26946H18.7289C18.7839 2.26946 18.8115 2.29698 18.8115 2.35203V2.6823C18.8115 2.73735 18.7839 2.76487 18.7289 2.76487H15.4261C15.3711 2.76487 15.3436 2.73735 15.3436 2.6823V2.35203ZM17.4078 11.7649C17.2977 11.7649 17.1876 11.7924 17.0775 11.7924C16.9949 11.7924 16.9124 11.7924 16.8298 11.7649C15.5913 7.91166 16.6371 3.86579 16.8023 3.28781H17.3803C17.5454 3.86579 18.5638 7.88414 17.4078 11.7649ZM13.3069 7.3612C13.3069 5.87496 13.9949 4.44377 15.0683 3.61808C14.5179 4.93918 13.5546 7.96671 14.9582 11.0218C13.9674 10.2236 13.3069 8.87496 13.3069 7.3612ZM15.839 3.28781H16.2518C16.0041 4.25111 15.1509 7.93918 16.2243 11.6823C16.0867 11.6548 15.9766 11.5997 15.839 11.5447C13.6371 7.82909 15.5087 3.94836 15.839 3.28781ZM18.0683 12.563H18.0408C17.9582 12.5906 17.8206 12.6181 17.6555 12.6181H16.5271C16.3344 12.6181 16.1968 12.5906 16.1417 12.563V12.2052C16.4445 12.2878 16.7748 12.3429 17.105 12.3429C17.4353 12.3429 17.7656 12.2878 18.0683 12.2052V12.563ZM18.3436 11.5447C18.2335 11.5997 18.1234 11.6273 18.0133 11.6548C19.0592 7.93918 18.206 4.25111 17.9582 3.28781H18.3711C18.7014 3.94836 20.5454 7.80157 18.3436 11.5447ZM19.2518 10.9942C20.6004 7.93918 19.6922 4.96671 19.1142 3.64561C20.1876 4.44377 20.8482 5.84744 20.8482 7.38873C20.8482 8.84744 20.2151 10.1685 19.2518 10.9942Z" fill="#805211"/>
<path d="M13.7749 13.8016C13.7749 13.774 13.7749 13.719 13.7749 13.6915V13.3612C13.7749 13.0034 13.4996 12.7282 13.1418 12.7282H11.7106V0.755698C11.7106 0.59056 11.6006 0.480469 11.4354 0.480469C11.2703 0.480469 11.1602 0.59056 11.1602 0.755698V12.7282H9.72899C9.37119 12.7282 9.09596 13.0034 9.09596 13.3612V13.6915C9.09596 13.719 9.09596 13.774 9.09596 13.8016C7.11431 14.5447 5.79321 16.1961 5.79321 17.9025C5.79321 19.9667 7.52716 21.7007 9.89413 22.2511V23.0768C9.89413 23.352 10.1418 23.5172 10.4721 23.5997V24.0401C10.4721 24.2052 10.5822 24.3153 10.7473 24.3153C10.9125 24.3153 11.0226 24.2052 11.0226 24.0401V23.6548H11.1877V24.2052C11.1877 24.3704 11.2978 24.4805 11.4629 24.4805C11.6281 24.4805 11.7382 24.3704 11.7382 24.2052V23.6548H11.9033V24.0401C11.9033 24.2052 12.0134 24.3153 12.1785 24.3153C12.3437 24.3153 12.4538 24.2052 12.4538 24.0401V23.5997C12.7565 23.5172 12.9767 23.352 12.9767 23.1043V22.2786C15.3437 21.7282 17.0776 19.9942 17.0776 17.93C17.0776 16.141 15.784 14.5447 13.7749 13.8016ZM9.72899 13.2786H13.1143C13.1694 13.2786 13.1969 13.3062 13.1969 13.3612V13.6915C13.1969 13.7465 13.1694 13.774 13.1143 13.774H9.75652C9.70147 13.774 9.67395 13.7465 9.67395 13.6915V13.3612H9.64642C9.64642 13.3062 9.67395 13.2786 9.72899 13.2786ZM6.34367 17.93C6.34367 16.4162 7.55468 14.9575 9.37119 14.297C8.6556 15.3704 7.03174 18.4254 9.17853 21.4805C7.52716 20.8199 6.34367 19.4713 6.34367 17.93ZM12.4262 23.0218C12.3712 23.0493 12.2336 23.1043 12.0134 23.1043H10.8574C10.6372 23.1043 10.4996 23.0493 10.4446 23.0218V22.3612C10.7749 22.4162 11.1051 22.4438 11.4354 22.4438C11.7657 22.4438 12.096 22.4162 12.4262 22.3612V23.0218ZM12.6189 21.7832C12.2336 21.8658 11.8483 21.8933 11.4354 21.8933C10.9675 21.8933 10.5272 21.8383 10.1143 21.7557C7.14184 18.3704 9.53633 14.9575 10.0317 14.3245H12.6739C13.1694 14.9575 15.5363 18.4529 12.6189 21.7832ZM13.4996 21.5355C15.6739 18.4529 14.0501 15.3979 13.3345 14.297C13.362 14.297 13.3895 14.2695 13.4446 14.2695C13.4446 14.2695 13.4721 14.2695 13.4721 14.297C15.3437 14.93 16.5547 16.3612 16.5547 17.93C16.5272 19.5263 15.2886 20.93 13.4996 21.5355Z" fill="#805211"/>
<path d="M26.4905 10.4713C26.4905 10.4162 26.518 10.3612 26.518 10.3062V9.89331C26.518 9.56304 26.2428 9.28781 25.9125 9.28781H24.7565V0.755698C24.7565 0.59056 24.6464 0.480469 24.4813 0.480469C24.3162 0.480469 24.2061 0.59056 24.2061 0.755698V9.31533H23.0776C22.7474 9.31533 22.4721 9.59056 22.4721 9.92084V10.3337C22.4721 10.3887 22.4721 10.4438 22.4997 10.4988C21.5639 10.8016 20.9033 11.6823 20.9033 12.7282V18.2328C20.9033 19.4162 21.7841 20.4071 22.94 20.5447V21.0676C22.94 21.3153 23.1877 21.4805 23.518 21.5355V22.3337C23.518 22.4988 23.6281 22.6089 23.7932 22.6089C23.9584 22.6089 24.0685 22.4988 24.0685 22.3337V21.563H24.2061V22.5814C24.2061 22.7465 24.3162 22.8566 24.4813 22.8566C24.6464 22.8566 24.7565 22.7465 24.7565 22.5814V21.563H24.9217V22.3337C24.9217 22.4988 25.0318 22.6089 25.1969 22.6089C25.362 22.6089 25.4721 22.4988 25.4721 22.3337V21.5355C25.7749 21.4805 26.0501 21.3429 26.0501 21.0676V20.5447C27.2061 20.3796 28.0868 19.4162 28.0868 18.2328V12.7282C28.0868 11.6823 27.3987 10.8016 26.4905 10.4713ZM22.94 9.92084H22.9951C22.9951 9.89331 23.0226 9.86579 23.0501 9.86579H25.885C25.9125 9.86579 25.94 9.89331 25.94 9.92084V10.3337C25.94 10.3612 25.94 10.3612 25.9125 10.3887C25.8299 10.3887 25.7749 10.3887 25.6923 10.3887C25.6923 10.3887 23.0501 10.3887 22.9675 10.3887C22.9675 10.3887 22.94 10.3612 22.94 10.3337V9.92084ZM21.4263 13.3337H27.5363V15.1777H21.4263V13.3337ZM21.4263 15.7282H27.5363V17.5722H21.4263V15.7282ZM25.0593 20.9851H23.8758C23.6831 20.9851 23.518 20.9575 23.4354 20.93V20.5172H25.4721V20.93H25.4997C25.4171 20.9575 25.2795 20.9851 25.0593 20.9851ZM27.5639 18.2052H27.5363C27.5363 19.1961 26.7382 19.9942 25.7474 19.9942H23.2428C22.2519 19.9942 21.4538 19.1961 21.4538 18.2052V18.1227H27.5639V18.2052ZM27.5639 12.7832H27.5363H21.4263V12.7007C21.4263 11.7924 22.0868 11.0493 22.9675 10.9117C22.9951 10.9117 25.9675 10.9117 26.0226 10.9117C26.8758 11.0493 27.5639 11.7924 27.5639 12.7007V12.7832Z" fill="#805211"/>
</g>
</g>
<rect x="0.267073" y="0.747542" width="33.3459" height="28.5059" rx="7.12602" stroke="#F9D692" stroke-width="0.534147"/>
</g>
<defs>
<filter id="filter0_i_134_4379" x="0" y="-3.25856" width="34.414" height="32.7791" filterUnits="userSpaceOnUse" color-interpolation-filters="sRGB">
<feFlood flood-opacity="0" result="BackgroundImageFix"/>
<feBlend mode="normal" in="SourceGraphic" in2="BackgroundImageFix" result="shape"/>
<feColorMatrix in="SourceAlpha" type="matrix" values="0 0 0 0 0 0 0 0 0 0 0 0 0 0 0 0 0 0 127 0" result="hardAlpha"/>
<feOffset dx="0.534147" dy="-3.73903"/>
<feGaussianBlur stdDeviation="2.05647"/>
<feComposite in2="hardAlpha" operator="arithmetic" k2="-1" k3="1"/>
<feColorMatrix type="matrix" values="0 0 0 0 0 0 0 0 0 0 0 0 0 0 0 0 0 0 0.33 0"/>
<feBlend mode="normal" in2="shape" result="effect1_innerShadow_134_4379"/>
</filter>
<linearGradient id="paint0_linear_134_4379" x1="16.94" y1="0.480469" x2="16.94" y2="29.5205" gradientUnits="userSpaceOnUse">
<stop stop-color="#E8D765"/>
<stop offset="0.515" stop-color="#A59236"/>
<stop offset="1" stop-color="#60621E"/>
</linearGradient>
<clipPath id="clip0_134_4379">
<rect y="0.480469" width="33.88" height="29.04" rx="7.3931" fill="white"/>
</clipPath>
</defs>
</svg>
