<svg width="24" height="21" viewBox="0 0 24 21" fill="none" xmlns="http://www.w3.org/2000/svg">
<path d="M7.94874 17.996C7.83487 17.996 7.72764 17.9271 7.68452 17.8143C6.82514 15.5771 7.71916 12.7907 9.72019 11.4715C9.80679 11.4143 9.89487 11.3598 9.98331 11.3053C10.2092 11.166 10.4226 11.034 10.595 10.8653C10.7789 10.6854 10.9532 10.3969 10.8921 10.1256C10.8184 9.80025 10.4395 9.58798 10.0732 9.38309L9.92472 9.29907C7.85256 8.10914 6.85352 5.41272 7.65025 3.16036C7.70221 3.01295 7.86362 2.93593 8.01139 2.98789C8.1588 3.03985 8.23582 3.20163 8.18386 3.34904C7.48736 5.31875 8.39465 7.76789 10.2063 8.80821L10.3496 8.88891C10.7797 9.12992 11.3151 9.42952 11.4441 10.0011C11.5399 10.4245 11.3704 10.8988 10.9908 11.2699C10.7734 11.4825 10.5232 11.6373 10.2807 11.7869C10.197 11.8385 10.1138 11.8901 10.032 11.9439C8.24392 13.1228 7.44499 15.6125 8.21297 17.6116C8.26898 17.7576 8.19602 17.9212 8.05009 17.9772C8.01692 17.9901 7.98265 17.996 7.94874 17.996Z" fill="#805211"/>
<path d="M15.774 17.996C15.7401 17.996 15.7058 17.9901 15.6726 17.9772C15.5267 17.9212 15.4537 17.7576 15.5097 17.6116C16.2774 15.6125 15.478 13.1228 13.6904 11.9439C13.6089 11.8901 13.5253 11.8385 13.4416 11.7869C13.1995 11.6373 12.9493 11.4829 12.7315 11.2699C12.3519 10.8988 12.1824 10.4245 12.2782 10.0011C12.4072 9.42952 12.9427 9.12992 13.3727 8.88891L13.5161 8.80821C15.3277 7.76789 16.235 5.31875 15.5385 3.34904C15.4865 3.20163 15.5635 3.03985 15.7109 2.98789C15.8591 2.93593 16.0201 3.01295 16.0721 3.16036C16.8688 5.41272 15.8698 8.10914 13.7976 9.29907L13.6491 9.38309C13.2828 9.58798 12.904 9.80025 12.8303 10.1256C12.7691 10.3969 12.9434 10.6854 13.1273 10.8653C13.3001 11.034 13.5135 11.166 13.7394 11.3053C13.8275 11.3598 13.9159 11.4143 14.0021 11.4715C16.0028 12.7907 16.8972 15.5771 16.0382 17.8143C15.9951 17.9271 15.8878 17.996 15.774 17.996Z" fill="#805211"/>
<path d="M15.5889 3.53759L7.26786 3.5339C6.66276 3.53354 6.18074 3.22583 6.03923 2.74934C5.90251 2.28796 6.12878 1.79894 6.62996 1.4728C7.09723 1.16878 7.71634 1.20526 8.26358 1.23806C8.47253 1.25059 8.67042 1.26201 8.83883 1.25391C11.2423 1.13598 13.6505 1.12898 15.995 1.23474C16.3035 1.24838 17.2417 1.29039 17.4919 2.00973C17.6751 2.53671 17.3206 3.09095 16.8721 3.32238C16.4542 3.53759 15.9744 3.53759 15.5889 3.53759ZM7.72002 1.78273C7.41821 1.78273 7.13961 1.81663 6.93877 1.94745C6.6517 2.13392 6.5183 2.37382 6.58205 2.5883C6.6506 2.81862 6.91961 2.96787 7.26786 2.96787L15.5889 2.97155C15.9302 2.97155 16.3167 2.97155 16.6126 2.81899C16.8426 2.70069 17.0357 2.42173 16.9572 2.19546C16.875 1.95888 16.5426 1.82584 15.9699 1.80005C13.6428 1.69612 11.2526 1.70202 8.86684 1.81921C8.66747 1.82953 8.45484 1.817 8.23005 1.80299C8.05906 1.79304 7.88622 1.78273 7.72002 1.78273Z" fill="#805211"/>
<path d="M15.6366 19.8387C15.6204 19.8387 15.6042 19.8387 15.5884 19.8387L7.26768 19.8354C6.66258 19.835 6.1802 19.5269 6.03906 19.0505C5.90271 18.5894 6.12898 18.1004 6.62979 17.7743C7.09706 17.4699 7.7169 17.506 8.26452 17.5395C8.47346 17.5521 8.66951 17.5631 8.83903 17.5554C11.2384 17.4378 13.6463 17.4308 15.9948 17.5362C16.3033 17.5499 17.2415 17.5919 17.4917 18.3112C17.6749 18.8382 17.3204 19.3921 16.8719 19.6235C16.4699 19.8306 16.0129 19.8387 15.6366 19.8387ZM7.72022 18.0838C7.41804 18.0838 7.13944 18.1181 6.9386 18.2489C6.65153 18.4354 6.5185 18.6749 6.58188 18.8894C6.65006 19.1201 6.91944 19.269 7.26805 19.2693L15.5887 19.2727C15.9351 19.276 16.3154 19.2734 16.6125 19.1201C16.8424 19.0018 17.0355 18.7228 16.957 18.4969C16.8748 18.2604 16.5424 18.1273 15.9698 18.1015C13.6382 17.9976 11.2484 18.0039 8.86667 18.1207C8.66693 18.1314 8.45541 18.1177 8.23098 18.1045C8.05962 18.0942 7.88642 18.0838 7.72022 18.0838Z" fill="#805211"/>
<path d="M9.95966 15.8707C9.13308 15.8707 8.30871 15.5969 7.65091 15.0791C7.5282 14.9825 7.50682 14.8046 7.60374 14.6818C7.69956 14.5588 7.87792 14.5374 8.001 14.6347C8.81321 15.2737 9.92723 15.4741 10.9071 15.1565C11.2167 15.0562 11.51 14.9092 11.821 14.7533C12.2002 14.5628 12.5923 14.366 13.0239 14.2569C14.1194 13.9806 15.3278 14.3395 16.1009 15.1734C16.2074 15.288 16.2004 15.4671 16.0858 15.5733C15.9712 15.6794 15.7921 15.6728 15.686 15.5582C15.0614 14.8841 14.0491 14.5816 13.1624 14.806C12.7909 14.8996 12.4431 15.0743 12.0746 15.2593C11.7587 15.4178 11.4322 15.5814 11.0818 15.6952C10.7181 15.8132 10.3385 15.8707 9.95966 15.8707Z" fill="#805211"/>
<path d="M15.9169 6.16137C15.8956 6.16137 15.8738 6.15916 15.8524 6.154C13.2448 5.54669 10.4869 5.54485 7.87853 6.147C7.72781 6.18311 7.57414 6.08767 7.53913 5.9351C7.50375 5.78291 7.59883 5.63071 7.75102 5.5957C10.4423 4.97328 13.2879 4.97623 15.9807 5.6027C16.1329 5.63808 16.2276 5.79028 16.1922 5.94247C16.162 6.0733 16.0455 6.16137 15.9169 6.16137Z" fill="#805211"/>
</svg>
