<svg width="108" height="71" viewBox="0 0 108 71" fill="none" xmlns="http://www.w3.org/2000/svg">
<g >
<rect x="1.37879" y="21.3788" width="99.2424" height="48.4848" rx="3.40909" stroke="#6C440E" stroke-width="0.757576"/>
<g filter="url(#filter1_i_131_2507)">
<rect x="2" y="22" width="98" height="47" rx="4" fill="#FFE2BA"/>
</g>
<g filter="url(#filter2_d_131_2507)">
<mask id="path-4-outside-1_131_2507" maskUnits="userSpaceOnUse" x="4" y="3" width="61" height="25" fill="black">
<rect fill="white" x="4" y="3" width="61" height="25"/>

</mask>

</g>
<g>
<mask id="path-6-outside-2_131_2507" maskUnits="userSpaceOnUse" x="5" y="26" width="58" height="15" fill="black">
<rect fill="white" x="5" y="26" width="58" height="15"/>

</mask>

</g>
<path d="M106.682 24.0297C106.682 31.77 100.407 38.0448 92.6669 38.0448C84.9265 38.0448 78.6517 31.77 78.6517 24.0297C78.6517 16.2893 84.9265 10.0145 92.6669 10.0145C100.407 10.0145 106.682 16.2893 106.682 24.0297Z" fill="#FFE2BA" stroke="#6C440E" stroke-width="0.757576"/>
<path d="M101.699 30.4069L98.4474 28.197C97.3657 27.4577 96.5519 26.3887 96.127 25.1493C95.7022 23.9099 95.6891 22.5664 96.0897 21.319L98.3615 14.3256C98.3874 14.2395 98.3786 14.1467 98.3369 14.067C98.2953 13.9874 98.2241 13.9272 98.1386 13.8994C98.0531 13.8716 97.9601 13.8784 97.8796 13.9184C97.799 13.9583 97.7373 14.0282 97.7077 14.1131L95.436 21.1066C94.9898 22.4956 95.0044 23.9917 95.4774 25.3718C95.9504 26.752 96.8567 27.9424 98.0611 28.7657L101.311 30.9745C101.375 31.0185 101.423 31.0808 101.45 31.1532C101.478 31.2257 101.482 31.3046 101.463 31.3795C101.444 31.4544 101.402 31.5217 101.344 31.5723C101.285 31.6228 101.213 31.6543 101.136 31.6624C99.9658 31.8217 98.6381 31.1903 97.2942 30.667C94.9707 29.6713 92.5498 28.9205 90.0706 28.4269C89.8046 28.3692 89.5539 28.2553 89.3355 28.0929C89.1171 27.9305 88.9359 27.7233 88.804 27.4851C88.6722 27.247 88.5927 26.9834 88.571 26.7121C88.5493 26.4408 88.5858 26.1679 88.6781 25.9119L89.2657 24.5783C90.8075 21.2373 91.7752 17.134 92.6356 13.5527C92.6552 13.465 92.6398 13.3731 92.5925 13.2967C92.5453 13.2203 92.47 13.1654 92.3828 13.1439C92.2956 13.1223 92.2034 13.1357 92.1259 13.1812C92.0485 13.2268 91.992 13.3008 91.9684 13.3875L90.9273 17.5939C90.2245 20.3652 89.2585 23.063 88.0425 25.6506C87.9123 25.9999 87.8588 26.3732 87.8856 26.7451C87.9124 27.117 88.0189 27.4787 88.1978 27.8058C88.3766 28.1329 88.6238 28.4178 88.9224 28.641C89.2211 28.8642 89.5642 29.0206 89.9286 29.0995C91.1583 29.3446 92.3749 29.6511 93.574 30.0179C94.8379 30.43 96.0082 30.8952 97.0405 31.3057C98.4658 31.8373 99.3743 32.3491 100.741 32.3704C101.96 32.525 102.715 31.2057 101.699 30.4069Z" fill="#6C440E"/>
<path d="M96.0477 31.6777L84.1701 31.6846C84.0791 31.6849 83.992 31.7213 83.9278 31.7858C83.8636 31.8502 83.8276 31.9375 83.8276 32.0284C83.8277 32.1194 83.8638 32.2066 83.928 32.271C83.9923 32.3354 84.0794 32.3717 84.1704 32.3719L96.048 32.3651C96.139 32.3647 96.2261 32.3284 96.2903 32.2639C96.3545 32.1995 96.3905 32.1122 96.3905 32.0212C96.3904 31.9303 96.3543 31.843 96.2901 31.7786C96.2258 31.7143 96.1387 31.678 96.0477 31.6777Z" fill="#6C440E"/>
<path d="M84.1704 30.6536H84.1707L90.6249 30.6502C90.7158 30.6499 90.803 30.6135 90.8672 30.5491C90.9313 30.4846 90.9674 30.3973 90.9673 30.3064C90.9673 30.2154 90.9312 30.1282 90.8669 30.0638C90.8027 29.9994 90.7155 29.9631 90.6245 29.9629L84.1701 29.9662C84.0791 29.9666 83.992 30.003 83.9278 30.0674C83.8636 30.1319 83.8276 30.2191 83.8276 30.3101C83.8277 30.401 83.8638 30.4883 83.928 30.5527C83.9923 30.6171 84.0794 30.6533 84.1704 30.6536Z" fill="#6C440E"/>
<path d="M84.1704 28.9348H84.1707L87.4597 28.9315C87.5507 28.9311 87.6378 28.8948 87.702 28.8303C87.7662 28.7659 87.8022 28.6786 87.8022 28.5876C87.8021 28.4967 87.766 28.4094 87.7018 28.3451C87.6375 28.2807 87.5504 28.2444 87.4594 28.2441L84.1701 28.2475C84.0791 28.2478 83.992 28.2842 83.9278 28.3487C83.8636 28.4131 83.8276 28.5004 83.8276 28.5913C83.8277 28.6823 83.8638 28.7695 83.928 28.8339C83.9923 28.8983 84.0794 28.9346 84.1704 28.9348Z" fill="#6C440E"/>
<path d="M84.1707 27.2166H86.8549C86.9001 27.2168 86.945 27.208 86.9868 27.1908C87.0286 27.1736 87.0666 27.1483 87.0986 27.1164C87.1307 27.0844 87.1561 27.0465 87.1734 27.0047C87.1908 26.963 87.1997 26.9182 87.1997 26.873C87.1997 26.8277 87.1908 26.783 87.1734 26.7412C87.1561 26.6994 87.1307 26.6615 87.0986 26.6296C87.0666 26.5976 87.0286 26.5724 86.9868 26.5551C86.945 26.5379 86.9001 26.5292 86.8549 26.5293H84.1707C84.0797 26.5296 83.9926 26.5659 83.9284 26.6303C83.8642 26.6948 83.8281 26.782 83.8281 26.873C83.8281 26.9639 83.8642 27.0512 83.9284 27.1156C83.9926 27.18 84.0797 27.2163 84.1707 27.2166Z" fill="#6C440E"/>
<path d="M84.1707 25.4979H87.1194C87.2104 25.4976 87.2975 25.4613 87.3617 25.3968C87.4259 25.3324 87.462 25.2452 87.462 25.1542C87.462 25.0633 87.4259 24.976 87.3617 24.9116C87.2975 24.8472 87.2104 24.8108 87.1194 24.8105H84.1707C84.0797 24.8108 83.9926 24.8472 83.9284 24.9116C83.8642 24.976 83.8281 25.0633 83.8281 25.1542C83.8281 25.2452 83.8642 25.3324 83.9284 25.3968C83.9926 25.4613 84.0797 25.4976 84.1707 25.4979Z" fill="#6C440E"/>
</g>
<defs>
<filter id="filter0_b_131_2507" x="-2.0303" y="-0.0303037" width="112.122" height="73.3028" filterUnits="userSpaceOnUse" color-interpolation-filters="sRGB">
<feFlood flood-opacity="0" result="BackgroundImageFix"/>
<feGaussianBlur in="BackgroundImageFix" stdDeviation="1.51515"/>
<feComposite in2="SourceAlpha" operator="in" result="effect1_backgroundBlur_131_2507"/>
<feBlend mode="normal" in="SourceGraphic" in2="effect1_backgroundBlur_131_2507" result="shape"/>
</filter>
<filter id="filter1_i_131_2507" x="2" y="17" width="98" height="52" filterUnits="userSpaceOnUse" color-interpolation-filters="sRGB">
<feFlood flood-opacity="0" result="BackgroundImageFix"/>
<feBlend mode="normal" in="SourceGraphic" in2="BackgroundImageFix" result="shape"/>
<feColorMatrix in="SourceAlpha" type="matrix" values="0 0 0 0 0 0 0 0 0 0 0 0 0 0 0 0 0 0 127 0" result="hardAlpha"/>
<feOffset dy="-5"/>
<feGaussianBlur stdDeviation="4.45"/>
<feComposite in2="hardAlpha" operator="arithmetic" k2="-1" k3="1"/>
<feColorMatrix type="matrix" values="0 0 0 0 0.6925 0 0 0 0 0.451656 0 0 0 0 0.119456 0 0 0 0.41 0"/>
<feBlend mode="normal" in2="shape" result="effect1_innerShadow_131_2507"/>
</filter>
<filter id="filter2_d_131_2507" x="0.677451" y="0.800816" width="66.797" height="31.3082" filterUnits="userSpaceOnUse" color-interpolation-filters="sRGB">
<feFlood flood-opacity="0" result="BackgroundImageFix"/>
<feColorMatrix in="SourceAlpha" type="matrix" values="0 0 0 0 0 0 0 0 0 0 0 0 0 0 0 0 0 0 127 0" result="hardAlpha"/>
<feOffset dy="0.954419"/>
<feGaussianBlur stdDeviation="2.62465"/>
<feComposite in2="hardAlpha" operator="out"/>
<feColorMatrix type="matrix" values="0 0 0 0 0.305882 0 0 0 0 0.176471 0 0 0 0 0 0 0 0 0.21 0"/>
<feBlend mode="normal" in2="BackgroundImageFix" result="effect1_dropShadow_131_2507"/>
<feBlend mode="normal" in="SourceGraphic" in2="effect1_dropShadow_131_2507" result="shape"/>
</filter>
<filter id="filter3_d_131_2507" x="2.43478" y="23.2686" width="63.7965" height="21.6138" filterUnits="userSpaceOnUse" color-interpolation-filters="sRGB">
<feFlood flood-opacity="0" result="BackgroundImageFix"/>
<feColorMatrix in="SourceAlpha" type="matrix" values="0 0 0 0 0 0 0 0 0 0 0 0 0 0 0 0 0 0 127 0" result="hardAlpha"/>
<feOffset dy="0.954419"/>
<feGaussianBlur stdDeviation="2.62465"/>
<feComposite in2="hardAlpha" operator="out"/>
<feColorMatrix type="matrix" values="0 0 0 0 0.305882 0 0 0 0 0.176471 0 0 0 0 0 0 0 0 0.21 0"/>
<feBlend mode="normal" in2="BackgroundImageFix" result="effect1_dropShadow_131_2507"/>
<feBlend mode="normal" in="SourceGraphic" in2="effect1_dropShadow_131_2507" result="shape"/>
</filter>
</defs>
</svg>
